{"glyphs":{"0":{"ha":861,"x_min":0,"x_max":0,"o":"m 430 418 b 382 450 412 418 393 431 b 342 503 360 450 342 467 b 430 589 342 552 385 589 b 519 503 475 589 519 558 b 430 418 519 450 475 418 m 365 -15 b 65 359 176 -15 65 134 b 535 1031 65 639 217 1031 b 700 878 679 1031 739 944 b 789 605 751 828 789 736 b 365 -15 789 364 672 -15 m 214 374 b 379 123 214 233 269 123 b 647 582 556 123 647 410 b 575 793 647 681 619 754 b 557 885 547 825 541 858 b 517 890 544 888 531 890 b 214 374 329 890 214 566 "},"1":{"ha":861,"x_min":0,"x_max":0,"o":"m 154 -3 b 83 65 116 -5 83 26 b 151 137 83 103 113 135 l 336 142 b 467 894 370 342 426 664 l 451 909 b 295 853 404 889 344 867 b 208 897 259 844 222 854 b 290 1001 190 948 225 981 b 510 1047 346 1019 449 1047 b 606 899 576 1047 623 1006 l 488 147 l 681 153 b 749 91 719 155 749 129 b 685 22 749 52 723 23 l 154 -3 "},"2":{"ha":861,"x_min":0,"x_max":0,"o":"m 501 1028 b 789 758 637 1028 789 953 b 294 151 789 490 506 263 l 302 132 b 660 151 424 142 563 151 b 733 83 707 151 733 124 b 655 9 733 44 708 9 l 172 10 b 72 72 119 10 83 23 b 126 173 62 122 89 149 b 638 747 365 331 638 549 b 504 883 638 837 585 883 b 319 794 433 883 369 842 b 219 781 289 766 252 760 b 199 875 185 802 178 840 b 501 1028 228 925 340 1028 "},"3":{"ha":861,"x_min":0,"x_max":0,"o":"m 413 -20 b 110 72 285 -20 176 19 b 97 170 76 101 75 141 b 200 181 120 203 157 205 b 418 119 254 147 332 119 b 644 278 544 119 644 176 b 438 426 644 385 531 426 b 326 495 370 426 328 447 b 390 582 322 531 337 558 b 630 788 509 634 630 694 b 489 892 630 854 570 892 b 291 792 419 892 358 864 b 197 778 263 765 226 757 b 186 883 162 803 161 847 b 501 1034 233 952 351 1034 b 773 808 665 1034 773 941 b 535 539 773 675 660 589 l 539 523 b 790 273 664 506 790 436 b 413 -20 790 89 633 -20 "},"4":{"ha":861,"x_min":0,"x_max":0,"o":"m 181 306 b 82 425 106 306 66 356 b 252 838 122 562 233 687 b 216 931 228 855 216 892 b 306 1031 216 997 256 1031 b 397 918 359 1031 397 993 b 238 438 397 757 322 590 b 575 449 347 439 469 444 l 631 863 b 611 935 618 883 611 906 b 702 1038 611 1000 651 1038 b 775 916 753 1038 786 1000 b 717 458 760 792 738 624 b 790 393 756 460 790 432 b 722 322 790 356 760 324 l 699 321 l 664 57 b 590 -22 656 6 626 -22 b 522 63 549 -22 515 13 l 557 315 b 181 306 432 310 294 306 "},"5":{"ha":861,"x_min":0,"x_max":0,"o":"m 185 -15 b 95 56 128 -15 95 8 b 196 128 95 99 124 128 b 595 388 399 128 595 217 b 433 521 595 481 536 521 b 238 492 369 521 288 505 b 145 581 189 480 134 513 b 227 944 161 667 205 851 b 303 1008 239 992 265 1006 l 691 1017 b 763 949 742 1018 763 983 b 680 879 763 903 725 881 l 360 870 b 289 622 335 786 306 685 l 301 608 b 476 633 342 617 409 633 b 740 392 638 633 740 553 b 185 -15 740 156 518 -15 "},"6":{"ha":861,"x_min":0,"x_max":0,"o":"m 431 -19 b 80 348 223 -19 80 117 b 585 1010 80 614 288 891 b 695 987 640 1033 678 1024 b 622 874 717 938 674 900 b 233 441 426 784 276 607 b 506 549 305 503 399 549 b 777 290 662 549 777 453 b 431 -19 777 119 640 -19 m 220 326 b 433 112 228 186 313 112 b 642 292 560 112 642 197 b 474 431 642 374 581 431 b 220 326 386 431 297 395 "},"7":{"ha":861,"x_min":0,"x_max":0,"o":"m 325 -15 b 296 93 288 -1 274 42 b 601 808 389 301 534 627 b 546 877 622 865 603 877 b 197 867 459 877 298 867 b 70 961 124 867 70 903 b 178 1049 70 1012 107 1049 b 266 1016 217 1049 248 1036 b 655 1020 384 1019 565 1020 b 763 819 747 1020 803 951 b 432 45 717 670 549 285 b 325 -15 403 -15 359 -29 "},"8":{"ha":861,"x_min":0,"x_max":0,"o":"m 408 -19 b 76 238 240 -19 76 64 b 276 542 76 365 165 459 b 137 794 201 608 137 694 b 445 1035 137 946 277 1035 b 653 981 538 1035 606 1009 b 731 1026 669 1008 696 1026 b 814 935 772 1026 814 997 b 491 536 814 813 638 639 l 510 524 b 751 224 635 440 751 350 b 408 -19 751 74 590 -19 m 217 240 b 415 105 217 138 329 105 b 609 225 514 105 609 151 b 385 461 609 311 477 401 b 217 240 288 389 217 320 m 276 790 b 385 618 276 733 327 671 b 635 847 484 685 572 765 l 633 849 b 449 912 603 873 531 912 b 276 790 353 912 276 863 "},"9":{"ha":861,"x_min":0,"x_max":0,"o":"m 431 1033 b 781 667 639 1033 781 898 b 277 5 781 401 573 124 b 166 28 221 -17 183 -10 b 240 140 144 78 187 115 b 629 574 435 231 586 408 b 356 467 558 512 463 467 b 84 726 200 467 84 563 b 431 1033 84 897 221 1033 m 219 723 b 388 584 219 640 280 584 b 642 690 475 584 565 620 b 428 903 634 829 548 903 b 219 723 301 903 219 819 "}," ":{"ha":861,"x_min":0,"x_max":0,"o":""},"A":{"ha":861,"x_min":0,"x_max":0,"o":"m 159 -35 b 85 97 101 -35 63 18 b 141 265 91 124 112 186 b 85 329 108 268 85 295 b 158 405 84 369 113 396 l 197 412 b 383 858 263 582 341 772 b 562 1031 440 975 485 1031 b 681 849 640 1031 679 970 b 689 463 683 754 685 608 b 763 397 733 462 762 435 b 694 324 764 361 738 328 b 706 156 697 263 701 205 b 754 73 735 135 754 108 b 672 -4 754 22 715 -4 b 575 90 626 -4 590 28 b 552 316 563 141 556 223 b 294 288 467 310 380 300 b 233 110 269 219 248 156 b 246 56 242 95 246 74 b 159 -35 246 3 208 -35 m 349 435 b 549 456 416 444 483 451 b 552 864 546 609 549 768 l 528 871 b 349 435 490 795 416 612 "},"Á":{"ha":861,"x_min":0,"x_max":0,"o":"m 159 -35 b 85 97 101 -35 63 18 b 141 265 91 124 112 186 b 85 329 108 268 85 295 b 158 405 84 369 113 396 l 197 412 b 383 858 263 582 341 772 b 562 1031 440 975 485 1031 b 681 849 640 1031 679 970 b 689 463 683 754 685 608 b 763 397 733 462 762 435 b 694 324 764 361 738 328 b 706 156 697 263 701 205 b 754 73 735 135 754 108 b 672 -4 754 22 715 -4 b 575 90 626 -4 590 28 b 552 316 563 141 556 223 b 294 288 467 310 380 300 b 233 110 269 219 248 156 b 246 56 242 95 246 74 b 159 -35 246 3 208 -35 m 542 1131 b 619 1126 567 1106 595 1115 b 735 1208 660 1145 708 1179 b 728 1301 763 1238 760 1271 b 628 1295 698 1331 653 1337 b 549 1208 608 1264 577 1232 b 542 1131 519 1183 518 1156 m 349 435 b 549 456 416 444 483 451 b 552 864 546 609 549 768 l 528 871 b 349 435 490 795 416 612 "},"Ă":{"ha":861,"x_min":0,"x_max":0,"o":"m 159 -35 b 85 97 101 -35 63 18 b 141 265 91 124 112 186 b 85 329 108 268 85 295 b 158 405 84 369 113 396 l 197 412 b 383 858 263 582 341 772 b 562 1031 440 975 485 1031 b 681 849 640 1031 679 970 b 689 463 683 754 685 608 b 763 397 733 462 762 435 b 694 324 764 361 738 328 b 706 156 697 263 701 205 b 754 73 735 135 754 108 b 672 -4 754 22 715 -4 b 575 90 626 -4 590 28 b 552 316 563 141 556 223 b 294 288 467 310 380 300 b 233 110 269 219 248 156 b 246 56 242 95 246 74 b 159 -35 246 3 208 -35 m 581 1133 b 363 1255 455 1133 375 1192 b 408 1311 356 1288 376 1309 b 469 1272 442 1313 458 1298 b 579 1222 486 1236 522 1222 b 694 1283 647 1222 683 1243 b 753 1322 701 1308 719 1323 b 798 1267 784 1319 803 1299 b 581 1133 787 1191 706 1133 m 349 435 b 549 456 416 444 483 451 b 552 864 546 609 549 768 l 528 871 b 349 435 490 795 416 612 "},"Â":{"ha":861,"x_min":0,"x_max":0,"o":"m 159 -35 b 85 97 101 -35 63 18 b 141 265 91 124 112 186 b 85 329 108 268 85 295 b 158 405 84 369 113 396 l 197 412 b 383 858 263 582 341 772 b 562 1031 440 975 485 1031 b 681 849 640 1031 679 970 b 689 463 683 754 685 608 b 763 397 733 462 762 435 b 694 324 764 361 738 328 b 706 156 697 263 701 205 b 754 73 735 135 754 108 b 672 -4 754 22 715 -4 b 575 90 626 -4 590 28 b 552 316 563 141 556 223 b 294 288 467 310 380 300 b 233 110 269 219 248 156 b 246 56 242 95 246 74 b 159 -35 246 3 208 -35 m 340 1139 b 339 1231 317 1159 312 1202 b 429 1241 365 1257 403 1258 b 523 1313 465 1262 495 1286 b 662 1318 564 1349 618 1344 b 779 1213 709 1289 744 1258 b 775 1137 801 1184 796 1156 b 694 1147 752 1117 720 1118 b 597 1242 662 1185 633 1213 b 451 1139 551 1199 494 1159 b 340 1139 411 1119 366 1115 m 349 435 b 549 456 416 444 483 451 b 552 864 546 609 549 768 l 528 871 b 349 435 490 795 416 612 "},"Ä":{"ha":861,"x_min":0,"x_max":0,"o":"m 159 -35 b 85 97 101 -35 63 18 b 141 265 91 124 112 186 b 85 329 108 268 85 295 b 158 405 84 369 113 396 l 197 412 b 383 858 263 582 341 772 b 562 1031 440 975 485 1031 b 681 849 640 1031 679 970 b 689 463 683 754 685 608 b 763 397 733 462 762 435 b 694 324 764 361 738 328 b 706 156 697 263 701 205 b 754 73 735 135 754 108 b 672 -4 754 22 715 -4 b 575 90 626 -4 590 28 b 552 316 563 141 556 223 b 294 288 467 310 380 300 b 233 110 269 219 248 156 b 246 56 242 95 246 74 b 159 -35 246 3 208 -35 m 397 1130 b 338 1166 373 1130 350 1143 b 292 1228 310 1167 292 1190 b 393 1322 292 1285 340 1322 b 493 1228 448 1322 493 1285 b 397 1130 493 1167 442 1130 m 652 1214 b 694 1282 652 1247 669 1270 b 762 1330 699 1312 725 1330 b 863 1227 823 1330 863 1282 b 755 1126 863 1172 822 1126 b 652 1214 693 1126 652 1165 m 349 435 b 549 456 416 444 483 451 b 552 864 546 609 549 768 l 528 871 b 349 435 490 795 416 612 "},"Ạ":{"ha":861,"x_min":0,"x_max":0,"o":"m 159 -35 b 85 97 101 -35 63 18 b 141 265 91 124 112 186 b 85 329 108 268 85 295 b 158 405 84 369 113 396 l 197 412 b 383 858 263 582 341 772 b 562 1031 440 975 485 1031 b 681 849 640 1031 679 970 b 689 463 683 754 685 608 b 763 397 733 462 762 435 b 694 324 764 361 738 328 b 706 156 697 263 701 205 b 754 73 735 135 754 108 b 672 -4 754 22 715 -4 b 575 90 626 -4 590 28 b 552 316 563 141 556 223 b 294 288 467 310 380 300 b 233 110 269 219 248 156 b 246 56 242 95 246 74 b 159 -35 246 3 208 -35 m 424 -369 b 354 -328 395 -369 368 -353 b 301 -257 321 -326 301 -300 b 419 -150 301 -191 357 -150 b 535 -256 483 -150 535 -192 b 424 -369 535 -327 476 -369 m 349 435 b 549 456 416 444 483 451 b 552 864 546 609 549 768 l 528 871 b 349 435 490 795 416 612 "},"À":{"ha":861,"x_min":0,"x_max":0,"o":"m 159 -35 b 85 97 101 -35 63 18 b 141 265 91 124 112 186 b 85 329 108 268 85 295 b 158 405 84 369 113 396 l 197 412 b 383 858 263 582 341 772 b 562 1031 440 975 485 1031 b 681 849 640 1031 679 970 b 689 463 683 754 685 608 b 763 397 733 462 762 435 b 694 324 764 361 738 328 b 706 156 697 263 701 205 b 754 73 735 135 754 108 b 672 -4 754 22 715 -4 b 575 90 626 -4 590 28 b 552 316 563 141 556 223 b 294 288 467 310 380 300 b 233 110 269 219 248 156 b 246 56 242 95 246 74 b 159 -35 246 3 208 -35 m 613 1131 b 536 1126 589 1106 560 1115 b 420 1208 494 1145 447 1179 b 426 1301 393 1238 395 1271 b 527 1295 457 1331 502 1337 b 607 1208 548 1264 578 1232 b 613 1131 636 1183 637 1156 m 349 435 b 549 456 416 444 483 451 b 552 864 546 609 549 768 l 528 871 b 349 435 490 795 416 612 "},"Ā":{"ha":861,"x_min":0,"x_max":0,"o":"m 159 -35 b 85 97 101 -35 63 18 b 141 265 91 124 112 186 b 85 329 108 268 85 295 b 158 405 84 369 113 396 l 197 412 b 383 858 263 582 341 772 b 562 1031 440 975 485 1031 b 681 849 640 1031 679 970 b 689 463 683 754 685 608 b 763 397 733 462 762 435 b 694 324 764 361 738 328 b 706 156 697 263 701 205 b 754 73 735 135 754 108 b 672 -4 754 22 715 -4 b 575 90 626 -4 590 28 b 552 316 563 141 556 223 b 294 288 467 310 380 300 b 233 110 269 219 248 156 b 246 56 242 95 246 74 b 159 -35 246 3 208 -35 m 404 1185 b 350 1234 374 1186 351 1206 b 402 1284 349 1262 372 1283 l 751 1299 b 806 1245 782 1301 805 1279 b 753 1188 806 1210 783 1188 l 404 1185 m 349 435 b 549 456 416 444 483 451 b 552 864 546 609 549 768 l 528 871 b 349 435 490 795 416 612 "},"Ą":{"ha":861,"x_min":0,"x_max":0,"o":"m 159 -35 b 85 97 101 -35 63 18 b 141 265 91 124 112 186 b 85 329 108 268 85 295 b 158 405 84 369 113 396 l 197 412 b 383 858 263 582 341 772 b 562 1031 440 975 485 1031 b 681 849 640 1031 679 970 b 689 463 683 754 685 608 b 763 397 733 462 762 435 b 694 324 764 361 738 328 b 706 156 697 263 701 205 b 754 73 735 135 754 108 b 710 3 754 38 736 15 b 615 -127 652 -42 615 -81 b 674 -187 615 -162 638 -178 b 713 -242 703 -194 719 -212 b 635 -288 707 -273 684 -291 b 483 -162 527 -281 483 -228 b 614 17 483 -103 523 -47 b 575 90 597 33 583 58 b 552 316 563 141 556 223 b 294 288 467 310 380 300 b 233 110 269 219 248 156 b 246 56 242 95 246 74 b 159 -35 246 3 208 -35 m 349 435 b 549 456 416 444 483 451 b 552 864 546 609 549 768 l 528 871 b 349 435 490 795 416 612 "},"Å":{"ha":861,"x_min":0,"x_max":0,"o":"m 159 -35 b 85 97 101 -35 63 18 b 141 265 91 124 112 186 b 85 329 108 268 85 295 b 158 405 84 369 113 396 l 197 412 b 383 858 263 582 341 772 b 493 1012 421 935 453 986 b 409 1153 444 1035 409 1082 b 603 1358 409 1264 488 1358 b 706 1328 642 1358 681 1348 b 714 1275 721 1316 724 1292 l 712 1272 b 753 1165 733 1252 753 1217 b 633 1006 753 1090 706 1028 b 681 849 664 977 680 924 b 689 463 683 754 685 608 b 763 397 733 462 762 435 b 694 324 764 361 738 328 b 706 156 697 263 701 205 b 754 73 735 135 754 108 b 672 -4 754 22 715 -4 b 575 90 626 -4 590 28 b 552 316 563 141 556 223 b 294 288 467 310 380 300 b 233 110 269 219 248 156 b 246 56 242 95 246 74 b 159 -35 246 3 208 -35 m 349 435 b 549 456 416 444 483 451 b 552 864 546 609 549 768 l 528 871 b 349 435 490 795 416 612 m 504 1163 b 574 1085 504 1115 534 1085 b 660 1156 627 1085 658 1117 b 638 1209 660 1180 649 1198 b 633 1263 626 1222 619 1244 b 604 1267 624 1265 615 1267 b 504 1163 545 1267 504 1213 "},"Ã":{"ha":861,"x_min":0,"x_max":0,"o":"m 159 -35 b 85 97 101 -35 63 18 b 141 265 91 124 112 186 b 85 329 108 268 85 295 b 158 405 84 369 113 396 l 197 412 b 383 858 263 582 341 772 b 562 1031 440 975 485 1031 b 681 849 640 1031 679 970 b 689 463 683 754 685 608 b 763 397 733 462 762 435 b 694 324 764 361 738 328 b 706 156 697 263 701 205 b 754 73 735 135 754 108 b 672 -4 754 22 715 -4 b 575 90 626 -4 590 28 b 552 316 563 141 556 223 b 294 288 467 310 380 300 b 233 110 269 219 248 156 b 246 56 242 95 246 74 b 159 -35 246 3 208 -35 m 688 1124 b 484 1211 576 1124 547 1211 b 416 1166 456 1211 430 1194 b 351 1134 402 1137 383 1124 b 315 1211 317 1145 297 1169 b 472 1315 342 1274 401 1315 b 675 1225 583 1315 610 1225 b 740 1281 704 1225 727 1242 b 806 1313 751 1308 769 1324 b 842 1242 842 1303 853 1280 b 688 1124 821 1164 764 1124 m 349 435 b 549 456 416 444 483 451 b 552 864 546 609 549 768 l 528 871 b 349 435 490 795 416 612 "},"Æ":{"ha":861,"x_min":0,"x_max":0,"o":"m 556 -18 b 399 204 438 -25 384 60 l 410 309 l 238 285 b 191 111 219 218 203 158 b 207 52 202 94 207 73 b 119 -34 207 -1 165 -34 b 40 51 73 -34 40 0 b 88 271 40 85 59 168 b 47 324 65 278 49 298 b 113 401 42 363 67 392 l 126 403 b 285 860 178 574 242 761 b 445 992 325 958 378 984 l 497 997 b 569 1040 508 1025 532 1042 b 617 1006 597 1037 610 1024 b 776 1013 672 1009 728 1012 b 849 946 815 1014 847 984 b 783 875 851 908 821 877 l 612 865 l 574 541 l 706 556 b 772 497 744 560 771 533 b 713 426 774 462 751 431 l 558 407 l 536 229 b 597 118 525 144 536 113 b 740 144 649 123 688 131 b 806 92 772 152 801 126 b 749 10 812 47 786 19 b 556 -18 683 -7 630 -12 m 277 426 b 426 444 331 433 386 440 l 474 857 l 418 853 b 277 426 383 777 326 598 "},"Ǽ":{"ha":861,"x_min":0,"x_max":0,"o":"m 556 -18 b 399 204 438 -25 384 60 l 410 309 l 238 285 b 191 111 219 218 203 158 b 207 52 202 94 207 73 b 119 -34 207 -1 165 -34 b 40 51 73 -34 40 0 b 88 271 40 85 59 168 b 47 324 65 278 49 298 b 113 401 42 363 67 392 l 126 403 b 285 860 178 574 242 761 b 445 992 325 958 378 984 l 497 997 b 569 1040 508 1025 532 1042 b 617 1006 597 1037 610 1024 b 776 1013 672 1009 728 1012 b 849 946 815 1014 847 984 b 783 875 851 908 821 877 l 612 865 l 574 541 l 706 556 b 772 497 744 560 771 533 b 713 426 774 462 751 431 l 558 407 l 536 229 b 597 118 525 144 536 113 b 740 144 649 123 688 131 b 806 92 772 152 801 126 b 749 10 812 47 786 19 b 556 -18 683 -7 630 -12 m 492 1131 b 568 1126 515 1106 544 1115 b 684 1208 610 1145 657 1179 b 678 1301 711 1238 709 1271 b 577 1295 647 1331 602 1337 b 497 1208 556 1264 526 1232 b 492 1131 468 1183 467 1156 m 277 426 b 426 444 331 433 386 440 l 474 857 l 418 853 b 277 426 383 777 326 598 "},"B":{"ha":861,"x_min":0,"x_max":0,"o":"m 162 -38 b 74 33 101 -38 74 -11 b 117 93 74 62 92 83 b 204 871 139 301 175 642 b 117 910 154 861 127 878 b 165 993 107 945 123 975 b 456 1044 240 1026 372 1044 b 782 822 625 1044 782 983 b 585 551 782 701 696 612 b 801 352 719 542 801 470 b 162 -38 801 118 483 -38 m 259 106 b 656 340 451 126 656 203 b 481 454 656 431 549 454 b 407 515 442 454 407 474 b 466 600 407 557 433 581 b 643 806 543 640 643 719 b 466 915 643 883 564 915 b 349 903 431 915 389 910 b 259 106 335 773 278 269 "},"C":{"ha":861,"x_min":0,"x_max":0,"o":"m 405 -16 b 102 369 217 -16 102 124 b 537 1031 102 649 251 1031 b 734 674 756 1031 781 806 b 636 613 715 624 677 597 b 603 708 599 626 592 668 b 529 892 624 797 622 892 b 251 380 351 892 251 556 b 411 126 251 231 307 126 b 618 299 492 126 569 188 b 710 353 642 349 672 368 b 742 239 756 335 761 287 b 405 -16 678 83 562 -16 "},"Ć":{"ha":861,"x_min":0,"x_max":0,"o":"m 405 -16 b 102 369 217 -16 102 124 b 537 1031 102 649 251 1031 b 734 674 756 1031 781 806 b 636 613 715 624 677 597 b 603 708 599 626 592 668 b 529 892 624 797 622 892 b 251 380 351 892 251 556 b 411 126 251 231 307 126 b 618 299 492 126 569 188 b 710 353 642 349 672 368 b 742 239 756 335 761 287 b 405 -16 678 83 562 -16 m 517 1131 b 594 1126 541 1106 569 1115 b 709 1208 635 1145 683 1179 b 703 1301 737 1238 734 1271 b 602 1295 672 1331 628 1337 b 523 1208 582 1264 551 1232 b 517 1131 493 1183 492 1156 "},"Č":{"ha":861,"x_min":0,"x_max":0,"o":"m 405 -16 b 102 369 217 -16 102 124 b 537 1031 102 649 251 1031 b 734 674 756 1031 781 806 b 636 613 715 624 677 597 b 603 708 599 626 592 668 b 529 892 624 797 622 892 b 251 380 351 892 251 556 b 411 126 251 231 307 126 b 618 299 492 126 569 188 b 710 353 642 349 672 368 b 742 239 756 335 761 287 b 405 -16 678 83 562 -16 m 315 1313 b 313 1222 292 1292 286 1249 b 403 1210 338 1194 378 1194 b 497 1139 439 1190 469 1165 b 636 1133 538 1102 592 1108 b 753 1239 683 1163 719 1194 b 749 1315 776 1268 770 1297 b 669 1304 726 1335 694 1333 b 571 1210 636 1266 608 1238 b 426 1313 525 1253 469 1292 b 315 1313 385 1333 340 1337 "},"Ç":{"ha":861,"x_min":0,"x_max":0,"o":"m 102 369 b 537 1031 102 649 251 1031 b 734 674 756 1031 781 806 b 636 613 715 624 677 597 b 603 708 599 626 592 668 b 529 892 624 797 622 892 b 251 380 351 892 251 556 b 411 126 251 231 307 126 b 618 299 492 126 569 188 b 710 353 642 349 672 368 b 742 239 756 335 761 287 b 426 -15 681 90 572 -7 b 426 -44 427 -24 427 -33 b 396 -183 421 -91 413 -135 b 305 -232 382 -232 346 -245 b 264 -133 264 -219 235 -182 b 320 -14 283 -100 307 -53 l 323 -6 b 102 369 185 30 102 163 "},"Ĉ":{"ha":861,"x_min":0,"x_max":0,"o":"m 405 -16 b 102 369 217 -16 102 124 b 537 1031 102 649 251 1031 b 734 674 756 1031 781 806 b 636 613 715 624 677 597 b 603 708 599 626 592 668 b 529 892 624 797 622 892 b 251 380 351 892 251 556 b 411 126 251 231 307 126 b 618 299 492 126 569 188 b 710 353 642 349 672 368 b 742 239 756 335 761 287 b 405 -16 678 83 562 -16 m 315 1139 b 313 1231 292 1159 286 1202 b 403 1241 339 1257 378 1258 b 497 1313 439 1262 469 1286 b 636 1318 538 1349 592 1344 b 753 1213 683 1289 719 1258 b 749 1137 776 1184 770 1156 b 669 1147 726 1117 694 1118 b 572 1242 636 1185 608 1213 b 426 1139 525 1199 469 1159 b 315 1139 385 1119 340 1115 "},"Ċ":{"ha":861,"x_min":0,"x_max":0,"o":"m 405 -16 b 102 369 217 -16 102 124 b 537 1031 102 649 251 1031 b 734 674 756 1031 781 806 b 636 613 715 624 677 597 b 603 708 599 626 592 668 b 529 892 624 797 622 892 b 251 380 351 892 251 556 b 411 126 251 231 307 126 b 618 299 492 126 569 188 b 710 353 642 349 672 368 b 742 239 756 335 761 287 b 405 -16 678 83 562 -16 m 553 1130 b 492 1166 528 1130 505 1143 b 446 1228 463 1167 446 1190 b 549 1322 446 1285 494 1322 b 651 1228 604 1322 651 1285 b 553 1130 651 1167 599 1130 "},"D":{"ha":861,"x_min":0,"x_max":0,"o":"m 269 -22 b 171 24 215 -35 176 -16 b 103 150 123 28 93 65 b 201 865 127 370 167 646 b 123 924 157 864 123 881 b 200 1006 123 970 154 994 b 381 1026 257 1019 317 1026 b 810 626 615 1026 810 883 b 269 -22 810 363 619 63 m 249 192 b 274 117 266 174 274 147 l 274 115 b 670 610 498 179 670 403 b 381 890 670 785 549 890 b 351 889 371 890 361 890 b 249 192 320 701 279 417 "},"Ď":{"ha":861,"x_min":0,"x_max":0,"o":"m 269 -22 b 171 24 215 -35 176 -16 b 103 150 123 28 93 65 b 201 865 127 370 167 646 b 123 924 157 864 123 881 b 200 1006 123 970 154 994 b 381 1026 257 1019 317 1026 b 810 626 615 1026 810 883 b 269 -22 810 363 619 63 m 240 1313 b 239 1222 217 1292 213 1249 b 329 1210 265 1194 303 1194 b 424 1139 365 1190 395 1165 b 562 1133 465 1102 518 1108 b 679 1239 609 1163 645 1194 b 675 1315 702 1268 696 1297 b 595 1304 652 1335 621 1333 b 497 1210 562 1266 533 1238 b 352 1313 451 1253 394 1292 b 240 1313 311 1333 267 1337 m 249 192 b 274 117 266 174 274 147 l 274 115 b 670 610 498 179 670 403 b 381 890 670 785 549 890 b 351 889 371 890 361 890 b 249 192 320 701 279 417 "},"Đ":{"ha":861,"x_min":0,"x_max":0,"o":"m 60 440 b -12 493 19 435 -8 461 b 42 564 -18 525 3 560 l 158 576 b 201 865 172 677 188 776 b 123 924 157 864 123 881 b 200 1006 123 970 154 994 b 381 1026 257 1019 317 1026 b 810 626 615 1026 810 883 b 269 -22 810 363 619 63 b 171 24 215 -35 176 -16 b 103 150 123 28 93 65 b 140 449 113 242 126 344 l 60 440 m 249 192 b 274 117 266 174 274 147 l 274 115 b 670 610 498 179 670 403 b 381 890 670 785 549 890 b 351 889 371 890 361 890 b 306 593 337 805 322 701 l 428 606 b 502 557 470 611 497 588 b 447 483 508 524 490 488 l 287 465 l 249 192 "},"Ð":{"ha":861,"x_min":0,"x_max":0,"o":"m 60 440 b -12 493 19 435 -8 461 b 42 564 -18 525 3 560 l 158 576 b 201 865 172 677 188 776 b 123 924 157 864 123 881 b 200 1006 123 970 154 994 b 381 1026 257 1019 317 1026 b 810 626 615 1026 810 883 b 269 -22 810 363 619 63 b 171 24 215 -35 176 -16 b 103 150 123 28 93 65 b 140 449 113 242 126 344 l 60 440 m 249 192 b 274 117 266 174 274 147 l 274 115 b 670 610 498 179 670 403 b 381 890 670 785 549 890 b 351 889 371 890 361 890 b 306 593 337 805 322 701 l 428 606 b 502 557 470 611 497 588 b 447 483 508 524 490 488 l 287 465 l 249 192 "},"E":{"ha":861,"x_min":0,"x_max":0,"o":"m 328 -17 b 142 168 211 -17 142 50 b 222 835 142 276 193 639 l 213 834 b 140 901 174 832 140 860 b 207 973 140 939 169 972 l 247 975 b 321 1038 258 1015 278 1038 b 383 981 360 1038 378 1017 l 733 998 b 806 931 771 999 806 969 b 739 858 806 892 777 860 l 373 842 l 330 537 l 605 556 b 673 494 643 558 673 531 b 611 426 673 460 649 430 l 312 403 b 292 205 300 313 292 238 b 370 121 292 149 313 121 b 665 160 440 121 592 146 b 749 97 712 171 749 137 b 683 22 749 57 722 32 b 328 -17 613 6 425 -17 "},"É":{"ha":861,"x_min":0,"x_max":0,"o":"m 328 -17 b 142 168 211 -17 142 50 b 222 835 142 276 193 639 l 213 834 b 140 901 174 832 140 860 b 207 973 140 939 169 972 l 247 975 b 321 1038 258 1015 278 1038 b 383 981 360 1038 378 1017 l 733 998 b 806 931 771 999 806 969 b 739 858 806 892 777 860 l 373 842 l 330 537 l 605 556 b 673 494 643 558 673 531 b 611 426 673 460 649 430 l 312 403 b 292 205 300 313 292 238 b 370 121 292 149 313 121 b 665 160 440 121 592 146 b 749 97 712 171 749 137 b 683 22 749 57 722 32 b 328 -17 613 6 425 -17 m 484 1131 b 560 1126 508 1106 536 1115 b 676 1208 602 1145 649 1179 b 670 1301 703 1238 701 1271 b 569 1295 640 1331 594 1337 b 490 1208 549 1264 519 1232 b 484 1131 460 1183 460 1156 "},"Ĕ":{"ha":861,"x_min":0,"x_max":0,"o":"m 328 -17 b 142 168 211 -17 142 50 b 222 835 142 276 193 639 l 213 834 b 140 901 174 832 140 860 b 207 973 140 939 169 972 l 247 975 b 321 1038 258 1015 278 1038 b 383 981 360 1038 378 1017 l 733 998 b 806 931 771 999 806 969 b 739 858 806 892 777 860 l 373 842 l 330 537 l 605 556 b 673 494 643 558 673 531 b 611 426 673 460 649 430 l 312 403 b 292 205 300 313 292 238 b 370 121 292 149 313 121 b 665 160 440 121 592 146 b 749 97 712 171 749 137 b 683 22 749 57 722 32 b 328 -17 613 6 425 -17 m 522 1133 b 304 1255 396 1133 317 1192 b 349 1311 297 1288 318 1309 b 411 1272 383 1313 399 1298 b 520 1222 427 1236 464 1222 b 635 1283 588 1222 624 1243 b 694 1322 642 1308 660 1323 b 740 1267 725 1319 744 1299 b 522 1133 728 1191 647 1133 "},"Ě":{"ha":861,"x_min":0,"x_max":0,"o":"m 328 -17 b 142 168 211 -17 142 50 b 222 835 142 276 193 639 l 213 834 b 140 901 174 832 140 860 b 207 973 140 939 169 972 l 247 975 b 321 1038 258 1015 278 1038 b 383 981 360 1038 378 1017 l 733 998 b 806 931 771 999 806 969 b 739 858 806 892 777 860 l 373 842 l 330 537 l 605 556 b 673 494 643 558 673 531 b 611 426 673 460 649 430 l 312 403 b 292 205 300 313 292 238 b 370 121 292 149 313 121 b 665 160 440 121 592 146 b 749 97 712 171 749 137 b 683 22 749 57 722 32 b 328 -17 613 6 425 -17 m 281 1313 b 280 1222 258 1292 253 1249 b 370 1210 306 1194 344 1194 b 465 1139 406 1190 436 1165 b 603 1133 506 1102 559 1108 b 720 1239 650 1163 686 1194 b 716 1315 743 1268 737 1297 b 636 1304 693 1335 662 1333 b 538 1210 603 1266 574 1238 b 393 1313 492 1253 435 1292 b 281 1313 352 1333 308 1337 "},"Ê":{"ha":861,"x_min":0,"x_max":0,"o":"m 328 -17 b 142 168 211 -17 142 50 b 222 835 142 276 193 639 l 213 834 b 140 901 174 832 140 860 b 207 973 140 939 169 972 l 247 975 b 321 1038 258 1015 278 1038 b 383 981 360 1038 378 1017 l 733 998 b 806 931 771 999 806 969 b 739 858 806 892 777 860 l 373 842 l 330 537 l 605 556 b 673 494 643 558 673 531 b 611 426 673 460 649 430 l 312 403 b 292 205 300 313 292 238 b 370 121 292 149 313 121 b 665 160 440 121 592 146 b 749 97 712 171 749 137 b 683 22 749 57 722 32 b 328 -17 613 6 425 -17 m 281 1139 b 280 1231 258 1159 253 1202 b 370 1241 306 1257 345 1258 b 465 1313 406 1262 437 1286 b 603 1318 506 1349 559 1344 b 720 1213 650 1289 686 1258 b 716 1137 743 1184 737 1156 b 636 1147 693 1117 662 1118 b 538 1242 603 1185 574 1213 b 393 1139 492 1199 435 1159 b 281 1139 352 1119 308 1115 "},"Ë":{"ha":861,"x_min":0,"x_max":0,"o":"m 328 -17 b 142 168 211 -17 142 50 b 222 835 142 276 193 639 l 213 834 b 140 901 174 832 140 860 b 207 973 140 939 169 972 l 247 975 b 321 1038 258 1015 278 1038 b 383 981 360 1038 378 1017 l 733 998 b 806 931 771 999 806 969 b 739 858 806 892 777 860 l 373 842 l 330 537 l 605 556 b 673 494 643 558 673 531 b 611 426 673 460 649 430 l 312 403 b 292 205 300 313 292 238 b 370 121 292 149 313 121 b 665 160 440 121 592 146 b 749 97 712 171 749 137 b 683 22 749 57 722 32 b 328 -17 613 6 425 -17 m 338 1130 b 279 1166 314 1130 292 1143 b 234 1228 251 1167 234 1190 b 335 1322 234 1285 282 1322 b 435 1228 389 1322 435 1285 b 338 1130 435 1167 384 1130 m 594 1214 b 636 1282 594 1246 610 1269 b 703 1330 641 1312 667 1330 b 803 1227 764 1330 803 1282 b 696 1126 803 1172 763 1126 b 594 1214 634 1126 594 1165 "},"Ė":{"ha":861,"x_min":0,"x_max":0,"o":"m 328 -17 b 142 168 211 -17 142 50 b 222 835 142 276 193 639 l 213 834 b 140 901 174 832 140 860 b 207 973 140 939 169 972 l 247 975 b 321 1038 258 1015 278 1038 b 383 981 360 1038 378 1017 l 733 998 b 806 931 771 999 806 969 b 739 858 806 892 777 860 l 373 842 l 330 537 l 605 556 b 673 494 643 558 673 531 b 611 426 673 460 649 430 l 312 403 b 292 205 300 313 292 238 b 370 121 292 149 313 121 b 665 160 440 121 592 146 b 749 97 712 171 749 137 b 683 22 749 57 722 32 b 328 -17 613 6 425 -17 m 519 1130 b 460 1166 495 1130 472 1143 b 413 1228 431 1167 413 1190 b 516 1322 413 1285 462 1322 b 618 1228 572 1322 618 1285 b 519 1130 618 1167 567 1130 "},"Ẹ":{"ha":861,"x_min":0,"x_max":0,"o":"m 328 -17 b 142 168 211 -17 142 50 b 222 835 142 276 193 639 l 213 834 b 140 901 174 832 140 860 b 207 973 140 939 169 972 l 247 975 b 321 1038 258 1015 278 1038 b 383 981 360 1038 378 1017 l 733 998 b 806 931 771 999 806 969 b 739 858 806 892 777 860 l 373 842 l 330 537 l 605 556 b 673 494 643 558 673 531 b 611 426 673 460 649 430 l 312 403 b 292 205 300 313 292 238 b 370 121 292 149 313 121 b 665 160 440 121 592 146 b 749 97 712 171 749 137 b 683 22 749 57 722 32 b 328 -17 613 6 425 -17 m 434 -369 b 365 -328 406 -369 378 -353 b 312 -257 331 -326 312 -300 b 429 -150 312 -191 367 -150 b 545 -256 493 -150 545 -192 b 434 -369 545 -327 487 -369 "},"È":{"ha":861,"x_min":0,"x_max":0,"o":"m 328 -17 b 142 168 211 -17 142 50 b 222 835 142 276 193 639 l 213 834 b 140 901 174 832 140 860 b 207 973 140 939 169 972 l 247 975 b 321 1038 258 1015 278 1038 b 383 981 360 1038 378 1017 l 733 998 b 806 931 771 999 806 969 b 739 858 806 892 777 860 l 373 842 l 330 537 l 605 556 b 673 494 643 558 673 531 b 611 426 673 460 649 430 l 312 403 b 292 205 300 313 292 238 b 370 121 292 149 313 121 b 665 160 440 121 592 146 b 749 97 712 171 749 137 b 683 22 749 57 722 32 b 328 -17 613 6 425 -17 m 554 1131 b 477 1126 530 1106 501 1115 b 362 1208 436 1145 388 1179 b 368 1301 334 1238 337 1271 b 469 1295 399 1331 443 1337 b 548 1208 489 1264 519 1232 b 554 1131 578 1183 578 1156 "},"Ē":{"ha":861,"x_min":0,"x_max":0,"o":"m 328 -17 b 142 168 211 -17 142 50 b 222 835 142 276 193 639 l 213 834 b 140 901 174 832 140 860 b 207 973 140 939 169 972 l 247 975 b 321 1038 258 1015 278 1038 b 383 981 360 1038 378 1017 l 733 998 b 806 931 771 999 806 969 b 739 858 806 892 777 860 l 373 842 l 330 537 l 605 556 b 673 494 643 558 673 531 b 611 426 673 460 649 430 l 312 403 b 292 205 300 313 292 238 b 370 121 292 149 313 121 b 665 160 440 121 592 146 b 749 97 712 171 749 137 b 683 22 749 57 722 32 b 328 -17 613 6 425 -17 m 345 1185 b 291 1234 315 1186 292 1206 b 344 1284 291 1262 313 1283 l 692 1299 b 747 1245 723 1301 746 1279 b 694 1188 747 1210 725 1188 l 345 1185 "},"Ę":{"ha":861,"x_min":0,"x_max":0,"o":"m 328 -17 b 142 168 211 -17 142 50 b 222 835 142 276 193 639 l 213 834 b 140 901 174 832 140 860 b 207 973 140 939 169 972 l 247 975 b 321 1038 258 1015 278 1038 b 383 981 360 1038 378 1017 l 733 998 b 806 931 771 999 806 969 b 739 858 806 892 777 860 l 373 842 l 330 537 l 605 556 b 673 494 643 558 673 531 b 611 426 673 460 649 430 l 312 403 b 292 205 300 313 292 238 b 370 121 292 149 313 121 b 665 160 440 121 592 146 b 749 97 712 171 749 137 b 713 34 749 69 735 47 b 613 -100 653 -12 613 -53 b 672 -160 613 -135 637 -151 b 711 -215 701 -166 717 -185 b 634 -260 705 -245 683 -263 b 481 -134 526 -254 481 -200 b 558 1 481 -89 505 -46 b 328 -17 478 -9 387 -17 "},"Ẽ":{"ha":861,"x_min":0,"x_max":0,"o":"m 328 -17 b 142 168 211 -17 142 50 b 222 835 142 276 193 639 l 213 834 b 140 901 174 832 140 860 b 207 973 140 939 169 972 l 247 975 b 321 1038 258 1015 278 1038 b 383 981 360 1038 378 1017 l 733 998 b 806 931 771 999 806 969 b 739 858 806 892 777 860 l 373 842 l 330 537 l 605 556 b 673 494 643 558 673 531 b 611 426 673 460 649 430 l 312 403 b 292 205 300 313 292 238 b 370 121 292 149 313 121 b 665 160 440 121 592 146 b 749 97 712 171 749 137 b 683 22 749 57 722 32 b 328 -17 613 6 425 -17 m 630 1124 b 426 1211 517 1124 488 1211 b 358 1166 397 1211 371 1194 b 293 1134 343 1137 325 1124 b 256 1211 258 1145 238 1169 b 413 1315 283 1274 342 1315 b 616 1225 524 1315 551 1225 b 682 1281 645 1225 669 1242 b 748 1313 692 1308 710 1324 b 783 1242 783 1303 794 1280 b 630 1124 762 1164 706 1124 "},"Ə":{"ha":861,"x_min":0,"x_max":0,"o":"m 354 -14 b 110 281 200 -14 110 119 b 258 498 110 394 157 461 b 603 569 340 527 489 553 b 440 904 603 817 526 904 b 272 824 379 904 324 865 b 181 829 242 801 205 803 b 187 918 158 854 158 890 b 449 1031 239 969 333 1031 b 742 590 613 1031 742 903 l 742 585 b 815 536 785 586 809 568 b 752 465 821 499 797 471 l 733 462 b 354 -14 695 208 549 -14 m 243 269 b 366 113 243 183 292 113 b 592 438 469 113 560 263 b 333 385 493 420 383 399 b 243 269 258 365 243 319 "},"F":{"ha":861,"x_min":0,"x_max":0,"o":"m 242 -17 b 159 110 189 -17 157 25 b 240 835 169 304 207 608 l 226 834 b 154 901 188 832 154 860 b 221 973 154 939 183 972 l 267 975 b 337 1021 281 1005 306 1021 b 400 981 366 1021 390 1006 l 747 998 b 819 931 785 999 819 969 b 753 858 819 893 791 860 l 389 842 b 342 508 374 744 357 628 l 643 528 b 711 467 684 531 711 502 b 649 399 711 432 688 402 l 326 374 b 303 150 317 297 309 221 b 331 78 322 135 331 104 b 242 -17 331 20 291 -17 "},"G":{"ha":861,"x_min":0,"x_max":0,"o":"m 396 -18 b 89 373 209 -18 89 126 b 526 1031 89 646 226 1031 b 740 742 732 1031 772 851 b 650 669 726 696 690 660 b 603 754 608 679 591 712 b 519 893 626 835 588 893 b 240 388 333 893 240 571 b 404 122 240 227 299 122 b 622 319 489 122 569 184 b 464 312 571 313 521 310 b 389 377 419 312 389 336 b 451 446 389 412 408 447 b 713 468 552 444 624 450 b 783 410 750 477 783 447 b 765 359 783 390 777 372 b 759 294 769 339 766 315 b 396 -18 685 74 549 -18 "},"Ğ":{"ha":861,"x_min":0,"x_max":0,"o":"m 396 -18 b 89 373 209 -18 89 126 b 526 1031 89 646 226 1031 b 740 742 732 1031 772 851 b 650 669 726 696 690 660 b 603 754 608 679 591 712 b 519 893 626 835 588 893 b 240 388 333 893 240 571 b 404 122 240 227 299 122 b 622 319 489 122 569 184 b 464 312 571 313 521 310 b 389 377 419 312 389 336 b 451 446 389 412 408 447 b 713 468 552 444 624 450 b 783 410 750 477 783 447 b 765 359 783 390 777 372 b 759 294 769 339 766 315 b 396 -18 685 74 549 -18 m 537 1133 b 319 1255 411 1133 332 1192 b 364 1311 313 1288 333 1309 b 426 1272 399 1313 415 1298 b 535 1222 442 1236 479 1222 b 650 1283 603 1222 640 1243 b 710 1322 658 1308 676 1323 b 755 1267 740 1319 760 1299 b 537 1133 744 1191 663 1133 "},"Ǧ":{"ha":861,"x_min":0,"x_max":0,"o":"m 396 -18 b 89 373 209 -18 89 126 b 526 1031 89 646 226 1031 b 740 742 732 1031 772 851 b 650 669 726 696 690 660 b 603 754 608 679 591 712 b 519 893 626 835 588 893 b 240 388 333 893 240 571 b 404 122 240 227 299 122 b 622 319 489 122 569 184 b 464 312 571 313 521 310 b 389 377 419 312 389 336 b 451 446 389 412 408 447 b 713 468 552 444 624 450 b 783 410 750 477 783 447 b 765 359 783 390 777 372 b 759 294 769 339 766 315 b 396 -18 685 74 549 -18 m 297 1313 b 295 1222 274 1292 269 1249 b 385 1210 321 1194 360 1194 b 480 1139 422 1190 451 1165 b 618 1133 521 1102 574 1108 b 735 1239 665 1163 701 1194 b 731 1315 758 1268 752 1297 b 651 1304 708 1335 677 1333 b 553 1210 618 1266 590 1238 b 408 1313 508 1253 451 1292 b 297 1313 367 1333 323 1337 "},"Ĝ":{"ha":861,"x_min":0,"x_max":0,"o":"m 396 -18 b 89 373 209 -18 89 126 b 526 1031 89 646 226 1031 b 740 742 732 1031 772 851 b 650 669 726 696 690 660 b 603 754 608 679 591 712 b 519 893 626 835 588 893 b 240 388 333 893 240 571 b 404 122 240 227 299 122 b 622 319 489 122 569 184 b 464 312 571 313 521 310 b 389 377 419 312 389 336 b 451 446 389 412 408 447 b 713 468 552 444 624 450 b 783 410 750 477 783 447 b 765 359 783 390 777 372 b 759 294 769 339 766 315 b 396 -18 685 74 549 -18 m 297 1139 b 295 1231 274 1159 269 1202 b 385 1241 321 1257 360 1258 b 480 1313 422 1262 452 1286 b 618 1318 521 1349 574 1344 b 735 1213 665 1289 701 1258 b 731 1137 758 1184 752 1156 b 651 1147 708 1117 677 1118 b 553 1242 619 1185 590 1213 b 408 1139 508 1199 451 1159 b 297 1139 367 1119 323 1115 "},"Ģ":{"ha":861,"x_min":0,"x_max":0,"o":"m 396 -18 b 89 373 209 -18 89 126 b 526 1031 89 646 226 1031 b 740 742 732 1031 772 851 b 650 669 726 696 690 660 b 603 754 608 679 591 712 b 519 893 626 835 588 893 b 240 388 333 893 240 571 b 404 122 240 227 299 122 b 622 319 489 122 569 184 b 464 312 571 313 521 310 b 389 377 419 312 389 336 b 451 446 389 412 408 447 b 713 468 552 444 624 450 b 783 410 750 477 783 447 b 765 359 783 390 777 372 b 759 294 769 339 766 315 b 396 -18 685 74 549 -18 m 338 -524 b 299 -455 306 -519 288 -490 b 331 -233 316 -402 333 -319 b 421 -164 329 -178 374 -158 b 489 -252 472 -170 494 -206 b 410 -477 480 -331 440 -426 b 338 -524 392 -509 368 -529 "},"Ġ":{"ha":861,"x_min":0,"x_max":0,"o":"m 396 -18 b 89 373 209 -18 89 126 b 526 1031 89 646 226 1031 b 740 742 732 1031 772 851 b 650 669 726 696 690 660 b 603 754 608 679 591 712 b 519 893 626 835 588 893 b 240 388 333 893 240 571 b 404 122 240 227 299 122 b 622 319 489 122 569 184 b 464 312 571 313 521 310 b 389 377 419 312 389 336 b 451 446 389 412 408 447 b 713 468 552 444 624 450 b 783 410 750 477 783 447 b 765 359 783 390 777 372 b 759 294 769 339 766 315 b 396 -18 685 74 549 -18 m 535 1130 b 475 1166 510 1130 488 1143 b 428 1228 447 1167 428 1190 b 531 1322 428 1285 477 1322 b 633 1228 587 1322 633 1285 b 535 1130 633 1167 582 1130 "},"H":{"ha":861,"x_min":0,"x_max":0,"o":"m 620 -53 b 549 32 576 -53 549 -19 b 573 333 552 101 561 210 l 299 313 l 275 63 b 199 -17 270 12 241 -17 b 128 69 156 -17 124 18 b 150 303 133 123 140 207 l 148 303 b 76 369 110 301 76 331 b 142 442 76 408 105 440 l 165 443 b 210 848 179 585 196 734 b 183 929 191 867 183 899 b 274 1031 183 987 211 1031 b 361 904 329 1031 372 995 b 313 454 349 802 331 626 l 588 474 b 633 849 601 603 617 736 b 612 934 619 872 612 902 b 709 1047 612 999 646 1047 b 787 919 765 1047 799 1006 b 696 25 750 649 703 208 b 620 -53 695 -26 658 -53 "},"Ħ":{"ha":861,"x_min":0,"x_max":0,"o":"m 585 -53 b 522 32 544 -52 522 -19 b 544 333 524 115 533 218 l 306 312 b 282 63 297 220 288 134 b 209 -17 277 12 248 -17 b 138 69 166 -16 134 18 b 199 649 151 213 174 428 l 131 645 b 64 706 93 643 65 672 b 126 769 64 741 91 768 l 213 773 l 222 852 b 194 944 198 880 192 915 b 289 1031 201 1001 233 1034 b 368 904 336 1028 379 995 l 355 778 l 598 789 l 606 849 b 585 949 590 876 583 913 b 681 1047 588 1009 628 1050 b 752 919 731 1043 763 1006 l 736 794 l 787 797 b 850 738 822 798 849 772 b 789 676 851 703 825 678 l 722 673 b 661 25 694 440 670 193 b 585 -53 658 -26 622 -56 m 558 474 l 582 667 l 341 655 l 320 453 "},"Ĥ":{"ha":861,"x_min":0,"x_max":0,"o":"m 620 -53 b 549 32 576 -53 549 -19 b 573 333 552 101 561 210 l 299 313 l 275 63 b 199 -17 270 12 241 -17 b 128 69 156 -17 124 18 b 150 303 133 123 140 207 l 148 303 b 76 369 110 301 76 331 b 142 442 76 408 105 440 l 165 443 b 210 848 179 585 196 734 b 183 929 191 867 183 899 b 274 1031 183 987 211 1031 b 361 904 329 1031 372 995 b 313 454 349 802 331 626 l 588 474 b 633 849 601 603 617 736 b 612 934 619 872 612 902 b 709 1047 612 999 646 1047 b 787 919 765 1047 799 1006 b 696 25 750 649 703 208 b 620 -53 695 -26 658 -53 m 260 1139 b 258 1231 237 1159 231 1202 b 349 1241 284 1257 323 1258 b 442 1313 384 1262 415 1286 b 581 1318 483 1349 538 1344 b 699 1213 628 1289 664 1258 b 694 1137 721 1184 715 1156 b 614 1147 672 1117 640 1118 b 517 1242 581 1185 553 1213 b 371 1139 470 1199 414 1159 b 260 1139 331 1119 285 1115 "},"I":{"ha":861,"x_min":0,"x_max":0,"o":"m 158 -17 b 87 50 121 -19 87 12 b 153 123 87 88 115 121 l 305 134 b 410 842 341 331 380 575 l 185 827 b 113 894 147 825 113 856 b 180 967 113 932 142 965 l 417 980 b 474 1030 423 1008 439 1030 b 698 1007 552 1030 632 1017 b 775 935 735 1000 775 981 b 708 863 775 897 747 865 l 556 851 b 455 144 531 625 492 362 l 641 158 b 713 92 679 160 713 130 b 647 18 713 53 685 20 l 158 -17 "},"Ĳ":{"ha":861,"x_min":0,"x_max":0,"o":"m 337 -15 b 76 238 166 -15 76 110 b 184 386 76 322 118 386 b 266 306 236 386 266 354 b 228 226 266 272 251 241 b 338 125 236 164 276 125 b 489 322 423 125 467 190 b 558 863 510 450 539 699 l 442 856 b 369 923 403 856 371 885 b 436 996 369 961 398 995 l 560 1000 b 638 1044 566 1029 586 1053 b 811 955 774 1024 810 1008 b 755 881 812 917 785 883 l 706 876 b 628 288 683 670 649 397 b 337 -15 594 100 497 -15 m 176 468 b 107 556 132 471 102 504 b 138 861 114 630 128 776 b 119 947 119 888 116 919 b 213 1031 126 1003 165 1033 b 286 910 265 1029 292 989 b 251 545 279 808 263 641 b 176 468 243 494 214 466 "},"Í":{"ha":861,"x_min":0,"x_max":0,"o":"m 158 -17 b 87 50 121 -19 87 12 b 153 123 87 88 115 121 l 305 134 b 410 842 341 331 380 575 l 185 827 b 113 894 147 825 113 856 b 180 967 113 932 142 965 l 417 980 b 474 1030 423 1008 439 1030 b 698 1007 552 1030 632 1017 b 775 935 735 1000 775 981 b 708 863 775 897 747 865 l 556 851 b 455 144 531 625 492 362 l 641 158 b 713 92 679 160 713 130 b 647 18 713 53 685 20 l 158 -17 m 457 1131 b 533 1126 481 1106 509 1115 b 649 1208 575 1145 622 1179 b 643 1301 676 1238 674 1271 b 542 1295 613 1331 567 1337 b 463 1208 522 1264 492 1232 b 457 1131 433 1183 433 1156 "},"Ĭ":{"ha":861,"x_min":0,"x_max":0,"o":"m 158 -17 b 87 50 121 -19 87 12 b 153 123 87 88 115 121 l 305 134 b 410 842 341 331 380 575 l 185 827 b 113 894 147 825 113 856 b 180 967 113 932 142 965 l 417 980 b 474 1030 423 1008 439 1030 b 698 1007 552 1030 632 1017 b 775 935 735 1000 775 981 b 708 863 775 897 747 865 l 556 851 b 455 144 531 625 492 362 l 641 158 b 713 92 679 160 713 130 b 647 18 713 53 685 20 l 158 -17 m 494 1133 b 277 1255 369 1133 290 1192 b 322 1311 270 1288 291 1309 b 384 1272 356 1313 372 1298 b 493 1222 400 1236 437 1222 b 608 1283 561 1222 597 1243 b 667 1322 615 1308 633 1323 b 713 1267 698 1319 717 1299 b 494 1133 701 1191 620 1133 "},"Î":{"ha":861,"x_min":0,"x_max":0,"o":"m 158 -17 b 87 50 121 -19 87 12 b 153 123 87 88 115 121 l 305 134 b 410 842 341 331 380 575 l 185 827 b 113 894 147 825 113 856 b 180 967 113 932 142 965 l 417 980 b 474 1030 423 1008 439 1030 b 698 1007 552 1030 632 1017 b 775 935 735 1000 775 981 b 708 863 775 897 747 865 l 556 851 b 455 144 531 625 492 362 l 641 158 b 713 92 679 160 713 130 b 647 18 713 53 685 20 l 158 -17 m 254 1139 b 253 1231 231 1159 226 1202 b 343 1241 278 1257 318 1258 b 438 1313 379 1262 410 1286 b 576 1318 478 1349 532 1344 b 693 1213 623 1289 659 1258 b 689 1137 716 1184 710 1156 b 609 1147 666 1117 635 1118 b 511 1242 576 1185 547 1213 b 366 1139 465 1199 408 1159 b 254 1139 325 1119 281 1115 "},"Ï":{"ha":861,"x_min":0,"x_max":0,"o":"m 158 -17 b 87 50 121 -19 87 12 b 153 123 87 88 115 121 l 305 134 b 410 842 341 331 380 575 l 185 827 b 113 894 147 825 113 856 b 180 967 113 932 142 965 l 417 980 b 474 1030 423 1008 439 1030 b 698 1007 552 1030 632 1017 b 775 935 735 1000 775 981 b 708 863 775 897 747 865 l 556 851 b 455 144 531 625 492 362 l 641 158 b 713 92 679 160 713 130 b 647 18 713 53 685 20 l 158 -17 m 311 1130 b 252 1166 287 1130 265 1143 b 207 1228 224 1167 207 1190 b 308 1322 207 1285 255 1322 b 408 1228 362 1322 408 1285 b 311 1130 408 1167 357 1130 m 567 1214 b 609 1282 567 1246 583 1269 b 676 1330 614 1312 640 1330 b 776 1227 737 1330 776 1282 b 669 1126 776 1172 736 1126 b 567 1214 607 1126 567 1165 "},"İ":{"ha":861,"x_min":0,"x_max":0,"o":"m 158 -17 b 87 50 121 -19 87 12 b 153 123 87 88 115 121 l 305 134 b 410 842 341 331 380 575 l 185 827 b 113 894 147 825 113 856 b 180 967 113 932 142 965 l 417 980 b 474 1030 423 1008 439 1030 b 698 1007 552 1030 632 1017 b 775 935 735 1000 775 981 b 708 863 775 897 747 865 l 556 851 b 455 144 531 625 492 362 l 641 158 b 713 92 679 160 713 130 b 647 18 713 53 685 20 l 158 -17 m 492 1130 b 433 1166 468 1130 445 1143 b 386 1228 404 1167 386 1190 b 489 1322 386 1285 435 1322 b 591 1228 544 1322 591 1285 b 492 1130 591 1167 540 1130 "},"Ị":{"ha":861,"x_min":0,"x_max":0,"o":"m 158 -17 b 87 50 121 -19 87 12 b 153 123 87 88 115 121 l 305 134 b 410 842 341 331 380 575 l 185 827 b 113 894 147 825 113 856 b 180 967 113 932 142 965 l 417 980 b 474 1030 423 1008 439 1030 b 698 1007 552 1030 632 1017 b 775 935 735 1000 775 981 b 708 863 775 897 747 865 l 556 851 b 455 144 531 625 492 362 l 641 158 b 713 92 679 160 713 130 b 647 18 713 53 685 20 l 158 -17 m 372 -369 b 303 -328 344 -369 317 -353 b 250 -257 269 -326 250 -300 b 367 -150 250 -191 306 -150 b 483 -256 431 -150 483 -192 b 372 -369 483 -327 425 -369 "},"Ì":{"ha":861,"x_min":0,"x_max":0,"o":"m 158 -17 b 87 50 121 -19 87 12 b 153 123 87 88 115 121 l 305 134 b 410 842 341 331 380 575 l 185 827 b 113 894 147 825 113 856 b 180 967 113 932 142 965 l 417 980 b 474 1030 423 1008 439 1030 b 698 1007 552 1030 632 1017 b 775 935 735 1000 775 981 b 708 863 775 897 747 865 l 556 851 b 455 144 531 625 492 362 l 641 158 b 713 92 679 160 713 130 b 647 18 713 53 685 20 l 158 -17 m 527 1131 b 450 1126 503 1106 474 1115 b 335 1208 409 1145 361 1179 b 341 1301 307 1238 310 1271 b 442 1295 372 1331 416 1337 b 521 1208 462 1264 492 1232 b 527 1131 551 1183 551 1156 "},"Ī":{"ha":861,"x_min":0,"x_max":0,"o":"m 158 -17 b 87 50 121 -19 87 12 b 153 123 87 88 115 121 l 305 134 b 410 842 341 331 380 575 l 185 827 b 113 894 147 825 113 856 b 180 967 113 932 142 965 l 417 980 b 474 1030 423 1008 439 1030 b 698 1007 552 1030 632 1017 b 775 935 735 1000 775 981 b 708 863 775 897 747 865 l 556 851 b 455 144 531 625 492 362 l 641 158 b 713 92 679 160 713 130 b 647 18 713 53 685 20 l 158 -17 m 318 1185 b 264 1234 288 1186 265 1206 b 317 1284 264 1262 286 1283 l 665 1299 b 719 1245 696 1301 719 1279 b 667 1188 720 1210 698 1188 l 318 1185 "},"Į":{"ha":861,"x_min":0,"x_max":0,"o":"m 158 -17 b 87 50 121 -19 87 12 b 153 123 87 88 115 121 l 305 134 b 410 842 341 331 380 575 l 185 827 b 113 894 147 825 113 856 b 180 967 113 932 142 965 l 417 980 b 474 1030 423 1008 439 1030 b 698 1007 552 1030 632 1017 b 775 935 735 1000 775 981 b 708 863 775 897 747 865 l 556 851 b 455 144 531 625 492 362 l 641 158 b 713 92 679 160 713 130 b 647 18 713 53 685 20 l 461 5 b 360 -130 399 -42 360 -82 b 419 -190 360 -165 383 -181 b 458 -244 448 -196 464 -215 b 381 -290 452 -275 429 -293 b 228 -164 272 -284 228 -230 b 333 -4 228 -112 260 -61 l 158 -17 "},"Ĩ":{"ha":861,"x_min":0,"x_max":0,"o":"m 158 -17 b 87 50 121 -19 87 12 b 153 123 87 88 115 121 l 305 134 b 410 842 341 331 380 575 l 185 827 b 113 894 147 825 113 856 b 180 967 113 932 142 965 l 417 980 b 474 1030 423 1008 439 1030 b 698 1007 552 1030 632 1017 b 775 935 735 1000 775 981 b 708 863 775 897 747 865 l 556 851 b 455 144 531 625 492 362 l 641 158 b 713 92 679 160 713 130 b 647 18 713 53 685 20 l 158 -17 m 603 1124 b 399 1211 490 1124 460 1211 b 331 1166 370 1211 344 1194 b 266 1134 316 1137 298 1124 b 229 1211 231 1145 211 1169 b 385 1315 256 1274 315 1315 b 589 1225 497 1315 524 1225 b 655 1281 618 1225 642 1242 b 721 1313 665 1308 683 1324 b 756 1242 756 1303 767 1280 b 603 1124 735 1164 678 1124 "},"J":{"ha":861,"x_min":0,"x_max":0,"o":"m 340 -17 b 80 305 157 -17 80 159 b 187 468 80 392 110 468 b 263 383 233 468 263 436 b 221 296 263 343 247 310 b 339 125 229 197 260 125 b 472 310 419 125 451 192 b 526 860 490 417 516 685 l 237 846 b 165 914 199 844 165 874 b 231 985 165 951 193 983 l 524 999 b 591 1045 531 1024 549 1045 b 798 951 708 1045 798 1017 b 729 880 798 914 772 885 l 672 872 b 608 266 663 663 626 363 b 340 -17 576 99 488 -17 "},"Ĵ":{"ha":861,"x_min":0,"x_max":0,"o":"m 340 -17 b 80 305 157 -17 80 159 b 187 468 80 392 110 468 b 263 383 233 468 263 436 b 221 296 263 343 247 310 b 339 125 229 197 260 125 b 472 310 419 125 451 192 b 526 860 490 417 516 685 l 237 846 b 165 914 199 844 165 874 b 231 985 165 951 193 983 l 524 999 b 591 1045 531 1024 549 1045 b 798 951 708 1045 798 1017 b 729 880 798 914 772 885 l 672 872 b 608 266 663 663 626 363 b 340 -17 576 99 488 -17 m 259 1139 b 258 1231 236 1159 231 1202 b 348 1241 283 1257 323 1258 b 442 1313 384 1262 415 1286 b 581 1318 483 1349 537 1344 b 698 1213 628 1289 664 1258 b 694 1137 721 1184 715 1156 b 614 1147 671 1117 640 1118 b 516 1242 581 1185 552 1213 b 371 1139 470 1199 413 1159 b 259 1139 330 1119 285 1115 "},"K":{"ha":861,"x_min":0,"x_max":0,"o":"m 699 -8 b 343 283 601 -8 436 173 b 274 372 317 315 293 344 b 231 62 260 256 244 146 b 156 -17 222 11 197 -17 b 84 68 111 -17 76 18 b 180 844 114 261 160 602 b 151 925 161 860 151 889 b 242 1031 151 986 183 1031 b 329 904 295 1031 331 996 b 300 589 325 830 315 715 b 365 656 319 610 341 633 l 665 969 b 778 988 706 1013 742 1019 b 775 876 814 957 803 909 b 381 485 698 785 465 554 l 376 464 b 661 163 447 376 568 245 b 697 167 672 166 684 167 b 784 80 745 167 784 130 b 699 -8 784 30 747 -8 "},"Ķ":{"ha":861,"x_min":0,"x_max":0,"o":"m 699 -8 b 343 283 601 -8 436 173 b 274 372 317 315 293 344 b 231 62 260 256 244 146 b 156 -17 222 11 197 -17 b 84 68 111 -17 76 18 b 180 844 114 261 160 602 b 151 925 161 860 151 889 b 242 1031 151 986 183 1031 b 329 904 295 1031 331 996 b 300 589 325 830 315 715 b 365 656 319 610 341 633 l 665 969 b 778 988 706 1013 742 1019 b 775 876 814 957 803 909 b 381 485 698 785 465 554 l 376 464 b 661 163 447 376 568 245 b 697 167 672 166 684 167 b 784 80 745 167 784 130 b 699 -8 784 30 747 -8 m 342 -524 b 302 -455 309 -519 291 -490 b 334 -233 319 -402 337 -319 b 424 -164 333 -178 376 -158 b 492 -252 475 -170 498 -206 b 414 -477 483 -331 442 -426 b 342 -524 395 -509 371 -529 "},"L":{"ha":861,"x_min":0,"x_max":0,"o":"m 346 -17 b 158 164 210 -17 158 60 b 273 838 158 331 256 634 b 247 931 256 859 247 895 b 344 1038 247 997 286 1038 b 433 929 403 1038 433 994 b 315 202 433 723 315 383 b 392 121 315 148 334 121 b 690 162 464 121 619 162 b 764 96 734 162 764 135 b 693 22 764 58 735 28 b 346 -17 589 10 451 -17 "},"Ĺ":{"ha":861,"x_min":0,"x_max":0,"o":"m 346 -17 b 158 164 210 -17 158 60 b 273 838 158 331 256 634 b 247 931 256 859 247 895 b 344 1038 247 997 286 1038 b 433 929 403 1038 433 994 b 315 202 433 723 315 383 b 392 121 315 148 334 121 b 690 162 464 121 619 162 b 764 96 734 162 764 135 b 693 22 764 58 735 28 b 346 -17 589 10 451 -17 m 326 1131 b 403 1126 350 1106 378 1115 b 519 1208 444 1145 492 1179 b 513 1301 546 1238 544 1271 b 412 1295 482 1331 437 1337 b 332 1208 391 1264 361 1232 b 326 1131 303 1183 302 1156 "},"Ľ":{"ha":861,"x_min":0,"x_max":0,"o":"m 346 -17 b 158 164 210 -17 158 60 b 273 838 158 331 256 634 b 247 931 256 859 247 895 b 344 1038 247 997 286 1038 b 433 929 403 1038 433 994 b 315 202 433 723 315 383 b 392 121 315 148 334 121 b 690 162 464 121 619 162 b 764 96 734 162 764 135 b 693 22 764 58 735 28 b 346 -17 589 10 451 -17 m 620 850 b 574 917 586 854 570 880 b 574 1050 579 959 577 1012 b 652 1119 569 1106 610 1124 b 715 1040 694 1113 722 1085 b 684 901 710 988 699 944 b 620 850 671 865 654 846 "},"Ļ":{"ha":861,"x_min":0,"x_max":0,"o":"m 346 -17 b 158 164 210 -17 158 60 b 273 838 158 331 256 634 b 247 931 256 859 247 895 b 344 1038 247 997 286 1038 b 433 929 403 1038 433 994 b 315 202 433 723 315 383 b 392 121 315 148 334 121 b 690 162 464 121 619 162 b 764 96 734 162 764 135 b 693 22 764 58 735 28 b 346 -17 589 10 451 -17 m 370 -524 b 331 -455 338 -519 319 -490 b 363 -233 347 -402 365 -319 b 452 -164 361 -178 405 -158 b 521 -252 503 -170 526 -206 b 442 -477 511 -331 471 -426 b 370 -524 424 -509 399 -529 "},"Ŀ":{"ha":861,"x_min":0,"x_max":0,"o":"m 753 463 b 690 504 727 463 703 478 b 642 574 660 506 642 532 b 749 682 642 641 692 682 b 856 575 807 682 856 640 b 753 463 856 505 802 463 m 346 -17 b 158 164 210 -17 158 60 b 273 838 158 331 256 634 b 247 931 256 859 247 895 b 344 1038 247 997 286 1038 b 433 929 403 1038 433 994 b 315 202 433 723 315 383 b 392 121 315 148 334 121 b 690 162 464 121 619 162 b 764 96 734 162 764 135 b 693 22 764 58 735 28 b 346 -17 589 10 451 -17 "},"Ł":{"ha":861,"x_min":0,"x_max":0,"o":"m 105 424 b 19 456 67 407 33 426 b 53 538 6 488 18 523 l 238 619 b 273 838 253 697 267 772 b 247 931 256 859 247 895 b 344 1038 247 997 286 1038 b 433 929 403 1038 433 994 b 403 690 433 861 419 778 l 510 738 b 595 710 549 754 582 738 b 563 623 610 680 603 641 l 370 539 b 315 202 342 412 315 289 b 392 121 315 148 334 121 b 690 162 464 121 619 162 b 764 96 734 162 764 135 b 693 22 764 58 735 28 b 346 -17 589 10 451 -17 b 158 164 210 -17 158 60 b 205 467 158 243 181 352 l 105 424 "},"M":{"ha":861,"x_min":0,"x_max":0,"o":"m 122 -18 b 46 74 72 -18 46 26 b 109 172 46 119 71 160 b 219 876 152 388 199 717 b 322 1009 231 973 267 1009 b 414 891 381 1009 412 970 b 435 451 417 780 424 570 l 458 442 b 603 922 494 552 571 803 b 715 1040 624 1003 660 1040 b 801 880 791 1040 813 967 b 751 160 778 703 754 358 b 799 76 781 147 799 112 b 713 -16 799 20 761 -16 b 625 142 649 -16 625 49 b 670 736 625 285 645 564 l 647 745 b 512 283 609 595 542 358 b 424 208 488 223 453 208 b 348 301 383 208 357 238 b 333 708 338 374 331 572 l 310 717 b 215 82 289 509 243 204 b 122 -18 198 6 160 -18 "},"N":{"ha":861,"x_min":0,"x_max":0,"o":"m 149 -11 b 70 85 99 -11 70 33 b 133 190 70 138 98 175 b 200 891 165 401 192 767 b 281 1004 203 956 227 1004 b 370 903 335 1004 358 958 b 542 253 404 754 494 414 l 562 249 b 647 966 595 496 634 831 b 715 1039 651 1010 675 1039 b 780 957 758 1039 783 1003 b 666 97 773 859 697 258 b 579 -3 652 28 626 -3 b 484 86 531 -3 507 28 b 317 658 436 215 361 463 l 297 663 b 236 72 283 440 263 171 b 149 -11 221 12 186 -11 "},"Ń":{"ha":861,"x_min":0,"x_max":0,"o":"m 149 -11 b 70 85 99 -11 70 33 b 133 190 70 138 98 175 b 200 891 165 401 192 767 b 281 1004 203 956 227 1004 b 370 903 335 1004 358 958 b 542 253 404 754 494 414 l 562 249 b 647 966 595 496 634 831 b 715 1039 651 1010 675 1039 b 780 957 758 1039 783 1003 b 666 97 773 859 697 258 b 579 -3 652 28 626 -3 b 484 86 531 -3 507 28 b 317 658 436 215 361 463 l 297 663 b 236 72 283 440 263 171 b 149 -11 221 12 186 -11 m 467 1131 b 544 1126 491 1106 519 1115 b 659 1208 585 1145 633 1179 b 653 1301 687 1238 684 1271 b 552 1295 622 1331 578 1337 b 473 1208 532 1264 501 1232 b 467 1131 443 1183 442 1156 "},"Ň":{"ha":861,"x_min":0,"x_max":0,"o":"m 149 -11 b 70 85 99 -11 70 33 b 133 190 70 138 98 175 b 200 891 165 401 192 767 b 281 1004 203 956 227 1004 b 370 903 335 1004 358 958 b 542 253 404 754 494 414 l 562 249 b 647 966 595 496 634 831 b 715 1039 651 1010 675 1039 b 780 957 758 1039 783 1003 b 666 97 773 859 697 258 b 579 -3 652 28 626 -3 b 484 86 531 -3 507 28 b 317 658 436 215 361 463 l 297 663 b 236 72 283 440 263 171 b 149 -11 221 12 186 -11 m 265 1313 b 263 1222 242 1292 236 1249 b 353 1210 288 1194 328 1194 b 447 1139 389 1190 419 1165 b 586 1133 488 1102 542 1108 b 703 1239 633 1163 669 1194 b 699 1315 726 1268 720 1297 b 619 1304 676 1335 644 1333 b 521 1210 586 1266 558 1238 b 376 1313 475 1253 419 1292 b 265 1313 335 1333 290 1337 "},"Ņ":{"ha":861,"x_min":0,"x_max":0,"o":"m 149 -11 b 70 85 99 -11 70 33 b 133 190 70 138 98 175 b 200 891 165 401 192 767 b 281 1004 203 956 227 1004 b 370 903 335 1004 358 958 b 542 253 404 754 494 414 l 562 249 b 647 966 595 496 634 831 b 715 1039 651 1010 675 1039 b 780 957 758 1039 783 1003 b 666 97 773 859 697 258 b 579 -3 652 28 626 -3 b 484 86 531 -3 507 28 b 317 658 436 215 361 463 l 297 663 b 236 72 283 440 263 171 b 149 -11 221 12 186 -11 m 335 -524 b 297 -455 303 -519 285 -490 b 328 -233 313 -402 331 -319 b 418 -164 326 -178 371 -158 b 486 -252 469 -170 492 -206 b 408 -477 477 -331 437 -426 b 335 -524 390 -509 365 -529 "},"Ɲ":{"ha":861,"x_min":0,"x_max":0,"o":"m 72 -278 b -55 -167 10 -278 -55 -237 b 12 -92 -55 -124 -28 -92 b 76 -151 47 -92 68 -119 l 84 -151 b 158 105 122 -151 144 -43 b 222 905 176 324 203 683 b 301 1004 227 956 247 1004 b 391 903 360 1004 375 958 b 554 253 433 753 513 414 l 574 249 b 653 976 602 497 635 833 b 728 1039 658 1015 680 1042 b 780 960 764 1036 784 1005 b 673 105 771 860 699 254 b 584 -3 656 23 631 -3 b 485 103 526 -3 506 34 b 344 658 442 240 387 458 l 324 663 b 277 96 311 450 290 218 b 72 -278 257 -122 210 -278 "},"Ñ":{"ha":861,"x_min":0,"x_max":0,"o":"m 149 -11 b 70 85 99 -11 70 33 b 133 190 70 138 98 175 b 200 891 165 401 192 767 b 281 1004 203 956 227 1004 b 370 903 335 1004 358 958 b 542 253 404 754 494 414 l 562 249 b 647 966 595 496 634 831 b 715 1039 651 1010 675 1039 b 780 957 758 1039 783 1003 b 666 97 773 859 697 258 b 579 -3 652 28 626 -3 b 484 86 531 -3 507 28 b 317 658 436 215 361 463 l 297 663 b 236 72 283 440 263 171 b 149 -11 221 12 186 -11 m 613 1124 b 408 1211 500 1124 471 1211 b 340 1166 381 1211 354 1194 b 276 1134 326 1137 308 1124 b 239 1211 241 1145 221 1169 b 396 1315 266 1274 325 1315 b 599 1225 507 1315 534 1225 b 665 1281 628 1225 651 1242 b 731 1313 675 1308 694 1324 b 766 1242 766 1303 777 1280 b 613 1124 745 1164 688 1124 "},"Ŋ":{"ha":861,"x_min":0,"x_max":0,"o":"m 465 -277 b 337 -167 402 -277 337 -237 b 403 -92 337 -124 365 -92 b 467 -150 439 -92 460 -119 l 476 -150 b 531 19 509 -150 532 -94 b 317 658 484 142 368 459 l 297 663 b 235 72 284 437 263 171 b 139 -10 217 6 177 -16 b 74 101 92 -1 67 47 b 119 188 81 143 98 172 b 198 905 151 390 179 718 b 278 1004 203 956 220 1004 b 365 903 333 1004 348 958 l 542 305 l 562 301 l 644 976 b 719 1039 648 1015 675 1041 b 780 960 760 1038 784 1005 b 676 96 771 860 697 285 b 465 -277 653 -121 601 -277 "},"O":{"ha":861,"x_min":0,"x_max":0,"o":"m 365 -15 b 65 359 176 -15 65 134 b 535 1031 65 639 217 1031 b 700 878 679 1031 739 944 b 789 605 751 828 789 736 b 365 -15 789 364 672 -15 m 214 374 b 379 123 214 233 269 123 b 647 582 556 123 647 410 b 575 793 647 681 619 754 b 557 885 547 825 541 858 b 517 890 544 888 531 890 b 214 374 329 890 214 566 "},"Ó":{"ha":861,"x_min":0,"x_max":0,"o":"m 365 -15 b 65 359 176 -15 65 134 b 535 1031 65 639 217 1031 b 700 878 679 1031 739 944 b 789 605 751 828 789 736 b 365 -15 789 364 672 -15 m 501 1131 b 578 1126 525 1106 553 1115 b 693 1208 619 1145 667 1179 b 687 1301 721 1238 718 1271 b 586 1295 656 1331 612 1337 b 507 1208 566 1264 535 1232 b 501 1131 477 1183 476 1156 m 214 374 b 379 123 214 233 269 123 b 647 582 556 123 647 410 b 575 793 647 681 619 754 b 557 885 547 825 541 858 b 517 890 544 888 531 890 b 214 374 329 890 214 566 "},"Ŏ":{"ha":861,"x_min":0,"x_max":0,"o":"m 365 -15 b 65 359 176 -15 65 134 b 535 1031 65 639 217 1031 b 700 878 679 1031 739 944 b 789 605 751 828 789 736 b 365 -15 789 364 672 -15 m 539 1133 b 321 1255 413 1133 333 1192 b 366 1311 315 1288 335 1309 b 428 1272 401 1313 416 1298 b 538 1222 444 1236 481 1222 b 652 1283 605 1222 641 1243 b 711 1322 660 1308 678 1323 b 756 1267 742 1319 761 1299 b 539 1133 745 1191 664 1133 m 214 374 b 379 123 214 233 269 123 b 647 582 556 123 647 410 b 575 793 647 681 619 754 b 557 885 547 825 541 858 b 517 890 544 888 531 890 b 214 374 329 890 214 566 "},"Ô":{"ha":861,"x_min":0,"x_max":0,"o":"m 365 -15 b 65 359 176 -15 65 134 b 535 1031 65 639 217 1031 b 700 878 679 1031 739 944 b 789 605 751 828 789 736 b 365 -15 789 364 672 -15 m 299 1139 b 297 1231 276 1159 270 1202 b 388 1241 323 1257 362 1258 b 481 1313 423 1262 453 1286 b 620 1318 522 1349 576 1344 b 738 1213 667 1289 703 1258 b 733 1137 760 1184 754 1156 b 653 1147 710 1117 678 1118 b 556 1242 620 1185 592 1213 b 410 1139 509 1199 453 1159 b 299 1139 369 1119 324 1115 m 214 374 b 379 123 214 233 269 123 b 647 582 556 123 647 410 b 575 793 647 681 619 754 b 557 885 547 825 541 858 b 517 890 544 888 531 890 b 214 374 329 890 214 566 "},"Ö":{"ha":861,"x_min":0,"x_max":0,"o":"m 365 -15 b 65 359 176 -15 65 134 b 535 1031 65 639 217 1031 b 700 878 679 1031 739 944 b 789 605 751 828 789 736 b 365 -15 789 364 672 -15 m 356 1130 b 297 1166 331 1130 308 1143 b 251 1228 268 1167 251 1190 b 351 1322 251 1285 299 1322 b 451 1228 406 1322 451 1285 b 356 1130 451 1167 401 1130 m 610 1214 b 653 1282 610 1247 627 1270 b 720 1330 658 1312 683 1330 b 821 1227 781 1330 821 1282 b 713 1126 821 1172 780 1126 b 610 1214 651 1126 610 1165 m 214 374 b 379 123 214 233 269 123 b 647 582 556 123 647 410 b 575 793 647 681 619 754 b 557 885 547 825 541 858 b 517 890 544 888 531 890 b 214 374 329 890 214 566 "},"Ọ":{"ha":861,"x_min":0,"x_max":0,"o":"m 365 -15 b 65 359 176 -15 65 134 b 535 1031 65 639 217 1031 b 700 878 679 1031 739 944 b 789 605 751 828 789 736 b 365 -15 789 364 672 -15 m 351 -369 b 281 -328 322 -369 295 -353 b 228 -257 248 -326 228 -300 b 346 -150 228 -191 284 -150 b 462 -256 410 -150 462 -192 b 351 -369 462 -327 403 -369 m 214 374 b 379 123 214 233 269 123 b 647 582 556 123 647 410 b 575 793 647 681 619 754 b 557 885 547 825 541 858 b 517 890 544 888 531 890 b 214 374 329 890 214 566 "},"Ò":{"ha":861,"x_min":0,"x_max":0,"o":"m 365 -15 b 65 359 176 -15 65 134 b 535 1031 65 639 217 1031 b 700 878 679 1031 739 944 b 789 605 751 828 789 736 b 365 -15 789 364 672 -15 m 571 1131 b 494 1126 547 1106 519 1115 b 378 1208 453 1145 406 1179 b 385 1301 351 1238 353 1271 b 485 1295 415 1331 460 1337 b 565 1208 506 1264 536 1232 b 571 1131 594 1183 595 1156 m 214 374 b 379 123 214 233 269 123 b 647 582 556 123 647 410 b 575 793 647 681 619 754 b 557 885 547 825 541 858 b 517 890 544 888 531 890 b 214 374 329 890 214 566 "},"Ő":{"ha":861,"x_min":0,"x_max":0,"o":"m 365 -15 b 65 359 176 -15 65 134 b 535 1031 65 639 217 1031 b 700 878 679 1031 739 944 b 789 605 751 828 789 736 b 365 -15 789 364 672 -15 m 363 1144 b 364 1203 343 1163 344 1183 b 434 1294 390 1228 417 1263 b 524 1303 451 1326 491 1331 b 533 1213 556 1276 558 1240 b 433 1137 508 1185 470 1155 b 363 1144 408 1126 384 1122 m 630 1146 b 630 1209 610 1167 610 1190 b 700 1297 656 1234 683 1267 b 798 1307 718 1333 760 1339 b 806 1217 830 1281 834 1247 b 703 1137 781 1189 740 1155 b 630 1146 678 1126 653 1121 m 214 374 b 379 123 214 233 269 123 b 647 582 556 123 647 410 b 575 793 647 681 619 754 b 557 885 547 825 541 858 b 517 890 544 888 531 890 b 214 374 329 890 214 566 "},"Ō":{"ha":861,"x_min":0,"x_max":0,"o":"m 365 -15 b 65 359 176 -15 65 134 b 535 1031 65 639 217 1031 b 700 878 679 1031 739 944 b 789 605 751 828 789 736 b 365 -15 789 364 672 -15 m 363 1185 b 308 1234 332 1186 309 1206 b 360 1284 308 1262 330 1283 l 710 1299 b 764 1245 740 1301 763 1279 b 711 1188 765 1210 742 1188 l 363 1185 m 214 374 b 379 123 214 233 269 123 b 647 582 556 123 647 410 b 575 793 647 681 619 754 b 557 885 547 825 541 858 b 517 890 544 888 531 890 b 214 374 329 890 214 566 "},"Ǫ":{"ha":861,"x_min":0,"x_max":0,"o":"m 388 -296 b 235 -169 280 -290 235 -235 b 336 -13 235 -118 267 -69 b 65 359 165 1 65 146 b 535 1031 65 639 217 1031 b 700 878 679 1031 739 944 b 789 605 751 828 789 736 b 467 1 789 393 698 74 l 469 0 b 368 -135 408 -47 368 -87 b 427 -195 368 -171 391 -187 b 466 -250 456 -201 472 -221 b 388 -296 460 -281 437 -299 m 214 374 b 379 123 214 233 269 123 b 647 582 556 123 647 410 b 575 793 647 681 619 754 b 557 885 547 825 541 858 b 517 890 544 888 531 890 b 214 374 329 890 214 566 "},"Ø":{"ha":861,"x_min":0,"x_max":0,"o":"m 364 -15 b 285 -4 336 -15 310 -11 l 228 -130 b 144 -171 208 -173 173 -183 b 114 -78 113 -157 93 -123 l 176 58 b 65 389 105 127 65 240 b 522 1031 65 657 229 1031 b 587 1026 546 1031 567 1028 l 640 1143 b 723 1182 660 1184 694 1194 b 755 1092 754 1168 774 1134 l 699 967 b 699 878 717 940 717 907 b 789 598 750 827 788 734 b 364 -15 791 358 676 -15 m 203 391 b 248 197 203 313 219 246 l 541 888 b 517 890 533 890 526 890 b 203 391 326 890 202 601 m 333 123 b 378 116 347 119 363 116 b 660 572 565 116 658 390 b 610 774 660 661 641 730 l 333 123 "},"Ǿ":{"ha":861,"x_min":0,"x_max":0,"o":"m 364 -15 b 285 -4 336 -15 310 -11 l 228 -130 b 144 -171 208 -173 173 -183 b 114 -78 113 -157 93 -123 l 176 58 b 65 389 105 127 65 240 b 522 1031 65 657 229 1031 b 587 1026 546 1031 567 1028 l 640 1143 b 723 1182 660 1184 694 1194 b 755 1092 754 1168 774 1134 l 699 967 b 699 878 717 940 717 907 b 789 598 750 827 788 734 b 364 -15 791 358 676 -15 m 396 1131 b 472 1126 419 1106 448 1115 b 588 1208 514 1145 561 1179 b 582 1301 615 1238 613 1271 b 481 1295 551 1331 506 1337 b 401 1208 460 1264 431 1232 b 396 1131 372 1183 372 1156 m 203 391 b 248 197 203 313 219 246 l 541 888 b 517 890 533 890 526 890 b 203 391 326 890 202 601 m 333 123 b 378 116 347 119 363 116 b 660 572 565 116 658 390 b 610 774 660 661 641 730 l 333 123 "},"Õ":{"ha":861,"x_min":0,"x_max":0,"o":"m 365 -15 b 65 359 176 -15 65 134 b 535 1031 65 639 217 1031 b 700 878 679 1031 739 944 b 789 605 751 828 789 736 b 365 -15 789 364 672 -15 m 647 1124 b 442 1211 534 1124 505 1211 b 374 1166 415 1211 388 1194 b 310 1134 360 1137 342 1124 b 273 1211 275 1145 255 1169 b 430 1315 300 1274 359 1315 b 633 1225 541 1315 568 1225 b 699 1281 663 1225 685 1242 b 765 1313 709 1308 728 1324 b 800 1242 800 1303 811 1280 b 647 1124 779 1164 722 1124 m 214 374 b 379 123 214 233 269 123 b 647 582 556 123 647 410 b 575 793 647 681 619 754 b 557 885 547 825 541 858 b 517 890 544 888 531 890 b 214 374 329 890 214 566 "},"Œ":{"ha":861,"x_min":0,"x_max":0,"o":"m 560 -18 b 412 88 481 -23 431 16 b 235 -15 363 19 302 -15 b 37 559 65 -15 -17 215 b 356 1031 85 874 228 1031 b 485 944 436 1031 478 988 b 493 954 487 947 490 951 l 494 962 b 572 1040 499 1008 525 1044 b 625 987 608 1036 622 1015 l 795 1003 b 863 942 833 1006 862 977 b 801 874 865 908 840 878 l 614 853 l 578 541 l 705 556 b 773 495 743 560 771 530 b 711 426 775 460 749 432 l 561 407 l 540 229 b 600 118 528 144 540 113 b 743 144 653 123 692 131 b 809 92 776 152 805 126 b 752 10 815 47 790 19 b 560 -18 686 -7 633 -12 m 162 541 b 251 123 127 311 160 123 b 415 419 328 123 386 250 b 384 793 447 596 432 731 b 366 878 363 828 353 849 b 374 892 368 883 371 888 b 358 894 369 893 363 894 b 162 541 284 894 197 767 m 471 888 b 483 870 475 882 479 876 l 485 881 b 478 899 481 887 479 893 l 476 897 l 471 888 "},"P":{"ha":861,"x_min":0,"x_max":0,"o":"m 209 -16 b 125 110 159 -16 125 23 b 221 874 125 320 181 651 b 134 936 172 871 134 888 b 199 1016 134 969 153 1001 b 392 1042 240 1029 317 1042 b 813 719 639 1042 813 923 b 281 318 813 469 543 323 b 269 150 275 260 271 203 b 298 77 287 138 298 110 b 209 -16 298 17 260 -16 m 297 455 b 665 710 480 459 665 555 b 422 898 665 826 561 898 b 369 895 405 898 387 897 l 369 890 b 297 455 347 774 318 615 "},"Þ":{"ha":861,"x_min":0,"x_max":0,"o":"m 303 217 b 277 217 294 217 285 217 l 269 133 b 292 59 288 113 294 88 b 204 -16 287 13 253 -16 b 125 110 154 -16 122 19 b 186 645 135 269 160 467 b 124 694 154 647 131 665 b 185 785 113 739 141 772 l 208 792 l 233 942 b 322 1022 243 993 274 1028 b 377 936 361 1016 389 986 l 356 814 l 406 815 b 801 545 615 815 801 731 b 303 217 801 319 537 230 m 292 352 b 656 538 467 357 656 413 b 413 676 656 633 542 676 b 334 670 383 676 358 674 b 292 352 319 570 304 460 "},"Q":{"ha":861,"x_min":0,"x_max":0,"o":"m 658 -164 b 467 1 588 -164 518 -79 b 365 -15 435 -9 401 -15 b 65 359 176 -15 65 134 b 535 1031 65 639 217 1031 b 700 878 679 1031 739 944 b 789 605 751 828 789 736 b 594 76 789 438 732 203 b 642 10 610 53 626 31 l 656 10 b 740 -78 707 10 740 -31 b 658 -164 740 -128 704 -164 m 214 374 b 379 123 214 233 269 123 b 399 124 386 123 392 124 b 416 250 371 182 372 226 b 511 219 453 270 488 263 l 522 198 b 647 582 605 295 647 465 b 575 793 647 681 619 754 b 557 885 547 825 541 858 b 517 890 544 888 531 890 b 214 374 329 890 214 566 "},"R":{"ha":861,"x_min":0,"x_max":0,"o":"m 698 -15 b 324 356 561 -15 375 266 b 307 398 316 369 310 384 l 267 60 b 188 -16 261 15 236 -16 b 118 91 135 -16 110 28 b 220 867 144 308 187 643 b 127 922 176 864 136 876 b 213 1017 117 973 154 1003 b 419 1040 275 1033 352 1040 b 817 743 656 1040 817 916 b 474 399 817 562 652 442 l 469 382 b 667 151 519 309 588 230 b 703 158 678 156 690 158 b 794 74 759 158 794 122 b 698 -15 794 24 755 -15 m 316 475 b 374 508 328 492 347 505 b 667 731 524 528 667 607 b 439 897 667 832 572 897 b 370 894 416 897 393 896 l 369 890 b 316 475 356 796 335 633 "},"Ŕ":{"ha":861,"x_min":0,"x_max":0,"o":"m 698 -15 b 324 356 561 -15 375 266 b 307 398 316 369 310 384 l 267 60 b 188 -16 261 15 236 -16 b 118 91 135 -16 110 28 b 220 867 144 308 187 643 b 127 922 176 864 136 876 b 213 1017 117 973 154 1003 b 419 1040 275 1033 352 1040 b 817 743 656 1040 817 916 b 474 399 817 562 652 442 l 469 382 b 667 151 519 309 588 230 b 703 158 678 156 690 158 b 794 74 759 158 794 122 b 698 -15 794 24 755 -15 m 433 1131 b 510 1126 457 1106 485 1115 b 625 1208 551 1145 599 1179 b 619 1301 653 1238 650 1271 b 518 1295 588 1331 544 1337 b 439 1208 498 1264 467 1232 b 433 1131 409 1183 408 1156 m 316 475 b 374 508 328 492 347 505 b 667 731 524 528 667 607 b 439 897 667 832 572 897 b 370 894 416 897 393 896 l 369 890 b 316 475 356 796 335 633 "},"Ř":{"ha":861,"x_min":0,"x_max":0,"o":"m 698 -15 b 324 356 561 -15 375 266 b 307 398 316 369 310 384 l 267 60 b 188 -16 261 15 236 -16 b 118 91 135 -16 110 28 b 220 867 144 308 187 643 b 127 922 176 864 136 876 b 213 1017 117 973 154 1003 b 419 1040 275 1033 352 1040 b 817 743 656 1040 817 916 b 474 399 817 562 652 442 l 469 382 b 667 151 519 309 588 230 b 703 158 678 156 690 158 b 794 74 759 158 794 122 b 698 -15 794 24 755 -15 m 231 1313 b 229 1222 208 1292 202 1249 b 319 1210 254 1194 294 1194 b 413 1139 355 1190 385 1165 b 552 1133 454 1102 508 1108 b 669 1239 599 1163 635 1194 b 665 1315 692 1268 686 1297 b 585 1304 642 1335 610 1333 b 487 1210 552 1266 524 1238 b 342 1313 441 1253 385 1292 b 231 1313 301 1333 256 1337 m 316 475 b 374 508 328 492 347 505 b 667 731 524 528 667 607 b 439 897 667 832 572 897 b 370 894 416 897 393 896 l 369 890 b 316 475 356 796 335 633 "},"Ŗ":{"ha":861,"x_min":0,"x_max":0,"o":"m 698 -15 b 324 356 561 -15 375 266 b 307 398 316 369 310 384 l 267 60 b 188 -16 261 15 236 -16 b 118 91 135 -16 110 28 b 220 867 144 308 187 643 b 127 922 176 864 136 876 b 213 1017 117 973 154 1003 b 419 1040 275 1033 352 1040 b 817 743 656 1040 817 916 b 474 399 817 562 652 442 l 469 382 b 667 151 519 309 588 230 b 703 158 678 156 690 158 b 794 74 759 158 794 122 b 698 -15 794 24 755 -15 m 360 -524 b 321 -455 328 -519 310 -490 b 353 -233 338 -402 356 -319 b 442 -164 351 -178 395 -158 b 511 -252 494 -170 517 -206 b 433 -477 501 -331 461 -426 b 360 -524 414 -509 390 -529 m 316 475 b 374 508 328 492 347 505 b 667 731 524 528 667 607 b 439 897 667 832 572 897 b 370 894 416 897 393 896 l 369 890 b 316 475 356 796 335 633 "},"S":{"ha":861,"x_min":0,"x_max":0,"o":"m 380 -22 b 108 69 254 -22 153 28 b 99 174 78 97 75 141 b 206 175 128 211 167 201 b 390 116 251 141 313 116 b 536 195 483 116 536 154 b 361 362 536 247 447 306 b 170 641 249 435 170 523 b 608 1031 170 838 407 1031 b 727 748 799 1031 772 863 b 744 699 738 737 744 719 b 661 618 744 651 708 618 b 575 712 613 618 575 653 b 635 885 575 769 617 846 l 625 901 b 318 647 484 888 318 777 b 495 438 318 551 408 490 b 694 198 600 376 694 306 b 380 -22 694 64 546 -22 "},"Ś":{"ha":861,"x_min":0,"x_max":0,"o":"m 380 -22 b 108 69 254 -22 153 28 b 99 174 78 97 75 141 b 206 175 128 211 167 201 b 390 116 251 141 313 116 b 536 195 483 116 536 154 b 361 362 536 247 447 306 b 170 641 249 435 170 523 b 608 1031 170 838 407 1031 b 727 748 799 1031 772 863 b 744 699 738 737 744 719 b 661 618 744 651 708 618 b 575 712 613 618 575 653 b 635 885 575 769 617 846 l 625 901 b 318 647 484 888 318 777 b 495 438 318 551 408 490 b 694 198 600 376 694 306 b 380 -22 694 64 546 -22 m 527 1131 b 603 1126 551 1106 579 1115 b 719 1208 645 1145 692 1179 b 713 1301 747 1238 744 1271 b 613 1295 683 1331 638 1337 b 533 1208 592 1264 562 1232 b 527 1131 503 1183 503 1156 "},"Š":{"ha":861,"x_min":0,"x_max":0,"o":"m 380 -22 b 108 69 254 -22 153 28 b 99 174 78 97 75 141 b 206 175 128 211 167 201 b 390 116 251 141 313 116 b 536 195 483 116 536 154 b 361 362 536 247 447 306 b 170 641 249 435 170 523 b 608 1031 170 838 407 1031 b 727 748 799 1031 772 863 b 744 699 738 737 744 719 b 661 618 744 651 708 618 b 575 712 613 618 575 653 b 635 885 575 769 617 846 l 625 901 b 318 647 484 888 318 777 b 495 438 318 551 408 490 b 694 198 600 376 694 306 b 380 -22 694 64 546 -22 m 324 1313 b 323 1222 301 1292 297 1249 b 413 1210 349 1194 388 1194 b 508 1139 449 1190 479 1165 b 646 1133 549 1102 602 1108 b 763 1239 693 1163 729 1194 b 759 1315 786 1268 780 1297 b 679 1304 736 1335 705 1333 b 581 1210 646 1266 617 1238 b 436 1313 535 1253 478 1292 b 324 1313 395 1333 351 1337 "},"Ş":{"ha":861,"x_min":0,"x_max":0,"o":"m 99 174 b 206 175 128 211 167 201 b 390 116 251 141 313 116 b 536 195 483 116 536 154 b 361 362 536 247 447 306 b 170 641 249 435 170 523 b 608 1031 170 838 407 1031 b 727 748 799 1031 772 863 b 744 699 738 737 744 719 b 661 618 744 651 708 618 b 575 712 613 618 575 653 b 635 885 575 769 617 846 l 625 901 b 318 647 484 888 318 777 b 495 438 318 551 408 490 b 694 198 600 376 694 306 b 428 -19 694 77 574 -4 b 428 -44 428 -26 428 -35 b 397 -183 422 -91 414 -135 b 306 -232 383 -232 347 -245 b 265 -133 265 -219 236 -182 b 319 -17 283 -101 306 -56 b 108 69 222 -5 146 35 b 99 174 78 97 75 141 "},"Ŝ":{"ha":861,"x_min":0,"x_max":0,"o":"m 380 -22 b 108 69 254 -22 153 28 b 99 174 78 97 75 141 b 206 175 128 211 167 201 b 390 116 251 141 313 116 b 536 195 483 116 536 154 b 361 362 536 247 447 306 b 170 641 249 435 170 523 b 608 1031 170 838 407 1031 b 727 748 799 1031 772 863 b 744 699 738 737 744 719 b 661 618 744 651 708 618 b 575 712 613 618 575 653 b 635 885 575 769 617 846 l 625 901 b 318 647 484 888 318 777 b 495 438 318 551 408 490 b 694 198 600 376 694 306 b 380 -22 694 64 546 -22 m 324 1139 b 323 1231 301 1159 297 1202 b 413 1241 349 1257 388 1258 b 508 1313 449 1262 480 1286 b 646 1318 549 1349 602 1344 b 763 1213 693 1289 729 1258 b 759 1137 786 1184 780 1156 b 679 1147 736 1117 705 1118 b 581 1242 647 1185 617 1213 b 436 1139 535 1199 478 1159 b 324 1139 395 1119 351 1115 "},"Ș":{"ha":861,"x_min":0,"x_max":0,"o":"m 380 -22 b 108 69 254 -22 153 28 b 99 174 78 97 75 141 b 206 175 128 211 167 201 b 390 116 251 141 313 116 b 536 195 483 116 536 154 b 361 362 536 247 447 306 b 170 641 249 435 170 523 b 608 1031 170 838 407 1031 b 727 748 799 1031 772 863 b 744 699 738 737 744 719 b 661 618 744 651 708 618 b 575 712 613 618 575 653 b 635 885 575 769 617 846 l 625 901 b 318 647 484 888 318 777 b 495 438 318 551 408 490 b 694 198 600 376 694 306 b 380 -22 694 64 546 -22 m 328 -524 b 290 -455 297 -519 278 -490 b 322 -233 306 -402 324 -319 b 411 -164 319 -178 364 -158 b 479 -252 462 -170 485 -206 b 401 -477 470 -331 430 -426 b 328 -524 383 -509 358 -529 "},"ẞ":{"ha":861,"x_min":0,"x_max":0,"o":"m 474 -20 b 408 49 431 -20 408 6 b 467 111 408 89 432 111 b 686 338 569 111 686 190 b 570 478 686 422 647 475 b 494 510 522 480 506 488 b 503 608 478 539 491 577 b 603 837 526 667 576 771 b 565 888 619 878 608 890 b 314 874 490 886 398 880 b 235 65 302 732 245 144 b 160 -16 229 13 207 -16 b 95 85 113 -16 90 20 b 171 865 103 183 151 680 l 153 864 b 74 928 108 861 77 890 b 142 1003 70 967 97 1000 b 646 1028 265 1013 486 1024 b 751 856 752 1031 787 965 b 635 582 723 776 677 676 b 821 346 763 562 821 466 b 474 -20 821 122 635 -20 "},"T":{"ha":861,"x_min":0,"x_max":0,"o":"m 339 -15 b 271 70 294 -15 260 20 b 378 872 308 258 363 617 l 132 856 b 60 924 94 854 61 885 b 126 996 59 961 88 994 l 383 1010 b 457 1058 390 1038 409 1063 b 724 1031 540 1050 658 1040 b 801 961 763 1024 801 1003 b 735 891 803 924 774 893 l 524 878 b 418 64 511 664 458 272 b 339 -15 408 13 380 -15 "},"Ŧ":{"ha":861,"x_min":0,"x_max":0,"o":"m 237 438 b 165 491 197 433 169 459 b 219 562 159 523 181 558 l 349 576 b 378 872 363 679 372 782 l 132 856 b 60 924 94 854 61 885 b 126 996 59 961 88 994 l 383 1010 b 457 1058 390 1038 409 1063 b 724 1031 540 1050 658 1040 b 801 961 763 1024 801 1003 b 735 891 803 924 774 893 l 524 878 b 497 592 519 801 509 699 l 612 604 b 686 555 654 608 681 585 b 631 480 692 522 674 485 l 481 464 b 418 64 460 315 438 167 b 339 -15 408 13 380 -15 b 271 70 294 -15 260 20 b 333 448 290 165 313 302 l 237 438 "},"Ť":{"ha":861,"x_min":0,"x_max":0,"o":"m 339 -15 b 271 70 294 -15 260 20 b 378 872 308 258 363 617 l 132 856 b 60 924 94 854 61 885 b 126 996 59 961 88 994 l 383 1010 b 457 1058 390 1038 409 1063 b 724 1031 540 1050 658 1040 b 801 961 763 1024 801 1003 b 735 891 803 924 774 893 l 524 878 b 418 64 511 664 458 272 b 339 -15 408 13 380 -15 m 215 1313 b 214 1222 192 1292 187 1249 b 304 1210 239 1194 278 1194 b 398 1139 340 1190 370 1165 b 537 1133 439 1102 493 1108 b 654 1239 584 1163 619 1194 b 650 1315 676 1268 671 1297 b 569 1304 627 1335 595 1333 b 472 1210 537 1266 508 1238 b 326 1313 426 1253 369 1292 b 215 1313 286 1333 241 1337 "},"Ţ":{"ha":861,"x_min":0,"x_max":0,"o":"m 339 -15 b 271 70 294 -15 260 20 b 378 872 308 258 363 617 l 132 856 b 60 924 94 854 61 885 b 126 996 59 961 88 994 l 383 1010 b 457 1058 390 1038 409 1063 b 724 1031 540 1050 658 1040 b 801 961 763 1024 801 1003 b 735 891 803 924 774 893 l 524 878 b 418 64 511 664 458 272 b 339 -15 408 13 380 -15 m 390 -67 b 401 -139 417 -87 416 -109 b 328 -244 381 -176 359 -210 b 227 -256 299 -280 261 -280 b 219 -160 192 -232 177 -192 b 311 -79 249 -139 286 -108 b 390 -67 334 -53 363 -48 "},"Ț":{"ha":861,"x_min":0,"x_max":0,"o":"m 339 -15 b 271 70 294 -15 260 20 b 378 872 308 258 363 617 l 132 856 b 60 924 94 854 61 885 b 126 996 59 961 88 994 l 383 1010 b 457 1058 390 1038 409 1063 b 724 1031 540 1050 658 1040 b 801 961 763 1024 801 1003 b 735 891 803 924 774 893 l 524 878 b 418 64 511 664 458 272 b 339 -15 408 13 380 -15 m 283 -524 b 244 -455 251 -519 233 -490 b 276 -233 261 -402 278 -319 b 366 -164 274 -178 319 -158 b 434 -252 417 -170 440 -206 b 356 -477 425 -331 385 -426 b 283 -524 338 -509 313 -529 "},"U":{"ha":861,"x_min":0,"x_max":0,"o":"m 336 -16 b 93 385 113 -16 58 172 b 167 842 120 559 147 724 b 138 920 146 858 138 892 b 236 1031 138 977 170 1031 b 319 890 294 1031 335 990 b 240 405 301 776 270 600 b 349 125 215 243 233 125 b 555 413 451 125 518 219 b 644 942 593 592 627 823 b 725 1042 655 1013 682 1042 b 792 939 781 1042 800 994 b 694 351 766 744 728 497 b 336 -16 640 118 532 -16 "},"Ú":{"ha":861,"x_min":0,"x_max":0,"o":"m 336 -16 b 93 385 113 -16 58 172 b 167 842 120 559 147 724 b 138 920 146 858 138 892 b 236 1031 138 977 170 1031 b 319 890 294 1031 335 990 b 240 405 301 776 270 600 b 349 125 215 243 233 125 b 555 413 451 125 518 219 b 644 942 593 592 627 823 b 725 1042 655 1013 682 1042 b 792 939 781 1042 800 994 b 694 351 766 744 728 497 b 336 -16 640 118 532 -16 m 450 1131 b 527 1126 474 1106 503 1115 b 642 1208 568 1145 616 1179 b 636 1301 670 1238 667 1271 b 535 1295 606 1331 561 1337 b 456 1208 515 1264 485 1232 b 450 1131 426 1183 426 1156 "},"Ŭ":{"ha":861,"x_min":0,"x_max":0,"o":"m 336 -16 b 93 385 113 -16 58 172 b 167 842 120 559 147 724 b 138 920 146 858 138 892 b 236 1031 138 977 170 1031 b 319 890 294 1031 335 990 b 240 405 301 776 270 600 b 349 125 215 243 233 125 b 555 413 451 125 518 219 b 644 942 593 592 627 823 b 725 1042 655 1013 682 1042 b 792 939 781 1042 800 994 b 694 351 766 744 728 497 b 336 -16 640 118 532 -16 m 488 1133 b 270 1255 363 1133 283 1192 b 315 1311 264 1288 284 1309 b 377 1272 350 1313 365 1298 b 487 1222 394 1236 430 1222 b 601 1283 554 1222 590 1243 b 660 1322 609 1308 627 1323 b 706 1267 692 1319 710 1299 b 488 1133 694 1191 613 1133 "},"Û":{"ha":861,"x_min":0,"x_max":0,"o":"m 336 -16 b 93 385 113 -16 58 172 b 167 842 120 559 147 724 b 138 920 146 858 138 892 b 236 1031 138 977 170 1031 b 319 890 294 1031 335 990 b 240 405 301 776 270 600 b 349 125 215 243 233 125 b 555 413 451 125 518 219 b 644 942 593 592 627 823 b 725 1042 655 1013 682 1042 b 792 939 781 1042 800 994 b 694 351 766 744 728 497 b 336 -16 640 118 532 -16 m 248 1139 b 247 1231 225 1159 219 1202 b 337 1241 272 1257 311 1258 b 431 1313 372 1262 403 1286 b 569 1318 472 1349 526 1344 b 687 1213 617 1289 652 1258 b 683 1137 709 1184 703 1156 b 602 1147 660 1117 628 1118 b 505 1242 569 1185 541 1213 b 359 1139 458 1199 402 1159 b 248 1139 319 1119 274 1115 "},"Ü":{"ha":861,"x_min":0,"x_max":0,"o":"m 336 -16 b 93 385 113 -16 58 172 b 167 842 120 559 147 724 b 138 920 146 858 138 892 b 236 1031 138 977 170 1031 b 319 890 294 1031 335 990 b 240 405 301 776 270 600 b 349 125 215 243 233 125 b 555 413 451 125 518 219 b 644 942 593 592 627 823 b 725 1042 655 1013 682 1042 b 792 939 781 1042 800 994 b 694 351 766 744 728 497 b 336 -16 640 118 532 -16 m 305 1130 b 246 1166 281 1130 258 1143 b 200 1228 217 1167 200 1190 b 301 1322 200 1285 248 1322 b 401 1228 356 1322 401 1285 b 305 1130 401 1167 350 1130 m 560 1214 b 602 1282 560 1247 576 1270 b 669 1330 607 1312 633 1330 b 770 1227 731 1330 770 1282 b 663 1126 770 1172 729 1126 b 560 1214 601 1126 560 1165 "},"Ụ":{"ha":861,"x_min":0,"x_max":0,"o":"m 336 -16 b 93 385 113 -16 58 172 b 167 842 120 559 147 724 b 138 920 146 858 138 892 b 236 1031 138 977 170 1031 b 319 890 294 1031 335 990 b 240 405 301 776 270 600 b 349 125 215 243 233 125 b 555 413 451 125 518 219 b 644 942 593 592 627 823 b 725 1042 655 1013 682 1042 b 792 939 781 1042 800 994 b 694 351 766 744 728 497 b 336 -16 640 118 532 -16 m 307 -369 b 238 -328 278 -369 251 -353 b 185 -257 205 -326 185 -300 b 302 -150 185 -191 240 -150 b 419 -256 366 -150 419 -192 b 307 -369 419 -327 360 -369 "},"Ù":{"ha":861,"x_min":0,"x_max":0,"o":"m 336 -16 b 93 385 113 -16 58 172 b 167 842 120 559 147 724 b 138 920 146 858 138 892 b 236 1031 138 977 170 1031 b 319 890 294 1031 335 990 b 240 405 301 776 270 600 b 349 125 215 243 233 125 b 555 413 451 125 518 219 b 644 942 593 592 627 823 b 725 1042 655 1013 682 1042 b 792 939 781 1042 800 994 b 694 351 766 744 728 497 b 336 -16 640 118 532 -16 m 520 1131 b 444 1126 497 1106 468 1115 b 328 1208 402 1145 355 1179 b 334 1301 301 1238 303 1271 b 435 1295 365 1331 410 1337 b 515 1208 456 1264 485 1232 b 520 1131 544 1183 544 1156 "},"Ű":{"ha":861,"x_min":0,"x_max":0,"o":"m 336 -16 b 93 385 113 -16 58 172 b 167 842 120 559 147 724 b 138 920 146 858 138 892 b 236 1031 138 977 170 1031 b 319 890 294 1031 335 990 b 240 405 301 776 270 600 b 349 125 215 243 233 125 b 555 413 451 125 518 219 b 644 942 593 592 627 823 b 725 1042 655 1013 682 1042 b 792 939 781 1042 800 994 b 694 351 766 744 728 497 b 336 -16 640 118 532 -16 m 312 1144 b 313 1203 292 1163 293 1183 b 383 1294 339 1228 367 1263 b 474 1303 400 1326 440 1331 b 483 1213 506 1276 507 1240 b 382 1137 458 1185 419 1155 b 312 1144 357 1126 333 1122 m 579 1146 b 579 1209 559 1167 559 1190 b 649 1297 605 1234 633 1267 b 747 1307 667 1333 710 1339 b 756 1217 779 1281 783 1247 b 652 1137 731 1189 690 1155 b 579 1146 627 1126 603 1121 "},"Ū":{"ha":861,"x_min":0,"x_max":0,"o":"m 336 -16 b 93 385 113 -16 58 172 b 167 842 120 559 147 724 b 138 920 146 858 138 892 b 236 1031 138 977 170 1031 b 319 890 294 1031 335 990 b 240 405 301 776 270 600 b 349 125 215 243 233 125 b 555 413 451 125 518 219 b 644 942 593 592 627 823 b 725 1042 655 1013 682 1042 b 792 939 781 1042 800 994 b 694 351 766 744 728 497 b 336 -16 640 118 532 -16 m 312 1185 b 258 1234 281 1186 258 1206 b 310 1284 257 1262 279 1283 l 659 1299 b 713 1245 690 1301 713 1279 b 660 1188 714 1210 691 1188 l 312 1185 "},"Ų":{"ha":861,"x_min":0,"x_max":0,"o":"m 360 -296 b 207 -169 252 -290 207 -235 b 306 -15 207 -119 238 -69 b 93 385 108 1 59 181 b 167 842 120 559 147 724 b 138 920 146 858 138 892 b 236 1031 138 977 170 1031 b 319 890 294 1031 335 990 b 240 405 301 776 270 600 b 349 125 215 243 233 125 b 555 413 451 125 518 219 b 644 942 593 592 627 823 b 725 1042 655 1013 682 1042 b 792 939 781 1042 800 994 b 694 351 766 744 728 497 b 439 -1 651 163 572 39 b 340 -135 379 -47 340 -88 b 399 -195 340 -171 363 -187 b 438 -250 428 -201 443 -221 b 360 -296 431 -281 409 -299 "},"Ů":{"ha":861,"x_min":0,"x_max":0,"o":"m 336 -16 b 93 385 113 -16 58 172 b 167 842 120 559 147 724 b 138 920 146 858 138 892 b 236 1031 138 977 170 1031 b 319 890 294 1031 335 990 b 240 405 301 776 270 600 b 349 125 215 243 233 125 b 555 413 451 125 518 219 b 644 942 593 592 627 823 b 725 1042 655 1013 682 1042 b 792 939 781 1042 800 994 b 694 351 766 744 728 497 b 336 -16 640 118 532 -16 m 475 996 b 317 1153 392 996 317 1049 b 511 1358 317 1264 395 1358 b 613 1328 549 1358 589 1348 b 622 1275 628 1316 631 1292 l 619 1272 b 660 1165 640 1252 660 1217 b 475 996 660 1070 585 996 m 412 1163 b 482 1085 412 1115 442 1085 b 567 1156 535 1085 565 1117 b 546 1209 568 1180 557 1198 b 540 1263 534 1222 527 1244 b 512 1267 532 1265 523 1267 b 412 1163 453 1267 412 1213 "},"Ũ":{"ha":861,"x_min":0,"x_max":0,"o":"m 336 -16 b 93 385 113 -16 58 172 b 167 842 120 559 147 724 b 138 920 146 858 138 892 b 236 1031 138 977 170 1031 b 319 890 294 1031 335 990 b 240 405 301 776 270 600 b 349 125 215 243 233 125 b 555 413 451 125 518 219 b 644 942 593 592 627 823 b 725 1042 655 1013 682 1042 b 792 939 781 1042 800 994 b 694 351 766 744 728 497 b 336 -16 640 118 532 -16 m 596 1124 b 392 1211 483 1124 454 1211 b 324 1166 364 1211 338 1194 b 259 1134 310 1137 291 1124 b 222 1211 224 1145 204 1169 b 379 1315 249 1274 308 1315 b 583 1225 490 1315 517 1225 b 648 1281 612 1225 635 1242 b 714 1313 658 1308 677 1324 b 749 1242 749 1303 760 1280 b 596 1124 728 1164 672 1124 "},"V":{"ha":861,"x_min":0,"x_max":0,"o":"m 335 -18 b 215 166 262 -18 220 43 b 165 835 210 325 187 648 b 116 922 136 856 116 885 b 199 1006 116 970 151 1006 b 296 897 248 1006 285 971 b 341 144 320 745 347 367 l 365 138 b 647 893 458 335 588 655 b 633 949 637 908 633 928 b 717 1043 633 1015 672 1043 b 790 909 771 1043 810 1003 b 494 125 763 755 594 306 b 335 -18 449 38 413 -18 "},"W":{"ha":861,"x_min":0,"x_max":0,"o":"m 151 -17 b 63 122 84 -17 55 41 b 102 838 80 296 105 640 b 56 932 72 853 56 892 b 140 1022 56 989 94 1022 b 228 885 206 1022 228 958 b 179 253 228 713 208 427 l 202 244 b 338 685 264 423 307 578 b 435 798 363 773 392 798 b 518 697 486 798 510 761 b 532 298 530 588 533 441 l 555 289 b 672 951 597 503 646 785 b 742 1039 681 1009 700 1039 b 799 933 792 1039 809 998 b 648 133 778 771 697 309 b 535 -1 619 29 582 -1 b 451 121 481 -1 454 39 b 433 568 449 244 442 451 l 412 578 b 259 88 376 442 313 227 b 151 -17 232 16 201 -17 "},"Ẃ":{"ha":861,"x_min":0,"x_max":0,"o":"m 151 -17 b 63 122 84 -17 55 41 b 102 838 80 296 105 640 b 56 932 72 853 56 892 b 140 1022 56 989 94 1022 b 228 885 206 1022 228 958 b 179 253 228 713 208 427 l 202 244 b 338 685 264 423 307 578 b 435 798 363 773 392 798 b 518 697 486 798 510 761 b 532 298 530 588 533 441 l 555 289 b 672 951 597 503 646 785 b 742 1039 681 1009 700 1039 b 799 933 792 1039 809 998 b 648 133 778 771 697 309 b 535 -1 619 29 582 -1 b 451 121 481 -1 454 39 b 433 568 449 244 442 451 l 412 578 b 259 88 376 442 313 227 b 151 -17 232 16 201 -17 m 396 1131 b 472 1126 419 1106 448 1115 b 588 1208 514 1145 561 1179 b 582 1301 615 1238 613 1271 b 481 1295 551 1331 506 1337 b 401 1208 460 1264 431 1232 b 396 1131 372 1183 372 1156 "},"Ŵ":{"ha":861,"x_min":0,"x_max":0,"o":"m 151 -17 b 63 122 84 -17 55 41 b 102 838 80 296 105 640 b 56 932 72 853 56 892 b 140 1022 56 989 94 1022 b 228 885 206 1022 228 958 b 179 253 228 713 208 427 l 202 244 b 338 685 264 423 307 578 b 435 798 363 773 392 798 b 518 697 486 798 510 761 b 532 298 530 588 533 441 l 555 289 b 672 951 597 503 646 785 b 742 1039 681 1009 700 1039 b 799 933 792 1039 809 998 b 648 133 778 771 697 309 b 535 -1 619 29 582 -1 b 451 121 481 -1 454 39 b 433 568 449 244 442 451 l 412 578 b 259 88 376 442 313 227 b 151 -17 232 16 201 -17 m 193 1139 b 192 1231 170 1159 165 1202 b 282 1241 217 1257 257 1258 b 376 1313 318 1262 349 1286 b 515 1318 417 1349 471 1344 b 632 1213 562 1289 598 1258 b 628 1137 655 1184 649 1156 b 548 1147 605 1117 574 1118 b 450 1242 515 1185 486 1213 b 305 1139 404 1199 347 1159 b 193 1139 264 1119 219 1115 "},"Ẅ":{"ha":861,"x_min":0,"x_max":0,"o":"m 151 -17 b 63 122 84 -17 55 41 b 102 838 80 296 105 640 b 56 932 72 853 56 892 b 140 1022 56 989 94 1022 b 228 885 206 1022 228 958 b 179 253 228 713 208 427 l 202 244 b 338 685 264 423 307 578 b 435 798 363 773 392 798 b 518 697 486 798 510 761 b 532 298 530 588 533 441 l 555 289 b 672 951 597 503 646 785 b 742 1039 681 1009 700 1039 b 799 933 792 1039 809 998 b 648 133 778 771 697 309 b 535 -1 619 29 582 -1 b 451 121 481 -1 454 39 b 433 568 449 244 442 451 l 412 578 b 259 88 376 442 313 227 b 151 -17 232 16 201 -17 m 250 1130 b 191 1166 226 1130 203 1143 b 146 1228 163 1167 146 1190 b 247 1322 146 1285 194 1322 b 347 1228 301 1322 347 1285 b 250 1130 347 1167 296 1130 m 506 1214 b 548 1282 506 1246 522 1269 b 615 1330 553 1312 578 1330 b 715 1227 676 1330 715 1282 b 608 1126 715 1172 675 1126 b 506 1214 546 1126 506 1165 "},"Ẁ":{"ha":861,"x_min":0,"x_max":0,"o":"m 151 -17 b 63 122 84 -17 55 41 b 102 838 80 296 105 640 b 56 932 72 853 56 892 b 140 1022 56 989 94 1022 b 228 885 206 1022 228 958 b 179 253 228 713 208 427 l 202 244 b 338 685 264 423 307 578 b 435 798 363 773 392 798 b 518 697 486 798 510 761 b 532 298 530 588 533 441 l 555 289 b 672 951 597 503 646 785 b 742 1039 681 1009 700 1039 b 799 933 792 1039 809 998 b 648 133 778 771 697 309 b 535 -1 619 29 582 -1 b 451 121 481 -1 454 39 b 433 568 449 244 442 451 l 412 578 b 259 88 376 442 313 227 b 151 -17 232 16 201 -17 m 466 1131 b 389 1126 442 1106 413 1115 b 274 1208 348 1145 300 1179 b 280 1301 246 1238 249 1271 b 381 1295 310 1331 355 1337 b 460 1208 401 1264 431 1232 b 466 1131 490 1183 490 1156 "},"X":{"ha":861,"x_min":0,"x_max":0,"o":"m 113 -4 b 113 117 78 19 75 60 b 304 413 142 158 218 276 b 166 907 215 578 166 756 b 259 1019 166 976 205 1019 b 341 931 311 1019 341 981 b 308 860 341 904 332 876 b 393 553 317 763 346 656 b 639 951 503 729 610 901 b 744 1031 668 1001 705 1031 b 823 950 786 1031 823 1001 b 737 855 823 903 788 855 b 467 416 674 752 567 578 b 750 119 538 303 633 200 b 772 15 785 95 803 56 b 651 18 742 -24 699 -12 b 384 283 547 88 457 181 b 224 33 311 167 250 71 b 113 -4 191 -12 150 -28 "},"Y":{"ha":861,"x_min":0,"x_max":0,"o":"m 374 -15 b 307 59 334 -15 302 21 l 344 369 b 282 488 324 392 306 431 b 155 847 248 577 197 722 b 103 935 124 861 103 895 b 181 1017 103 984 133 1017 b 272 926 220 1017 251 993 b 411 506 308 808 370 626 l 435 499 b 637 903 499 619 574 767 b 622 956 627 917 622 937 b 708 1042 622 1003 653 1042 b 783 961 749 1042 783 1018 b 754 855 783 930 772 897 b 547 458 705 740 614 565 b 484 372 524 422 505 392 l 448 51 b 374 -15 443 13 412 -15 "},"Ý":{"ha":861,"x_min":0,"x_max":0,"o":"m 374 -15 b 307 59 334 -15 302 21 l 344 369 b 282 488 324 392 306 431 b 155 847 248 577 197 722 b 103 935 124 861 103 895 b 181 1017 103 984 133 1017 b 272 926 220 1017 251 993 b 411 506 308 808 370 626 l 435 499 b 637 903 499 619 574 767 b 622 956 627 917 622 937 b 708 1042 622 1003 653 1042 b 783 961 749 1042 783 1018 b 754 855 783 930 772 897 b 547 458 705 740 614 565 b 484 372 524 422 505 392 l 448 51 b 374 -15 443 13 412 -15 m 399 1131 b 476 1126 423 1106 451 1115 b 592 1208 517 1145 565 1179 b 585 1301 619 1238 617 1271 b 485 1295 555 1331 510 1337 b 405 1208 464 1264 434 1232 b 399 1131 376 1183 375 1156 "},"Ŷ":{"ha":861,"x_min":0,"x_max":0,"o":"m 374 -15 b 307 59 334 -15 302 21 l 344 369 b 282 488 324 392 306 431 b 155 847 248 577 197 722 b 103 935 124 861 103 895 b 181 1017 103 984 133 1017 b 272 926 220 1017 251 993 b 411 506 308 808 370 626 l 435 499 b 637 903 499 619 574 767 b 622 956 627 917 622 937 b 708 1042 622 1003 653 1042 b 783 961 749 1042 783 1018 b 754 855 783 930 772 897 b 547 458 705 740 614 565 b 484 372 524 422 505 392 l 448 51 b 374 -15 443 13 412 -15 m 197 1139 b 195 1231 174 1159 169 1202 b 285 1241 221 1257 260 1258 b 380 1313 322 1262 352 1286 b 518 1318 421 1349 474 1344 b 635 1213 565 1289 601 1258 b 631 1137 658 1184 652 1156 b 551 1147 608 1117 577 1118 b 453 1242 519 1185 490 1213 b 308 1139 408 1199 351 1159 b 197 1139 267 1119 223 1115 "},"Ÿ":{"ha":861,"x_min":0,"x_max":0,"o":"m 374 -15 b 307 59 334 -15 302 21 l 344 369 b 282 488 324 392 306 431 b 155 847 248 577 197 722 b 103 935 124 861 103 895 b 181 1017 103 984 133 1017 b 272 926 220 1017 251 993 b 411 506 308 808 370 626 l 435 499 b 637 903 499 619 574 767 b 622 956 627 917 622 937 b 708 1042 622 1003 653 1042 b 783 961 749 1042 783 1018 b 754 855 783 930 772 897 b 547 458 705 740 614 565 b 484 372 524 422 505 392 l 448 51 b 374 -15 443 13 412 -15 m 253 1130 b 194 1166 229 1130 207 1143 b 149 1228 167 1167 149 1190 b 250 1322 149 1285 197 1322 b 350 1228 304 1322 350 1285 b 253 1130 350 1167 299 1130 m 509 1214 b 551 1282 509 1246 526 1269 b 619 1330 556 1312 582 1330 b 719 1227 679 1330 719 1282 b 611 1126 719 1172 678 1126 b 509 1214 549 1126 509 1165 "},"Ỳ":{"ha":861,"x_min":0,"x_max":0,"o":"m 374 -15 b 307 59 334 -15 302 21 l 344 369 b 282 488 324 392 306 431 b 155 847 248 577 197 722 b 103 935 124 861 103 895 b 181 1017 103 984 133 1017 b 272 926 220 1017 251 993 b 411 506 308 808 370 626 l 435 499 b 637 903 499 619 574 767 b 622 956 627 917 622 937 b 708 1042 622 1003 653 1042 b 783 961 749 1042 783 1018 b 754 855 783 930 772 897 b 547 458 705 740 614 565 b 484 372 524 422 505 392 l 448 51 b 374 -15 443 13 412 -15 m 469 1131 b 392 1126 445 1106 417 1115 b 277 1208 351 1145 303 1179 b 283 1301 249 1238 252 1271 b 384 1295 314 1331 358 1337 b 463 1208 404 1264 435 1232 b 469 1131 493 1183 494 1156 "},"Ȳ":{"ha":861,"x_min":0,"x_max":0,"o":"m 374 -15 b 307 59 334 -15 302 21 l 344 369 b 282 488 324 392 306 431 b 155 847 248 577 197 722 b 103 935 124 861 103 895 b 181 1017 103 984 133 1017 b 272 926 220 1017 251 993 b 411 506 308 808 370 626 l 435 499 b 637 903 499 619 574 767 b 622 956 627 917 622 937 b 708 1042 622 1003 653 1042 b 783 961 749 1042 783 1018 b 754 855 783 930 772 897 b 547 458 705 740 614 565 b 484 372 524 422 505 392 l 448 51 b 374 -15 443 13 412 -15 m 260 1185 b 206 1234 230 1186 207 1206 b 259 1284 206 1262 228 1283 l 608 1299 b 662 1245 638 1301 661 1279 b 610 1188 663 1210 640 1188 l 260 1185 "},"Ỹ":{"ha":861,"x_min":0,"x_max":0,"o":"m 374 -15 b 307 59 334 -15 302 21 l 344 369 b 282 488 324 392 306 431 b 155 847 248 577 197 722 b 103 935 124 861 103 895 b 181 1017 103 984 133 1017 b 272 926 220 1017 251 993 b 411 506 308 808 370 626 l 435 499 b 637 903 499 619 574 767 b 622 956 627 917 622 937 b 708 1042 622 1003 653 1042 b 783 961 749 1042 783 1018 b 754 855 783 930 772 897 b 547 458 705 740 614 565 b 484 372 524 422 505 392 l 448 51 b 374 -15 443 13 412 -15 m 545 1124 b 341 1211 432 1124 403 1211 b 273 1166 313 1211 286 1194 b 208 1134 258 1137 240 1124 b 172 1211 174 1145 153 1169 b 328 1315 199 1274 257 1315 b 531 1225 439 1315 467 1225 b 597 1281 560 1225 584 1242 b 663 1313 608 1308 626 1324 b 699 1242 699 1303 710 1280 b 545 1124 677 1164 621 1124 "},"Z":{"ha":861,"x_min":0,"x_max":0,"o":"m 183 -12 b 60 90 103 -12 60 30 b 132 248 60 148 98 206 b 622 878 213 350 516 742 l 608 894 b 236 840 467 860 303 840 b 118 933 172 840 118 878 b 211 1022 118 981 151 1022 b 301 976 253 1022 285 1003 b 685 1024 417 988 596 1024 b 793 940 745 1024 793 999 b 699 756 793 899 763 838 b 228 140 578 597 299 229 l 236 119 b 697 180 390 138 597 165 b 767 117 735 184 767 160 b 692 42 767 74 738 51 b 183 -12 599 23 273 -12 "},"Ź":{"ha":861,"x_min":0,"x_max":0,"o":"m 183 -12 b 60 90 103 -12 60 30 b 132 248 60 148 98 206 b 622 878 213 350 516 742 l 608 894 b 236 840 467 860 303 840 b 118 933 172 840 118 878 b 211 1022 118 981 151 1022 b 301 976 253 1022 285 1003 b 685 1024 417 988 596 1024 b 793 940 745 1024 793 999 b 699 756 793 899 763 838 b 228 140 578 597 299 229 l 236 119 b 697 180 390 138 597 165 b 767 117 735 184 767 160 b 692 42 767 74 738 51 b 183 -12 599 23 273 -12 m 424 1131 b 500 1126 447 1106 476 1115 b 616 1208 542 1145 589 1179 b 610 1301 643 1238 641 1271 b 509 1295 579 1331 534 1337 b 429 1208 488 1264 458 1232 b 424 1131 400 1183 399 1156 "},"Ž":{"ha":861,"x_min":0,"x_max":0,"o":"m 183 -12 b 60 90 103 -12 60 30 b 132 248 60 148 98 206 b 622 878 213 350 516 742 l 608 894 b 236 840 467 860 303 840 b 118 933 172 840 118 878 b 211 1022 118 981 151 1022 b 301 976 253 1022 285 1003 b 685 1024 417 988 596 1024 b 793 940 745 1024 793 999 b 699 756 793 899 763 838 b 228 140 578 597 299 229 l 236 119 b 697 180 390 138 597 165 b 767 117 735 184 767 160 b 692 42 767 74 738 51 b 183 -12 599 23 273 -12 m 221 1313 b 219 1222 198 1292 193 1249 b 310 1210 245 1194 284 1194 b 404 1139 346 1190 376 1165 b 542 1133 445 1102 499 1108 b 660 1239 590 1163 626 1194 b 656 1315 683 1268 676 1297 b 576 1304 633 1335 601 1333 b 478 1210 542 1266 514 1238 b 333 1313 432 1253 375 1292 b 221 1313 292 1333 247 1337 "},"Ż":{"ha":861,"x_min":0,"x_max":0,"o":"m 183 -12 b 60 90 103 -12 60 30 b 132 248 60 148 98 206 b 622 878 213 350 516 742 l 608 894 b 236 840 467 860 303 840 b 118 933 172 840 118 878 b 211 1022 118 981 151 1022 b 301 976 253 1022 285 1003 b 685 1024 417 988 596 1024 b 793 940 745 1024 793 999 b 699 756 793 899 763 838 b 228 140 578 597 299 229 l 236 119 b 697 180 390 138 597 165 b 767 117 735 184 767 160 b 692 42 767 74 738 51 b 183 -12 599 23 273 -12 m 459 1130 b 399 1166 435 1130 412 1143 b 353 1228 371 1167 353 1190 b 456 1322 353 1285 401 1322 b 558 1228 511 1322 558 1285 b 459 1130 558 1167 506 1130 "},"a":{"ha":861,"x_min":0,"x_max":0,"o":"m 261 -16 b 64 238 167 -16 64 59 b 454 723 64 518 263 723 b 647 642 535 723 615 693 l 647 648 b 730 738 658 709 684 742 b 781 631 776 733 791 699 b 715 158 760 497 735 317 b 765 69 747 145 765 108 b 677 -17 765 19 729 -17 b 578 115 613 -17 578 39 b 590 263 578 151 583 203 l 572 263 b 261 -16 496 85 376 -16 m 201 260 b 292 113 201 178 226 113 b 597 509 381 113 519 282 l 593 509 b 512 590 551 509 522 542 b 462 597 497 594 481 597 b 201 260 322 597 201 426 "},"á":{"ha":861,"x_min":0,"x_max":0,"o":"m 261 -16 b 64 238 167 -16 64 59 b 454 723 64 518 263 723 b 647 642 535 723 615 693 l 647 648 b 730 738 658 709 684 742 b 781 631 776 733 791 699 b 715 158 760 497 735 317 b 765 69 747 145 765 108 b 677 -17 765 19 729 -17 b 578 115 613 -17 578 39 b 590 263 578 151 583 203 l 572 263 b 261 -16 496 85 376 -16 m 477 874 b 557 894 506 855 529 868 b 674 1041 606 939 647 991 b 648 1139 696 1083 685 1116 b 550 1113 610 1160 565 1160 b 464 952 529 1059 500 1001 b 477 874 442 920 448 892 m 201 260 b 292 113 201 178 226 113 b 597 509 381 113 519 282 l 593 509 b 512 590 551 509 522 542 b 462 597 497 594 481 597 b 201 260 322 597 201 426 "},"ă":{"ha":861,"x_min":0,"x_max":0,"o":"m 261 -16 b 64 238 167 -16 64 59 b 454 723 64 518 263 723 b 647 642 535 723 615 693 l 647 648 b 730 738 658 709 684 742 b 781 631 776 733 791 699 b 715 158 760 497 735 317 b 765 69 747 145 765 108 b 677 -17 765 19 729 -17 b 578 115 613 -17 578 39 b 590 263 578 151 583 203 l 572 263 b 261 -16 496 85 376 -16 m 506 879 b 287 1050 373 879 299 946 b 334 1118 281 1093 303 1117 b 394 1065 367 1120 384 1100 b 506 981 405 1015 440 981 b 618 1076 569 981 606 1015 b 677 1128 628 1110 644 1131 b 724 1063 708 1127 730 1103 b 506 879 712 946 635 879 m 201 260 b 292 113 201 178 226 113 b 597 509 381 113 519 282 l 593 509 b 512 590 551 509 522 542 b 462 597 497 594 481 597 b 201 260 322 597 201 426 "},"â":{"ha":861,"x_min":0,"x_max":0,"o":"m 261 -16 b 64 238 167 -16 64 59 b 454 723 64 518 263 723 b 647 642 535 723 615 693 l 647 648 b 730 738 658 709 684 742 b 781 631 776 733 791 699 b 715 158 760 497 735 317 b 765 69 747 145 765 108 b 677 -17 765 19 729 -17 b 578 115 613 -17 578 39 b 590 263 578 151 583 203 l 572 263 b 261 -16 496 85 376 -16 m 255 897 b 252 1001 228 921 222 970 b 335 1016 276 1026 310 1027 b 442 1110 376 1047 415 1083 b 584 1112 489 1152 542 1147 b 701 973 627 1074 668 1022 b 697 894 721 944 722 915 b 618 900 672 872 638 872 b 516 1032 589 943 554 991 b 362 904 464 981 407 933 b 255 897 326 880 284 871 m 201 260 b 292 113 201 178 226 113 b 597 509 381 113 519 282 l 593 509 b 512 590 551 509 522 542 b 462 597 497 594 481 597 b 201 260 322 597 201 426 "},"ä":{"ha":861,"x_min":0,"x_max":0,"o":"m 261 -16 b 64 238 167 -16 64 59 b 454 723 64 518 263 723 b 647 642 535 723 615 693 l 647 648 b 730 738 658 709 684 742 b 781 631 776 733 791 699 b 715 158 760 497 735 317 b 765 69 747 145 765 108 b 677 -17 765 19 729 -17 b 578 115 613 -17 578 39 b 590 263 578 151 583 203 l 572 263 b 261 -16 496 85 376 -16 m 323 873 b 259 915 297 873 272 888 b 210 985 229 916 210 942 b 319 1092 210 1051 262 1092 b 425 985 377 1092 425 1050 b 323 873 425 915 372 873 m 565 971 b 611 1045 565 1006 583 1032 b 686 1099 617 1080 646 1099 b 797 985 754 1099 797 1046 b 678 873 797 924 753 873 b 565 971 610 873 565 917 m 201 260 b 292 113 201 178 226 113 b 597 509 381 113 519 282 l 593 509 b 512 590 551 509 522 542 b 462 597 497 594 481 597 b 201 260 322 597 201 426 "},"à":{"ha":861,"x_min":0,"x_max":0,"o":"m 261 -16 b 64 238 167 -16 64 59 b 454 723 64 518 263 723 b 647 642 535 723 615 693 l 647 648 b 730 738 658 709 684 742 b 781 631 776 733 791 699 b 715 158 760 497 735 317 b 765 69 747 145 765 108 b 677 -17 765 19 729 -17 b 578 115 613 -17 578 39 b 590 263 578 151 583 203 l 572 263 b 261 -16 496 85 376 -16 m 528 874 b 449 894 499 855 476 868 b 333 1041 400 939 359 991 b 358 1139 310 1083 321 1116 b 456 1113 395 1160 442 1160 b 542 952 477 1059 506 1001 b 528 874 564 920 558 892 m 201 260 b 292 113 201 178 226 113 b 597 509 381 113 519 282 l 593 509 b 512 590 551 509 522 542 b 462 597 497 594 481 597 b 201 260 322 597 201 426 "},"ā":{"ha":861,"x_min":0,"x_max":0,"o":"m 261 -16 b 64 238 167 -16 64 59 b 454 723 64 518 263 723 b 647 642 535 723 615 693 l 647 648 b 730 738 658 709 684 742 b 781 631 776 733 791 699 b 715 158 760 497 735 317 b 765 69 747 145 765 108 b 677 -17 765 19 729 -17 b 578 115 613 -17 578 39 b 590 263 578 151 583 203 l 572 263 b 261 -16 496 85 376 -16 m 329 913 b 275 962 299 914 276 934 b 328 1012 275 990 297 1010 l 676 1027 b 731 973 707 1028 730 1007 b 678 915 731 938 709 915 l 329 913 m 201 260 b 292 113 201 178 226 113 b 597 509 381 113 519 282 l 593 509 b 512 590 551 509 522 542 b 462 597 497 594 481 597 b 201 260 322 597 201 426 "},"ą":{"ha":861,"x_min":0,"x_max":0,"o":"m 261 -16 b 64 238 167 -16 64 59 b 454 723 64 518 263 723 b 647 642 535 723 615 693 l 647 648 b 730 738 658 709 684 742 b 781 631 776 733 791 699 b 715 158 760 497 735 317 b 765 69 747 145 765 108 b 719 -8 765 34 748 6 b 628 -135 664 -51 628 -90 b 687 -195 628 -171 651 -187 b 726 -250 716 -201 731 -221 b 649 -296 719 -281 697 -299 b 495 -169 540 -290 495 -235 b 619 3 495 -113 533 -59 b 578 115 592 26 578 67 b 590 263 578 151 583 203 l 572 263 b 261 -16 496 85 376 -16 m 201 260 b 292 113 201 178 226 113 b 597 509 381 113 519 282 l 593 509 b 512 590 551 509 522 542 b 462 597 497 594 481 597 b 201 260 322 597 201 426 "},"å":{"ha":861,"x_min":0,"x_max":0,"o":"m 261 -16 b 64 238 167 -16 64 59 b 454 723 64 518 263 723 b 647 642 535 723 615 693 l 647 648 b 730 738 658 709 684 742 b 781 631 776 733 791 699 b 715 158 760 497 735 317 b 765 69 747 145 765 108 b 677 -17 765 19 729 -17 b 578 115 613 -17 578 39 b 590 263 578 151 583 203 l 572 263 b 261 -16 496 85 376 -16 m 482 841 b 324 999 400 841 324 894 b 519 1203 324 1109 403 1203 b 620 1174 556 1203 597 1193 b 628 1120 636 1161 639 1138 l 626 1117 b 667 1010 647 1097 667 1063 b 482 841 667 915 592 841 m 201 260 b 292 113 201 178 226 113 b 597 509 381 113 519 282 l 593 509 b 512 590 551 509 522 542 b 462 597 497 594 481 597 b 201 260 322 597 201 426 m 419 1008 b 489 931 419 960 449 931 b 574 1001 542 931 573 963 b 553 1054 576 1025 565 1043 b 547 1108 542 1067 534 1089 b 519 1113 539 1110 530 1113 b 419 1008 460 1113 419 1058 "},"ã":{"ha":861,"x_min":0,"x_max":0,"o":"m 261 -16 b 64 238 167 -16 64 59 b 454 723 64 518 263 723 b 647 642 535 723 615 693 l 647 648 b 730 738 658 709 684 742 b 781 631 776 733 791 699 b 715 158 760 497 735 317 b 765 69 747 145 765 108 b 677 -17 765 19 729 -17 b 578 115 613 -17 578 39 b 590 263 578 151 583 203 l 572 263 b 261 -16 496 85 376 -16 m 614 871 b 406 983 501 871 469 983 b 343 938 378 983 356 967 b 273 901 326 903 306 891 b 237 983 237 911 219 941 b 392 1092 263 1047 319 1092 b 595 990 501 1092 533 990 b 656 1053 624 990 642 1015 b 729 1096 670 1088 692 1106 b 767 1027 761 1088 776 1063 b 614 871 743 926 690 871 m 201 260 b 292 113 201 178 226 113 b 597 509 381 113 519 282 l 593 509 b 512 590 551 509 522 542 b 462 597 497 594 481 597 b 201 260 322 597 201 426 "},"æ":{"ha":861,"x_min":0,"x_max":0,"o":"m 578 -17 b 385 263 467 -17 391 92 l 376 263 b 174 -16 331 85 252 -16 b 38 252 103 -16 38 59 b 294 723 38 525 159 723 b 408 663 338 723 383 701 l 409 669 b 470 737 413 714 438 739 b 515 686 495 735 512 719 b 646 740 551 719 594 740 b 813 517 757 740 813 643 b 715 349 813 415 788 378 b 491 278 657 323 554 294 b 593 103 496 173 528 103 b 714 171 634 103 674 131 b 781 172 733 190 762 197 b 778 87 802 144 799 114 b 578 -17 738 35 664 -17 m 151 261 b 203 120 151 185 165 120 b 376 515 263 120 328 296 b 323 594 346 517 328 542 b 298 599 316 597 308 599 b 151 261 217 599 151 433 m 497 393 b 658 443 549 407 608 424 b 710 526 699 458 710 481 b 638 622 710 576 688 622 b 497 393 567 622 515 511 "},"ǽ":{"ha":861,"x_min":0,"x_max":0,"o":"m 578 -17 b 385 263 467 -17 391 92 l 376 263 b 174 -16 331 85 252 -16 b 38 252 103 -16 38 59 b 294 723 38 525 159 723 b 408 663 338 723 383 701 l 409 669 b 470 737 413 714 438 739 b 515 686 495 735 512 719 b 646 740 551 719 594 740 b 813 517 757 740 813 643 b 715 349 813 415 788 378 b 491 278 657 323 554 294 b 593 103 496 173 528 103 b 714 171 634 103 674 131 b 781 172 733 190 762 197 b 778 87 802 144 799 114 b 578 -17 738 35 664 -17 m 405 874 b 485 894 434 855 457 868 b 601 1041 534 939 574 991 b 576 1139 624 1083 613 1116 b 478 1113 538 1160 492 1160 b 392 952 457 1059 428 1001 b 405 874 369 920 376 892 m 151 261 b 203 120 151 185 165 120 b 376 515 263 120 328 296 b 323 594 346 517 328 542 b 298 599 316 597 308 599 b 151 261 217 599 151 433 m 497 393 b 658 443 549 407 608 424 b 710 526 699 458 710 481 b 638 622 710 576 688 622 b 497 393 567 622 515 511 "},"b":{"ha":861,"x_min":0,"x_max":0,"o":"m 401 -16 b 203 65 321 -16 236 13 b 124 -19 193 15 170 -22 b 71 81 76 -16 63 21 b 170 872 97 263 153 663 b 133 963 147 890 133 925 b 228 1069 133 1028 177 1069 b 317 949 276 1069 317 1042 b 262 447 317 883 291 660 l 281 447 b 592 723 357 624 476 723 b 789 467 692 723 789 651 b 401 -16 789 176 588 -16 m 263 199 b 339 119 308 199 332 170 b 398 110 356 114 376 110 b 653 452 537 110 653 285 b 564 594 653 532 630 594 b 256 199 470 594 333 426 "},"c":{"ha":861,"x_min":0,"x_max":0,"o":"m 433 -16 b 123 308 249 -16 123 105 b 503 742 123 541 278 742 b 714 476 701 742 762 577 b 616 424 690 431 653 410 b 584 517 580 438 569 476 b 503 621 601 572 578 621 b 265 315 368 621 265 468 b 442 113 265 203 330 113 b 629 180 509 113 578 142 b 724 182 666 206 694 211 b 718 86 750 157 751 116 b 433 -16 657 31 551 -16 "},"ć":{"ha":861,"x_min":0,"x_max":0,"o":"m 433 -16 b 123 308 249 -16 123 105 b 503 742 123 541 278 742 b 714 476 701 742 762 577 b 616 424 690 431 653 410 b 584 517 580 438 569 476 b 503 621 601 572 578 621 b 265 315 368 621 265 468 b 442 113 265 203 330 113 b 629 180 509 113 578 142 b 724 182 666 206 694 211 b 718 86 750 157 751 116 b 433 -16 657 31 551 -16 m 494 874 b 574 894 523 855 546 868 b 690 1041 623 939 663 991 b 665 1139 713 1083 701 1116 b 567 1113 627 1160 581 1160 b 481 952 546 1059 517 1001 b 494 874 458 920 465 892 "},"č":{"ha":861,"x_min":0,"x_max":0,"o":"m 433 -16 b 123 308 249 -16 123 105 b 503 742 123 541 278 742 b 714 476 701 742 762 577 b 616 424 690 431 653 410 b 584 517 580 438 569 476 b 503 621 601 572 578 621 b 265 315 368 621 265 468 b 442 113 265 203 330 113 b 629 180 509 113 578 142 b 724 182 666 206 694 211 b 718 86 750 157 751 116 b 433 -16 657 31 551 -16 m 281 1113 b 278 1009 254 1090 248 1040 b 360 994 301 985 335 983 b 468 900 402 963 441 927 b 610 899 515 858 567 863 b 727 1038 653 936 694 989 b 723 1117 747 1066 747 1095 b 644 1110 699 1139 665 1139 b 542 978 615 1067 580 1019 b 388 1106 490 1028 433 1077 b 281 1113 352 1131 310 1140 "},"ç":{"ha":861,"x_min":0,"x_max":0,"o":"m 123 308 b 503 742 123 541 278 742 b 714 476 701 742 762 577 b 616 424 690 431 653 410 b 584 517 580 438 569 476 b 503 621 601 572 578 621 b 265 315 368 621 265 468 b 442 113 265 203 330 113 b 629 180 509 113 578 142 b 724 182 666 206 694 211 b 718 86 750 157 751 116 b 458 -15 661 35 566 -9 b 458 -44 459 -24 459 -33 b 428 -183 453 -91 444 -135 b 337 -232 414 -232 378 -245 b 296 -133 296 -219 267 -182 b 352 -14 315 -100 339 -53 l 354 -8 b 123 308 215 22 123 135 "},"ĉ":{"ha":861,"x_min":0,"x_max":0,"o":"m 433 -16 b 123 308 249 -16 123 105 b 503 742 123 541 278 742 b 714 476 701 742 762 577 b 616 424 690 431 653 410 b 584 517 580 438 569 476 b 503 621 601 572 578 621 b 265 315 368 621 265 468 b 442 113 265 203 330 113 b 629 180 509 113 578 142 b 724 182 666 206 694 211 b 718 86 750 157 751 116 b 433 -16 657 31 551 -16 m 272 897 b 269 1001 245 921 239 970 b 351 1016 292 1026 326 1027 b 458 1110 392 1047 431 1083 b 601 1112 506 1152 558 1147 b 717 973 644 1074 685 1022 b 713 894 738 944 738 915 b 635 900 689 872 655 872 b 533 1032 606 943 571 991 b 378 904 481 981 424 933 b 272 897 343 880 301 871 "},"ċ":{"ha":861,"x_min":0,"x_max":0,"o":"m 433 -16 b 123 308 249 -16 123 105 b 503 742 123 541 278 742 b 714 476 701 742 762 577 b 616 424 690 431 653 410 b 584 517 580 438 569 476 b 503 621 601 572 578 621 b 265 315 368 621 265 468 b 442 113 265 203 330 113 b 629 180 509 113 578 142 b 724 182 666 206 694 211 b 718 86 750 157 751 116 b 433 -16 657 31 551 -16 m 523 874 b 453 916 494 874 467 890 b 401 986 420 917 401 944 b 518 1094 401 1053 456 1094 b 634 987 582 1094 634 1052 b 523 874 634 917 576 874 "},"d":{"ha":861,"x_min":0,"x_max":0,"o":"m 265 -16 b 64 240 165 -16 64 57 b 463 723 64 531 271 723 b 641 656 533 723 605 699 b 660 856 649 728 656 797 b 620 956 632 876 620 915 b 719 1063 620 1027 666 1063 b 806 943 772 1063 806 1027 b 719 163 806 783 742 393 b 769 81 755 152 769 117 b 678 -17 769 21 731 -17 b 584 124 610 -17 584 43 b 593 263 584 161 588 208 l 572 263 b 265 -16 496 85 376 -16 m 199 261 b 290 110 199 174 228 110 b 598 509 389 110 520 282 l 590 509 b 514 590 544 509 520 538 b 463 599 498 596 481 599 b 199 261 314 599 199 427 "},"ď":{"ha":861,"x_min":0,"x_max":0,"o":"m 231 -16 b 64 252 145 -16 64 54 b 398 723 64 521 215 723 b 544 663 456 723 513 701 b 564 862 553 734 560 803 b 531 956 541 882 531 917 b 622 1063 531 1028 571 1063 b 701 943 671 1063 701 1027 b 610 163 701 797 636 397 b 660 74 646 151 660 114 b 574 -17 660 19 623 -17 b 485 124 511 -17 485 43 b 494 263 485 161 489 208 l 477 263 b 231 -16 414 102 329 -16 m 871 899 b 829 966 840 903 825 928 b 828 1099 833 1008 831 1060 b 899 1167 824 1155 861 1173 b 957 1088 938 1162 963 1134 b 928 949 953 1037 942 993 b 871 899 917 914 902 894 m 198 256 b 266 113 198 181 216 113 b 503 510 338 113 430 282 l 494 509 b 418 593 448 509 424 539 b 391 597 410 596 401 597 b 198 256 289 597 198 433 "},"đ":{"ha":861,"x_min":0,"x_max":0,"o":"m 261 -16 b 64 233 165 -16 64 53 b 458 685 64 489 249 685 b 635 623 523 685 595 663 b 652 781 642 678 648 731 l 400 771 b 333 828 358 769 334 797 b 396 888 332 860 357 887 l 636 894 b 626 956 629 913 626 933 b 725 1063 626 1028 675 1063 b 806 943 775 1063 806 1027 l 805 898 b 855 843 836 894 854 870 b 797 779 856 810 836 781 l 794 779 b 715 163 773 594 731 333 b 765 74 751 151 765 114 b 680 -17 765 19 728 -17 b 580 124 606 -17 580 43 b 589 263 580 161 583 208 l 572 263 b 261 -16 496 85 376 -16 m 199 247 b 288 113 199 170 228 113 b 591 471 380 113 512 264 l 590 471 b 514 551 544 471 521 499 b 458 559 498 556 480 559 b 199 247 314 559 199 403 "},"ð":{"ha":861,"x_min":0,"x_max":0,"o":"m 408 -16 b 108 298 237 -16 108 106 b 499 705 108 533 288 705 l 517 704 b 405 827 485 748 448 790 l 269 761 b 184 785 233 744 200 757 b 214 866 169 813 180 849 l 295 906 l 280 915 b 224 1032 231 944 199 988 b 342 1042 249 1074 295 1073 b 438 975 376 1021 408 999 l 586 1048 b 673 1027 624 1067 658 1053 b 647 938 690 998 686 958 l 540 885 b 765 392 688 734 765 555 b 408 -16 765 159 615 -16 m 249 310 b 419 109 249 202 315 109 b 633 389 538 109 633 241 b 597 558 633 441 621 499 b 506 582 572 570 544 582 b 249 310 357 582 249 451 "},"e":{"ha":861,"x_min":0,"x_max":0,"o":"m 416 -17 b 121 251 251 -17 134 88 b 47 303 77 247 50 269 b 110 374 42 340 65 367 l 128 376 b 506 740 160 565 290 740 b 751 511 663 740 751 644 b 613 349 751 417 716 376 b 260 275 549 331 384 298 b 421 108 269 172 320 108 b 614 173 495 108 558 132 b 701 178 644 196 669 208 b 699 87 730 150 728 114 b 416 -17 643 35 540 -17 m 270 399 b 553 452 374 417 494 438 b 626 524 610 465 626 492 b 510 616 626 574 592 616 b 270 399 384 616 299 513 "},"é":{"ha":861,"x_min":0,"x_max":0,"o":"m 416 -17 b 121 251 251 -17 134 88 b 47 303 77 247 50 269 b 110 374 42 340 65 367 l 128 376 b 506 740 160 565 290 740 b 751 511 663 740 751 644 b 613 349 751 417 716 376 b 260 275 549 331 384 298 b 421 108 269 172 320 108 b 614 173 495 108 558 132 b 701 178 644 196 669 208 b 699 87 730 150 728 114 b 416 -17 643 35 540 -17 m 485 874 b 565 894 515 855 538 868 b 682 1041 615 939 655 991 b 656 1139 704 1083 693 1116 b 558 1113 619 1160 573 1160 b 472 952 538 1059 508 1001 b 485 874 450 920 456 892 m 270 399 b 553 452 374 417 494 438 b 626 524 610 465 626 492 b 510 616 626 574 592 616 b 270 399 384 616 299 513 "},"ĕ":{"ha":861,"x_min":0,"x_max":0,"o":"m 416 -17 b 121 251 251 -17 134 88 b 47 303 77 247 50 269 b 110 374 42 340 65 367 l 128 376 b 506 740 160 565 290 740 b 751 511 663 740 751 644 b 613 349 751 417 716 376 b 260 275 549 331 384 298 b 421 108 269 172 320 108 b 614 173 495 108 558 132 b 701 178 644 196 669 208 b 699 87 730 150 728 114 b 416 -17 643 35 540 -17 m 514 879 b 295 1050 381 879 307 946 b 342 1118 289 1093 311 1117 b 402 1065 375 1120 392 1100 b 514 981 413 1015 448 981 b 626 1076 577 981 615 1015 b 685 1128 636 1110 653 1131 b 733 1063 717 1127 738 1103 b 514 879 720 946 643 879 m 270 399 b 553 452 374 417 494 438 b 626 524 610 465 626 492 b 510 616 626 574 592 616 b 270 399 384 616 299 513 "},"ě":{"ha":861,"x_min":0,"x_max":0,"o":"m 416 -17 b 121 251 251 -17 134 88 b 47 303 77 247 50 269 b 110 374 42 340 65 367 l 128 376 b 506 740 160 565 290 740 b 751 511 663 740 751 644 b 613 349 751 417 716 376 b 260 275 549 331 384 298 b 421 108 269 172 320 108 b 614 173 495 108 558 132 b 701 178 644 196 669 208 b 699 87 730 150 728 114 b 416 -17 643 35 540 -17 m 272 1113 b 269 1009 246 1090 240 1040 b 352 994 293 985 327 983 b 460 900 394 963 433 927 b 602 899 506 858 559 863 b 719 1038 645 936 686 989 b 715 1117 738 1066 739 1095 b 635 1110 690 1139 656 1139 b 533 978 606 1067 572 1019 b 380 1106 481 1028 424 1077 b 272 1113 344 1131 301 1140 m 270 399 b 553 452 374 417 494 438 b 626 524 610 465 626 492 b 510 616 626 574 592 616 b 270 399 384 616 299 513 "},"ê":{"ha":861,"x_min":0,"x_max":0,"o":"m 416 -17 b 121 251 251 -17 134 88 b 47 303 77 247 50 269 b 110 374 42 340 65 367 l 128 376 b 506 740 160 565 290 740 b 751 511 663 740 751 644 b 613 349 751 417 716 376 b 260 275 549 331 384 298 b 421 108 269 172 320 108 b 614 173 495 108 558 132 b 701 178 644 196 669 208 b 699 87 730 150 728 114 b 416 -17 643 35 540 -17 m 263 897 b 260 1001 237 921 231 970 b 343 1016 284 1026 318 1027 b 450 1110 384 1047 423 1083 b 592 1112 497 1152 550 1147 b 709 973 635 1074 676 1022 b 705 894 729 944 730 915 b 626 900 681 872 647 872 b 524 1032 597 943 563 991 b 370 904 472 981 415 933 b 263 897 335 880 292 871 m 270 399 b 553 452 374 417 494 438 b 626 524 610 465 626 492 b 510 616 626 574 592 616 b 270 399 384 616 299 513 "},"ë":{"ha":861,"x_min":0,"x_max":0,"o":"m 416 -17 b 121 251 251 -17 134 88 b 47 303 77 247 50 269 b 110 374 42 340 65 367 l 128 376 b 506 740 160 565 290 740 b 751 511 663 740 751 644 b 613 349 751 417 716 376 b 260 275 549 331 384 298 b 421 108 269 172 320 108 b 614 173 495 108 558 132 b 701 178 644 196 669 208 b 699 87 730 150 728 114 b 416 -17 643 35 540 -17 m 331 873 b 267 915 305 873 281 888 b 219 985 238 916 219 942 b 327 1092 219 1051 270 1092 b 433 985 385 1092 433 1050 b 331 873 433 915 380 873 m 574 971 b 619 1045 574 1006 592 1032 b 694 1099 625 1080 654 1099 b 806 985 763 1099 806 1046 b 687 873 806 924 761 873 b 574 971 618 873 574 917 m 270 399 b 553 452 374 417 494 438 b 626 524 610 465 626 492 b 510 616 626 574 592 616 b 270 399 384 616 299 513 "},"ė":{"ha":861,"x_min":0,"x_max":0,"o":"m 416 -17 b 121 251 251 -17 134 88 b 47 303 77 247 50 269 b 110 374 42 340 65 367 l 128 376 b 506 740 160 565 290 740 b 751 511 663 740 751 644 b 613 349 751 417 716 376 b 260 275 549 331 384 298 b 421 108 269 172 320 108 b 614 173 495 108 558 132 b 701 178 644 196 669 208 b 699 87 730 150 728 114 b 416 -17 643 35 540 -17 m 515 874 b 445 916 486 874 459 890 b 392 986 412 917 392 944 b 510 1094 392 1053 448 1094 b 626 987 574 1094 626 1052 b 515 874 626 917 567 874 m 270 399 b 553 452 374 417 494 438 b 626 524 610 465 626 492 b 510 616 626 574 592 616 b 270 399 384 616 299 513 "},"ẹ":{"ha":861,"x_min":0,"x_max":0,"o":"m 416 -17 b 121 251 251 -17 134 88 b 47 303 77 247 50 269 b 110 374 42 340 65 367 l 128 376 b 506 740 160 565 290 740 b 751 511 663 740 751 644 b 613 349 751 417 716 376 b 260 275 549 331 384 298 b 421 108 269 172 320 108 b 614 173 495 108 558 132 b 701 178 644 196 669 208 b 699 87 730 150 728 114 b 416 -17 643 35 540 -17 m 408 -369 b 339 -328 380 -369 353 -353 b 286 -257 306 -326 286 -300 b 403 -150 286 -191 342 -150 b 519 -256 467 -150 519 -192 b 408 -369 519 -327 461 -369 m 270 399 b 553 452 374 417 494 438 b 626 524 610 465 626 492 b 510 616 626 574 592 616 b 270 399 384 616 299 513 "},"è":{"ha":861,"x_min":0,"x_max":0,"o":"m 416 -17 b 121 251 251 -17 134 88 b 47 303 77 247 50 269 b 110 374 42 340 65 367 l 128 376 b 506 740 160 565 290 740 b 751 511 663 740 751 644 b 613 349 751 417 716 376 b 260 275 549 331 384 298 b 421 108 269 172 320 108 b 614 173 495 108 558 132 b 701 178 644 196 669 208 b 699 87 730 150 728 114 b 416 -17 643 35 540 -17 m 537 874 b 457 894 508 855 485 868 b 341 1041 408 939 367 991 b 367 1139 319 1083 329 1116 b 465 1113 403 1160 450 1160 b 551 952 485 1059 515 1001 b 537 874 572 920 566 892 m 270 399 b 553 452 374 417 494 438 b 626 524 610 465 626 492 b 510 616 626 574 592 616 b 270 399 384 616 299 513 "},"ē":{"ha":861,"x_min":0,"x_max":0,"o":"m 416 -17 b 121 251 251 -17 134 88 b 47 303 77 247 50 269 b 110 374 42 340 65 367 l 128 376 b 506 740 160 565 290 740 b 751 511 663 740 751 644 b 613 349 751 417 716 376 b 260 275 549 331 384 298 b 421 108 269 172 320 108 b 614 173 495 108 558 132 b 701 178 644 196 669 208 b 699 87 730 150 728 114 b 416 -17 643 35 540 -17 m 338 913 b 283 962 307 914 284 934 b 336 1012 283 990 306 1010 l 685 1027 b 739 973 715 1028 738 1007 b 687 915 740 938 717 915 l 338 913 m 270 399 b 553 452 374 417 494 438 b 626 524 610 465 626 492 b 510 616 626 574 592 616 b 270 399 384 616 299 513 "},"ę":{"ha":861,"x_min":0,"x_max":0,"o":"m 457 -296 b 304 -169 349 -290 304 -235 b 401 -17 304 -119 334 -71 b 121 251 244 -10 133 93 b 47 303 77 247 50 269 b 110 374 42 340 65 367 l 128 376 b 506 740 160 565 290 740 b 751 511 663 740 751 644 b 613 349 751 417 716 376 b 260 275 549 331 384 298 b 421 108 269 172 320 108 b 614 173 495 108 558 132 b 701 178 644 196 669 208 b 699 87 730 150 728 114 b 538 0 663 53 606 19 b 437 -135 476 -47 437 -87 b 496 -195 437 -171 460 -187 b 535 -250 524 -201 540 -221 b 457 -296 528 -281 506 -299 m 270 399 b 553 452 374 417 494 438 b 626 524 610 465 626 492 b 510 616 626 574 592 616 b 270 399 384 616 299 513 "},"ẽ":{"ha":861,"x_min":0,"x_max":0,"o":"m 416 -17 b 121 251 251 -17 134 88 b 47 303 77 247 50 269 b 110 374 42 340 65 367 l 128 376 b 506 740 160 565 290 740 b 751 511 663 740 751 644 b 613 349 751 417 716 376 b 260 275 549 331 384 298 b 421 108 269 172 320 108 b 614 173 495 108 558 132 b 701 178 644 196 669 208 b 699 87 730 150 728 114 b 416 -17 643 35 540 -17 m 622 871 b 415 983 510 871 477 983 b 351 938 387 983 365 967 b 281 901 335 903 314 891 b 245 983 245 911 228 941 b 400 1092 272 1047 328 1092 b 603 990 510 1092 541 990 b 664 1053 632 990 651 1015 b 738 1096 678 1088 701 1106 b 776 1027 769 1088 785 1063 b 622 871 751 926 698 871 m 270 399 b 553 452 374 417 494 438 b 626 524 610 465 626 492 b 510 616 626 574 592 616 b 270 399 384 616 299 513 "},"ə":{"ha":861,"x_min":0,"x_max":0,"o":"m 446 740 b 741 472 611 740 728 635 b 815 419 784 476 811 454 b 752 350 819 383 797 356 l 734 347 b 356 -17 702 158 572 -17 b 110 213 198 -17 110 78 b 249 375 110 307 146 347 b 601 448 313 393 477 426 b 441 615 592 551 542 615 b 248 550 367 615 303 592 b 160 546 217 528 192 516 b 163 637 131 573 133 610 b 446 740 219 688 322 740 m 235 199 b 351 107 235 149 269 107 b 591 324 477 107 562 210 b 309 271 488 306 368 285 b 235 199 251 258 235 232 "},"f":{"ha":861,"x_min":0,"x_max":0,"o":"m 259 -24 b 190 68 210 -24 190 14 b 203 329 190 153 195 242 l 133 321 b 58 383 96 316 62 344 b 119 459 54 421 82 455 l 219 471 b 251 666 228 540 239 606 b 587 1079 303 921 401 1079 b 817 856 751 1079 817 953 b 727 724 817 778 784 724 b 649 806 679 724 649 762 b 694 894 649 840 663 876 b 594 956 678 933 643 956 b 385 659 479 956 417 821 b 356 487 375 607 365 549 l 643 521 b 719 459 681 525 716 497 b 658 382 724 420 696 386 l 340 345 b 325 67 331 253 325 159 b 259 -24 325 13 308 -24 "},"g":{"ha":861,"x_min":0,"x_max":0,"o":"m 353 -296 b 105 -205 245 -296 159 -257 b 99 -106 76 -176 72 -141 b 199 -104 124 -74 163 -78 b 351 -166 241 -137 291 -166 b 560 65 438 -166 522 -98 b 599 276 572 119 586 195 l 579 276 b 281 51 499 117 381 51 b 82 296 190 51 82 124 b 462 723 82 525 242 723 b 647 656 529 723 606 698 b 720 738 656 710 672 738 b 781 638 766 738 787 703 b 700 54 775 517 733 216 b 353 -296 658 -144 551 -296 m 219 313 b 309 176 219 238 244 176 b 594 501 386 176 508 285 b 524 589 556 506 527 538 b 465 599 506 595 485 599 b 219 313 317 599 219 458 "},"ğ":{"ha":861,"x_min":0,"x_max":0,"o":"m 353 -296 b 105 -205 245 -296 159 -257 b 99 -106 76 -176 72 -141 b 199 -104 124 -74 163 -78 b 351 -166 241 -137 291 -166 b 560 65 438 -166 522 -98 b 599 276 572 119 586 195 l 579 276 b 281 51 499 117 381 51 b 82 296 190 51 82 124 b 462 723 82 525 242 723 b 647 656 529 723 606 698 b 720 738 656 710 672 738 b 781 638 766 738 787 703 b 700 54 775 517 733 216 b 353 -296 658 -144 551 -296 m 473 879 b 254 1050 340 879 266 946 b 301 1118 248 1093 270 1117 b 361 1065 334 1120 351 1100 b 473 981 372 1015 407 981 b 585 1076 536 981 574 1015 b 644 1128 595 1110 612 1131 b 692 1063 676 1127 697 1103 b 473 879 679 946 602 879 m 219 313 b 309 176 219 238 244 176 b 594 501 386 176 508 285 b 524 589 556 506 527 538 b 465 599 506 595 485 599 b 219 313 317 599 219 458 "},"ǧ":{"ha":861,"x_min":0,"x_max":0,"o":"m 353 -296 b 105 -205 245 -296 159 -257 b 99 -106 76 -176 72 -141 b 199 -104 124 -74 163 -78 b 351 -166 241 -137 291 -166 b 560 65 438 -166 522 -98 b 599 276 572 119 586 195 l 579 276 b 281 51 499 117 381 51 b 82 296 190 51 82 124 b 462 723 82 525 242 723 b 647 656 529 723 606 698 b 720 738 656 710 672 738 b 781 638 766 738 787 703 b 700 54 775 517 733 216 b 353 -296 658 -144 551 -296 m 231 1113 b 228 1009 205 1090 199 1040 b 311 994 252 985 286 983 b 419 900 353 963 392 927 b 561 899 465 858 518 863 b 678 1038 604 936 645 989 b 674 1117 697 1066 698 1095 b 594 1110 649 1139 615 1139 b 492 978 565 1067 531 1019 b 339 1106 440 1028 383 1077 b 231 1113 303 1131 260 1140 m 219 313 b 309 176 219 238 244 176 b 594 501 386 176 508 285 b 524 589 556 506 527 538 b 465 599 506 595 485 599 b 219 313 317 599 219 458 "},"ĝ":{"ha":861,"x_min":0,"x_max":0,"o":"m 353 -296 b 105 -205 245 -296 159 -257 b 99 -106 76 -176 72 -141 b 199 -104 124 -74 163 -78 b 351 -166 241 -137 291 -166 b 560 65 438 -166 522 -98 b 599 276 572 119 586 195 l 579 276 b 281 51 499 117 381 51 b 82 296 190 51 82 124 b 462 723 82 525 242 723 b 647 656 529 723 606 698 b 720 738 656 710 672 738 b 781 638 766 738 787 703 b 700 54 775 517 733 216 b 353 -296 658 -144 551 -296 m 222 897 b 219 1001 196 921 190 970 b 302 1016 243 1026 277 1027 b 409 1110 343 1047 382 1083 b 551 1112 456 1152 509 1147 b 668 973 594 1074 635 1022 b 664 894 688 944 689 915 b 585 900 640 872 606 872 b 483 1032 556 943 522 991 b 329 904 431 981 374 933 b 222 897 294 880 251 871 m 219 313 b 309 176 219 238 244 176 b 594 501 386 176 508 285 b 524 589 556 506 527 538 b 465 599 506 595 485 599 b 219 313 317 599 219 458 "},"ģ":{"ha":861,"x_min":0,"x_max":0,"o":"m 353 -296 b 105 -205 245 -296 159 -257 b 99 -106 76 -176 72 -141 b 199 -104 124 -74 163 -78 b 351 -166 241 -137 291 -166 b 560 65 438 -166 522 -98 b 599 276 572 119 586 195 l 579 276 b 281 51 499 117 381 51 b 82 296 190 51 82 124 b 462 723 82 525 242 723 b 647 656 529 723 606 698 b 720 738 656 710 672 738 b 781 638 766 738 787 703 b 700 54 775 517 733 216 b 353 -296 658 -144 551 -296 m 524 1247 b 563 1178 556 1242 574 1214 b 531 957 547 1126 529 1043 b 442 887 533 901 489 881 b 374 975 391 894 368 928 b 452 1201 383 1055 423 1150 b 524 1247 470 1233 494 1252 m 219 313 b 309 176 219 238 244 176 b 594 501 386 176 508 285 b 524 589 556 506 527 538 b 465 599 506 595 485 599 b 219 313 317 599 219 458 "},"ġ":{"ha":861,"x_min":0,"x_max":0,"o":"m 353 -296 b 105 -205 245 -296 159 -257 b 99 -106 76 -176 72 -141 b 199 -104 124 -74 163 -78 b 351 -166 241 -137 291 -166 b 560 65 438 -166 522 -98 b 599 276 572 119 586 195 l 579 276 b 281 51 499 117 381 51 b 82 296 190 51 82 124 b 462 723 82 525 242 723 b 647 656 529 723 606 698 b 720 738 656 710 672 738 b 781 638 766 738 787 703 b 700 54 775 517 733 216 b 353 -296 658 -144 551 -296 m 474 874 b 404 916 445 874 418 890 b 351 986 371 917 351 944 b 469 1094 351 1053 407 1094 b 585 987 533 1094 585 1052 b 474 874 585 917 526 874 m 219 313 b 309 176 219 238 244 176 b 594 501 386 176 508 285 b 524 589 556 506 527 538 b 465 599 506 595 485 599 b 219 313 317 599 219 458 "},"h":{"ha":861,"x_min":0,"x_max":0,"o":"m 651 -62 b 556 44 602 -62 568 -23 b 607 578 538 149 556 362 l 592 583 b 312 122 487 442 377 249 b 173 -18 266 35 226 -18 b 128 150 106 -18 109 72 b 251 870 158 269 235 654 b 217 970 230 890 217 928 b 305 1071 217 1034 259 1071 b 391 959 354 1071 391 1028 b 293 357 391 824 326 463 l 316 351 b 532 667 389 479 467 592 b 666 744 569 708 615 744 b 738 576 740 744 758 672 b 679 116 703 416 680 267 b 738 25 717 105 738 66 b 651 -62 738 -27 699 -62 "},"ħ":{"ha":861,"x_min":0,"x_max":0,"o":"m 656 -62 b 554 44 601 -62 566 -23 b 589 534 535 149 541 325 l 576 540 b 312 122 472 405 381 249 b 163 -17 260 28 218 -28 b 128 150 112 -6 104 53 b 239 751 153 249 210 534 l 133 740 b 60 793 92 735 65 761 b 115 864 55 825 76 860 l 244 878 b 217 970 227 899 217 933 b 308 1071 217 1034 260 1071 b 393 959 357 1071 393 1028 b 390 894 393 941 392 919 l 508 906 b 582 857 550 910 576 887 b 526 782 588 824 569 787 l 375 766 b 296 357 353 611 317 428 l 315 351 b 513 624 383 460 450 555 b 679 693 560 675 620 717 b 722 533 727 675 740 619 b 679 115 688 372 681 260 b 738 20 717 103 738 63 b 656 -62 738 -27 700 -62 "},"ĥ":{"ha":861,"x_min":0,"x_max":0,"o":"m 651 -62 b 556 44 602 -62 568 -23 b 607 578 538 149 556 362 l 592 583 b 312 122 487 442 377 249 b 173 -18 266 35 226 -18 b 128 150 106 -18 109 72 b 251 870 158 269 235 654 b 217 970 230 890 217 928 b 305 1071 217 1034 259 1071 b 391 959 354 1071 391 1028 b 293 357 391 824 326 463 l 316 351 b 532 667 389 479 467 592 b 666 744 569 708 615 744 b 738 576 740 744 758 672 b 679 116 703 416 680 267 b 738 25 717 105 738 66 b 651 -62 738 -27 699 -62 m 81 1188 b 79 1279 58 1208 53 1251 b 169 1290 105 1306 144 1306 b 264 1362 206 1310 236 1335 b 402 1367 305 1398 358 1393 b 519 1261 449 1338 485 1306 b 515 1185 542 1233 536 1204 b 435 1196 492 1165 461 1167 b 338 1290 403 1233 374 1262 b 192 1188 292 1247 235 1208 b 81 1188 151 1167 107 1164 "},"i":{"ha":861,"x_min":0,"x_max":0,"o":"m 384 -10 b 281 97 328 -10 281 26 b 322 276 281 135 297 195 b 438 585 356 386 405 497 l 422 599 b 203 536 360 576 262 542 b 117 588 158 533 129 547 b 183 688 106 634 127 672 b 483 740 254 709 407 740 b 582 633 539 740 582 705 b 553 492 582 604 574 556 b 424 148 518 388 464 253 l 440 133 b 654 191 501 153 592 185 b 744 144 700 195 735 185 b 679 44 755 99 732 61 b 384 -10 615 24 468 -10 m 441 874 b 372 916 413 874 385 890 b 319 986 338 917 319 944 b 436 1094 319 1053 374 1094 b 552 987 500 1094 552 1052 b 441 874 552 917 494 874 "},"ı":{"ha":861,"x_min":0,"x_max":0,"o":"m 384 -10 b 281 97 328 -10 281 26 b 322 276 281 135 297 195 b 438 585 356 386 405 497 l 422 599 b 203 536 360 576 262 542 b 117 588 158 533 129 547 b 183 688 106 634 127 672 b 483 740 254 709 407 740 b 582 633 539 740 582 705 b 553 492 582 604 574 556 b 424 148 518 388 464 253 l 440 133 b 654 191 501 153 592 185 b 744 144 700 195 735 185 b 679 44 755 99 732 61 b 384 -10 615 24 468 -10 "},"í":{"ha":861,"x_min":0,"x_max":0,"o":"m 384 -10 b 281 97 328 -10 281 26 b 322 276 281 135 297 195 b 438 585 356 386 405 497 l 422 599 b 203 536 360 576 262 542 b 117 588 158 533 129 547 b 183 688 106 634 127 672 b 483 740 254 709 407 740 b 582 633 539 740 582 705 b 553 492 582 604 574 556 b 424 148 518 388 464 253 l 440 133 b 654 191 501 153 592 185 b 744 144 700 195 735 185 b 679 44 755 99 732 61 b 384 -10 615 24 468 -10 m 412 874 b 492 894 441 855 464 868 b 608 1041 541 939 581 991 b 583 1139 631 1083 619 1116 b 485 1113 545 1160 499 1160 b 399 952 464 1059 435 1001 b 412 874 376 920 383 892 "},"ĭ":{"ha":861,"x_min":0,"x_max":0,"o":"m 384 -10 b 281 97 328 -10 281 26 b 322 276 281 135 297 195 b 438 585 356 386 405 497 l 422 599 b 203 536 360 576 262 542 b 117 588 158 533 129 547 b 183 688 106 634 127 672 b 483 740 254 709 407 740 b 582 633 539 740 582 705 b 553 492 582 604 574 556 b 424 148 518 388 464 253 l 440 133 b 654 191 501 153 592 185 b 744 144 700 195 735 185 b 679 44 755 99 732 61 b 384 -10 615 24 468 -10 m 440 879 b 222 1050 308 879 233 946 b 269 1118 215 1093 238 1117 b 328 1065 301 1120 319 1100 b 440 981 340 1015 374 981 b 553 1076 503 981 541 1015 b 612 1128 563 1110 579 1131 b 659 1063 643 1127 665 1103 b 440 879 647 946 569 879 "},"î":{"ha":861,"x_min":0,"x_max":0,"o":"m 384 -10 b 281 97 328 -10 281 26 b 322 276 281 135 297 195 b 438 585 356 386 405 497 l 422 599 b 203 536 360 576 262 542 b 117 588 158 533 129 547 b 183 688 106 634 127 672 b 483 740 254 709 407 740 b 582 633 539 740 582 705 b 553 492 582 604 574 556 b 424 148 518 388 464 253 l 440 133 b 654 191 501 153 592 185 b 744 144 700 195 735 185 b 679 44 755 99 732 61 b 384 -10 615 24 468 -10 m 190 897 b 187 1001 163 921 157 970 b 269 1016 210 1026 244 1027 b 376 1110 310 1047 349 1083 b 519 1112 424 1152 476 1147 b 635 973 562 1074 603 1022 b 631 894 656 944 656 915 b 553 900 607 872 573 872 b 451 1032 524 943 489 991 b 297 904 399 981 342 933 b 190 897 261 880 219 871 "},"ï":{"ha":861,"x_min":0,"x_max":0,"o":"m 384 -10 b 281 97 328 -10 281 26 b 322 276 281 135 297 195 b 438 585 356 386 405 497 l 422 599 b 203 536 360 576 262 542 b 117 588 158 533 129 547 b 183 688 106 634 127 672 b 483 740 254 709 407 740 b 582 633 539 740 582 705 b 553 492 582 604 574 556 b 424 148 518 388 464 253 l 440 133 b 654 191 501 153 592 185 b 744 144 700 195 735 185 b 679 44 755 99 732 61 b 384 -10 615 24 468 -10 m 258 873 b 194 915 231 873 207 888 b 145 985 164 916 145 942 b 253 1092 145 1051 197 1092 b 360 985 312 1092 360 1050 b 258 873 360 915 306 873 m 500 971 b 546 1045 500 1006 518 1032 b 621 1099 551 1080 581 1099 b 732 985 689 1099 732 1046 b 613 873 732 924 688 873 b 500 971 544 873 500 917 "},"ị":{"ha":861,"x_min":0,"x_max":0,"o":"m 384 -10 b 281 97 328 -10 281 26 b 322 276 281 135 297 195 b 438 585 356 386 405 497 l 422 599 b 203 536 360 576 262 542 b 117 588 158 533 129 547 b 183 688 106 634 127 672 b 483 740 254 709 407 740 b 582 633 539 740 582 705 b 553 492 582 604 574 556 b 424 148 518 388 464 253 l 440 133 b 654 191 501 153 592 185 b 744 144 700 195 735 185 b 679 44 755 99 732 61 b 384 -10 615 24 468 -10 m 441 874 b 372 916 413 874 385 890 b 319 986 338 917 319 944 b 436 1094 319 1053 374 1094 b 552 987 500 1094 552 1052 b 441 874 552 917 494 874 m 434 -369 b 365 -328 406 -369 378 -353 b 312 -257 331 -326 312 -300 b 429 -150 312 -191 367 -150 b 545 -256 493 -150 545 -192 b 434 -369 545 -327 487 -369 "},"ì":{"ha":861,"x_min":0,"x_max":0,"o":"m 384 -10 b 281 97 328 -10 281 26 b 322 276 281 135 297 195 b 438 585 356 386 405 497 l 422 599 b 203 536 360 576 262 542 b 117 588 158 533 129 547 b 183 688 106 634 127 672 b 483 740 254 709 407 740 b 582 633 539 740 582 705 b 553 492 582 604 574 556 b 424 148 518 388 464 253 l 440 133 b 654 191 501 153 592 185 b 744 144 700 195 735 185 b 679 44 755 99 732 61 b 384 -10 615 24 468 -10 m 463 874 b 383 894 434 855 411 868 b 267 1041 335 939 294 991 b 293 1139 245 1083 256 1116 b 391 1113 330 1160 376 1160 b 477 952 412 1059 441 1001 b 463 874 499 920 492 892 "},"ī":{"ha":861,"x_min":0,"x_max":0,"o":"m 384 -10 b 281 97 328 -10 281 26 b 322 276 281 135 297 195 b 438 585 356 386 405 497 l 422 599 b 203 536 360 576 262 542 b 117 588 158 533 129 547 b 183 688 106 634 127 672 b 483 740 254 709 407 740 b 582 633 539 740 582 705 b 553 492 582 604 574 556 b 424 148 518 388 464 253 l 440 133 b 654 191 501 153 592 185 b 744 144 700 195 735 185 b 679 44 755 99 732 61 b 384 -10 615 24 468 -10 m 264 913 b 210 962 233 914 210 934 b 263 1012 210 990 232 1010 l 611 1027 b 665 973 642 1028 665 1007 b 613 915 666 938 644 915 l 264 913 "},"į":{"ha":861,"x_min":0,"x_max":0,"o":"m 441 874 b 372 916 413 874 385 890 b 319 986 338 917 319 944 b 436 1094 319 1053 374 1094 b 552 987 500 1094 552 1052 b 441 874 552 917 494 874 m 426 -290 b 274 -163 318 -283 274 -229 b 372 -9 274 -112 303 -63 b 281 97 321 -4 281 31 b 322 276 281 135 297 195 b 438 585 356 386 405 497 l 422 599 b 203 536 360 576 262 542 b 117 588 158 533 129 547 b 183 688 106 634 127 672 b 483 740 254 709 407 740 b 582 633 539 740 582 705 b 553 492 582 604 574 556 b 424 148 518 388 464 253 l 440 133 b 654 191 501 153 592 185 b 744 144 700 195 735 185 b 679 44 755 99 732 61 b 502 3 640 32 570 15 b 406 -128 444 -42 406 -82 b 465 -188 406 -164 429 -180 b 504 -244 494 -195 510 -214 b 426 -290 498 -274 475 -292 "},"ĳ":{"ha":861,"x_min":0,"x_max":0,"o":"m 203 0 b 97 110 147 0 97 37 b 258 584 97 219 217 453 l 240 599 b 114 549 189 575 163 558 b 37 600 79 546 48 559 b 88 699 24 647 43 684 b 302 740 153 722 226 740 b 399 629 358 740 399 704 b 244 158 399 530 285 288 l 260 143 b 409 197 304 165 355 190 b 485 151 450 202 474 190 b 432 47 498 106 476 67 b 203 0 383 25 288 0 m 260 874 b 191 916 232 874 205 890 b 138 986 158 917 138 944 b 256 1094 138 1053 194 1094 b 372 987 319 1094 372 1052 b 260 874 372 917 313 874 m 668 874 b 599 916 640 874 613 890 b 546 986 566 917 546 944 b 663 1094 546 1053 601 1094 b 780 987 727 1094 780 1052 b 668 874 780 917 721 874 m 436 -294 b 273 -175 337 -294 273 -247 b 359 -96 273 -131 304 -96 b 452 -168 406 -96 442 -128 b 608 68 550 -150 580 -76 b 671 585 630 176 665 437 l 654 600 b 544 562 617 583 586 565 b 464 619 506 560 473 574 b 520 710 453 667 477 694 b 703 740 574 730 628 740 b 810 617 780 740 810 702 b 750 48 810 465 774 175 b 436 -294 709 -162 608 -294 "},"j":{"ha":861,"x_min":0,"x_max":0,"o":"m 356 -294 b 92 10 178 -294 92 -132 b 209 190 92 122 139 190 b 288 108 253 190 288 162 b 230 15 288 60 262 28 b 358 -157 237 -79 278 -157 b 516 68 443 -157 492 -64 b 578 589 535 176 569 440 l 560 600 b 374 559 508 585 426 562 b 284 615 327 556 293 571 b 353 707 274 664 304 692 b 610 740 420 726 535 740 b 719 617 686 740 719 702 b 656 48 719 465 681 175 b 356 -294 615 -162 518 -294 m 553 874 b 484 916 525 874 498 890 b 431 986 451 917 431 944 b 549 1094 431 1053 487 1094 b 665 987 613 1094 665 1052 b 553 874 665 917 606 874 "},"ȷ":{"ha":861,"x_min":0,"x_max":0,"o":"m 356 -294 b 92 10 178 -294 92 -132 b 209 190 92 122 139 190 b 288 108 253 190 288 162 b 230 15 288 60 262 28 b 358 -157 237 -79 278 -157 b 516 68 443 -157 492 -64 b 578 589 535 176 569 440 l 560 600 b 374 559 508 585 426 562 b 284 615 327 556 293 571 b 353 707 274 664 304 692 b 610 740 420 726 535 740 b 719 617 686 740 719 702 b 656 48 719 465 681 175 b 356 -294 615 -162 518 -294 "},"ĵ":{"ha":861,"x_min":0,"x_max":0,"o":"m 356 -294 b 92 10 178 -294 92 -132 b 209 190 92 122 139 190 b 288 108 253 190 288 162 b 230 15 288 60 262 28 b 358 -157 237 -79 278 -157 b 516 68 443 -157 492 -64 b 578 589 535 176 569 440 l 560 600 b 374 559 508 585 426 562 b 284 615 327 556 293 571 b 353 707 274 664 304 692 b 610 740 420 726 535 740 b 719 617 686 740 719 702 b 656 48 719 465 681 175 b 356 -294 615 -162 518 -294 m 302 897 b 299 1001 276 921 269 970 b 382 1016 323 1026 357 1027 b 490 1110 424 1047 463 1083 b 632 1112 536 1152 589 1147 b 749 973 675 1074 716 1022 b 744 894 768 944 769 915 b 665 900 720 872 686 872 b 563 1033 636 943 601 991 b 410 904 511 982 455 933 b 302 897 374 880 331 871 "},"k":{"ha":861,"x_min":0,"x_max":0,"o":"m 190 -3 b 133 111 132 -3 122 53 b 241 881 167 293 231 670 b 211 965 223 899 211 930 b 297 1063 211 1028 252 1063 b 383 955 349 1063 383 1026 b 319 447 383 816 358 645 l 338 447 b 650 732 405 561 567 688 b 759 719 693 754 738 760 b 707 608 781 675 759 638 b 435 392 629 562 512 473 b 647 147 495 302 569 213 b 697 159 660 154 677 159 b 776 73 737 159 776 120 b 687 -11 776 28 749 -11 b 353 282 594 -11 444 152 b 275 91 319 222 294 157 b 190 -3 256 23 229 -3 "},"ķ":{"ha":861,"x_min":0,"x_max":0,"o":"m 190 -3 b 133 111 132 -3 122 53 b 241 881 167 293 231 670 b 211 965 223 899 211 930 b 297 1063 211 1028 252 1063 b 383 955 349 1063 383 1026 b 319 447 383 816 358 645 l 338 447 b 650 732 405 561 567 688 b 759 719 693 754 738 760 b 707 608 781 675 759 638 b 435 392 629 562 512 473 b 647 147 495 302 569 213 b 697 159 660 154 677 159 b 776 73 737 159 776 120 b 687 -11 776 28 749 -11 b 353 282 594 -11 444 152 b 275 91 319 222 294 157 b 190 -3 256 23 229 -3 m 360 -524 b 320 -455 327 -519 309 -490 b 352 -233 337 -402 355 -319 b 442 -164 351 -178 394 -158 b 510 -252 493 -170 516 -206 b 432 -477 501 -331 460 -426 b 360 -524 413 -509 389 -529 "},"ĸ":{"ha":861,"x_min":0,"x_max":0,"o":"m 180 -1 b 136 111 132 6 124 53 b 213 592 168 263 205 449 b 183 675 194 610 183 641 b 269 773 183 738 225 773 b 354 665 322 773 354 737 b 324 447 354 590 346 527 l 338 447 b 650 732 405 561 567 688 b 759 719 693 754 738 760 b 707 608 781 675 759 638 b 435 392 629 562 512 473 b 646 147 495 303 569 214 b 698 159 660 155 678 159 b 776 73 738 159 776 119 b 687 -11 776 27 749 -11 b 353 282 594 -11 444 152 b 275 91 319 222 294 157 b 180 -1 256 23 229 -10 "},"l":{"ha":861,"x_min":0,"x_max":0,"o":"m 339 -10 b 235 97 283 -10 235 26 b 284 307 235 135 256 214 b 483 925 333 463 459 843 l 467 940 b 203 876 406 917 262 883 b 117 928 158 873 129 887 b 183 1028 106 974 127 1012 b 528 1081 254 1049 452 1081 b 627 974 584 1081 627 1045 b 599 828 627 944 619 892 b 378 148 553 672 414 260 l 394 133 b 654 191 456 153 592 185 b 744 144 700 195 735 185 b 679 44 755 99 732 61 b 339 -10 615 24 423 -10 "},"ĺ":{"ha":861,"x_min":0,"x_max":0,"o":"m 339 -10 b 235 97 283 -10 235 26 b 284 307 235 135 256 214 b 483 925 333 463 459 843 l 467 940 b 203 876 406 917 262 883 b 117 928 158 873 129 887 b 183 1028 106 974 127 1012 b 528 1081 254 1049 452 1081 b 627 974 584 1081 627 1045 b 599 828 627 944 619 892 b 378 148 553 672 414 260 l 394 133 b 654 191 456 153 592 185 b 744 144 700 195 735 185 b 679 44 755 99 732 61 b 339 -10 615 24 423 -10 m 498 1180 b 575 1174 522 1154 551 1163 b 690 1257 616 1194 664 1228 b 684 1349 718 1287 715 1319 b 583 1344 653 1379 609 1385 b 504 1257 563 1313 533 1281 b 498 1180 474 1231 474 1205 "},"ľ":{"ha":861,"x_min":0,"x_max":0,"o":"m 339 -10 b 235 97 283 -10 235 26 b 284 307 235 135 256 214 b 483 925 333 463 459 843 l 467 940 b 203 876 406 917 262 883 b 117 928 158 873 129 887 b 183 1028 106 974 127 1012 b 528 1081 254 1049 452 1081 b 627 974 584 1081 627 1045 b 599 828 627 944 619 892 b 378 148 553 672 414 260 l 394 133 b 654 191 456 153 592 185 b 744 144 700 195 735 185 b 679 44 755 99 732 61 b 339 -10 615 24 423 -10 m 792 899 b 747 966 758 903 742 928 b 746 1099 751 1008 749 1060 b 824 1167 741 1155 781 1173 b 887 1088 867 1162 894 1134 b 856 949 882 1037 871 993 b 792 899 842 914 826 894 "},"ļ":{"ha":861,"x_min":0,"x_max":0,"o":"m 339 -10 b 235 97 283 -10 235 26 b 284 307 235 135 256 214 b 483 925 333 463 459 843 l 467 940 b 203 876 406 917 262 883 b 117 928 158 873 129 887 b 183 1028 106 974 127 1012 b 528 1081 254 1049 452 1081 b 627 974 584 1081 627 1045 b 599 828 627 944 619 892 b 378 148 553 672 414 260 l 394 133 b 654 191 456 153 592 185 b 744 144 700 195 735 185 b 679 44 755 99 732 61 b 339 -10 615 24 423 -10 m 340 -524 b 301 -455 308 -519 290 -491 b 333 -234 317 -403 335 -320 b 422 -164 331 -178 375 -158 b 490 -252 473 -171 496 -206 b 412 -478 481 -332 441 -427 b 340 -524 394 -510 369 -529 "},"ŀ":{"ha":861,"x_min":0,"x_max":0,"o":"m 854 463 b 790 504 828 463 803 478 b 742 574 761 506 742 532 b 850 682 742 641 793 682 b 956 575 908 682 956 640 b 854 463 956 505 903 463 m 339 -10 b 235 97 283 -10 235 26 b 284 307 235 135 256 214 b 483 925 333 463 459 843 l 467 940 b 203 876 406 917 262 883 b 117 928 158 873 129 887 b 183 1028 106 974 127 1012 b 528 1081 254 1049 452 1081 b 627 974 584 1081 627 1045 b 599 828 627 944 619 892 b 378 148 553 672 414 260 l 394 133 b 654 191 456 153 592 185 b 744 144 700 195 735 185 b 679 44 755 99 732 61 b 339 -10 615 24 423 -10 "},"ł":{"ha":861,"x_min":0,"x_max":0,"o":"m 226 435 b 140 467 188 418 153 438 b 174 550 127 499 139 535 l 394 646 b 483 925 434 769 472 884 l 467 940 b 203 876 406 917 262 883 b 117 928 158 873 129 887 b 183 1028 106 974 127 1012 b 528 1081 254 1049 452 1081 b 627 974 584 1081 627 1045 b 599 828 627 944 619 892 l 566 721 l 631 749 b 716 722 670 766 703 750 b 683 635 731 691 724 652 l 514 560 b 378 148 460 396 400 217 l 394 133 b 654 191 456 153 592 185 b 744 144 700 195 735 185 b 679 44 755 99 732 61 b 339 -10 615 24 423 -10 b 235 97 283 -10 235 26 b 284 307 235 135 256 214 l 341 485 l 226 435 "},"m":{"ha":861,"x_min":0,"x_max":0,"o":"m 712 -44 b 622 108 653 -44 622 18 b 687 549 622 210 646 392 l 664 558 b 501 187 603 447 543 269 b 420 114 474 133 448 114 b 360 219 372 114 360 170 b 394 538 360 288 378 438 l 375 547 b 203 72 313 407 249 219 b 114 -28 184 8 156 -28 b 69 115 51 -28 56 50 b 124 592 98 268 121 428 b 92 678 102 608 92 640 b 172 766 92 732 129 766 b 244 667 215 766 244 730 b 206 379 244 603 226 458 l 229 374 b 341 657 254 458 307 597 b 444 739 370 709 404 739 b 506 653 487 739 506 705 b 476 399 506 597 493 475 l 496 389 b 610 655 519 462 563 576 b 726 739 642 708 682 739 b 805 635 776 739 805 701 b 738 126 805 507 743 331 b 792 42 773 115 792 80 b 712 -44 792 -16 751 -44 "},"n":{"ha":861,"x_min":0,"x_max":0,"o":"m 650 -62 b 551 128 572 -62 551 21 b 611 578 551 242 572 413 l 592 583 b 312 122 485 442 373 249 b 174 -19 269 37 228 -19 b 128 150 107 -19 103 67 b 211 567 163 266 201 410 b 176 669 188 588 176 626 b 266 769 176 733 219 769 b 349 654 315 769 349 730 b 296 357 349 571 331 463 l 315 351 b 530 667 385 485 463 592 b 664 744 571 714 617 744 b 747 645 709 744 747 716 b 680 115 747 513 688 314 b 738 27 718 104 738 66 b 650 -62 738 -27 701 -62 "},"ń":{"ha":861,"x_min":0,"x_max":0,"o":"m 650 -62 b 551 128 572 -62 551 21 b 611 578 551 242 572 413 l 592 583 b 312 122 485 442 373 249 b 174 -19 269 37 228 -19 b 128 150 107 -19 103 67 b 211 567 163 266 201 410 b 176 669 188 588 176 626 b 266 769 176 733 219 769 b 349 654 315 769 349 730 b 296 357 349 571 331 463 l 315 351 b 530 667 385 485 463 592 b 664 744 571 714 617 744 b 747 645 709 744 747 716 b 680 115 747 513 688 314 b 738 27 718 104 738 66 b 650 -62 738 -27 701 -62 m 488 874 b 568 894 517 855 540 868 b 685 1041 617 939 658 991 b 659 1139 707 1083 696 1116 b 561 1113 622 1160 576 1160 b 475 952 540 1059 511 1001 b 488 874 453 920 459 892 "},"ň":{"ha":861,"x_min":0,"x_max":0,"o":"m 650 -62 b 551 128 572 -62 551 21 b 611 578 551 242 572 413 l 592 583 b 312 122 485 442 373 249 b 174 -19 269 37 228 -19 b 128 150 107 -19 103 67 b 211 567 163 266 201 410 b 176 669 188 588 176 626 b 266 769 176 733 219 769 b 349 654 315 769 349 730 b 296 357 349 571 331 463 l 315 351 b 530 667 385 485 463 592 b 664 744 571 714 617 744 b 747 645 709 744 747 716 b 680 115 747 513 688 314 b 738 27 718 104 738 66 b 650 -62 738 -27 701 -62 m 275 1113 b 272 1009 249 1090 242 1040 b 355 994 296 985 330 983 b 463 900 397 963 435 927 b 605 899 509 858 562 863 b 722 1038 648 936 689 989 b 717 1117 741 1066 742 1095 b 638 1110 693 1139 659 1139 b 536 978 609 1067 574 1019 b 383 1106 484 1028 427 1077 b 275 1113 347 1131 304 1140 "},"ņ":{"ha":861,"x_min":0,"x_max":0,"o":"m 650 -62 b 551 128 572 -62 551 21 b 611 578 551 242 572 413 l 592 583 b 312 122 485 442 373 249 b 174 -19 269 37 228 -19 b 128 150 107 -19 103 67 b 211 567 163 266 201 410 b 176 669 188 588 176 626 b 266 769 176 733 219 769 b 349 654 315 769 349 730 b 296 357 349 571 331 463 l 315 351 b 530 667 385 485 463 592 b 664 744 571 714 617 744 b 747 645 709 744 747 716 b 680 115 747 513 688 314 b 738 27 718 104 738 66 b 650 -62 738 -27 701 -62 m 344 -524 b 305 -455 312 -519 294 -490 b 337 -233 322 -402 339 -319 b 426 -164 335 -178 379 -158 b 494 -252 477 -170 500 -206 b 416 -477 485 -331 445 -426 b 344 -524 398 -509 374 -529 "},"ɲ":{"ha":861,"x_min":0,"x_max":0,"o":"m 82 -277 b -48 -167 13 -277 -48 -237 b 16 -92 -48 -124 -24 -92 b 76 -150 51 -92 71 -119 l 85 -150 b 210 568 118 -150 194 332 b 176 669 188 588 176 626 b 266 769 176 733 219 769 b 351 658 315 769 351 726 b 306 378 351 567 330 465 l 326 372 b 530 667 385 486 463 592 b 694 738 582 726 640 757 b 747 645 731 725 747 694 b 680 115 747 513 688 304 b 738 20 718 103 738 62 b 656 -62 738 -27 700 -62 b 544 128 565 -62 544 35 b 605 578 544 242 566 413 l 592 583 b 288 78 485 442 347 222 b 82 -277 247 -121 213 -277 "},"ñ":{"ha":861,"x_min":0,"x_max":0,"o":"m 650 -62 b 551 128 572 -62 551 21 b 611 578 551 242 572 413 l 592 583 b 312 122 485 442 373 249 b 174 -19 269 37 228 -19 b 128 150 107 -19 103 67 b 211 567 163 266 201 410 b 176 669 188 588 176 626 b 266 769 176 733 219 769 b 349 654 315 769 349 730 b 296 357 349 571 331 463 l 315 351 b 530 667 385 485 463 592 b 664 744 571 714 617 744 b 747 645 709 744 747 716 b 680 115 747 513 688 314 b 738 27 718 104 738 66 b 650 -62 738 -27 701 -62 m 625 871 b 417 983 513 871 480 983 b 354 938 390 983 367 967 b 284 901 338 903 317 891 b 248 983 248 911 231 941 b 403 1092 274 1047 331 1092 b 606 990 513 1092 544 990 b 667 1053 635 990 653 1015 b 740 1096 681 1088 703 1106 b 778 1027 772 1088 788 1063 b 625 871 754 926 701 871 "},"ŋ":{"ha":861,"x_min":0,"x_max":0,"o":"m 461 -274 b 335 -163 392 -274 335 -233 b 399 -89 335 -120 359 -89 b 461 -147 434 -89 456 -116 l 465 -147 b 565 157 497 -147 535 1 b 605 578 587 283 607 449 l 592 583 b 312 122 485 442 373 249 b 163 -17 265 28 218 -30 b 128 150 112 -4 99 53 b 211 567 163 266 201 410 b 176 669 188 588 176 626 b 266 769 176 733 219 769 b 351 658 315 769 351 726 b 296 357 351 567 331 463 l 315 351 b 530 667 385 485 463 592 b 694 738 582 726 640 757 b 747 645 731 725 747 694 b 691 140 747 503 720 294 b 461 -274 648 -117 595 -274 "},"o":{"ha":861,"x_min":0,"x_max":0,"o":"m 406 -16 b 112 298 238 -16 112 102 b 495 748 112 560 288 748 b 658 694 553 748 616 730 b 683 593 691 665 703 624 b 750 389 726 547 750 476 b 406 -16 750 165 611 -16 m 251 313 b 412 110 251 208 307 110 b 615 378 529 110 615 252 b 558 526 615 437 595 489 b 531 607 527 561 518 583 b 540 618 533 611 536 615 b 506 623 528 621 517 623 b 251 313 357 623 251 460 "},"ó":{"ha":861,"x_min":0,"x_max":0,"o":"m 406 -16 b 112 298 238 -16 112 102 b 495 748 112 560 288 748 b 658 694 553 748 616 730 b 683 593 691 665 703 624 b 750 389 726 547 750 476 b 406 -16 750 165 611 -16 m 497 874 b 576 894 526 855 549 868 b 692 1041 625 939 666 991 b 667 1139 715 1083 704 1116 b 569 1113 630 1160 583 1160 b 483 952 548 1059 519 1001 b 497 874 461 920 467 892 m 251 313 b 412 110 251 208 307 110 b 615 378 529 110 615 252 b 558 526 615 437 595 489 b 531 607 527 561 518 583 b 540 618 533 611 536 615 b 506 623 528 621 517 623 b 251 313 357 623 251 460 "},"ŏ":{"ha":861,"x_min":0,"x_max":0,"o":"m 406 -16 b 112 298 238 -16 112 102 b 495 748 112 560 288 748 b 658 694 553 748 616 730 b 683 593 691 665 703 624 b 750 389 726 547 750 476 b 406 -16 750 165 611 -16 m 525 879 b 306 1050 392 879 317 946 b 353 1118 300 1093 322 1117 b 413 1065 386 1120 403 1100 b 525 981 424 1015 458 981 b 637 1076 588 981 626 1015 b 696 1128 647 1110 663 1131 b 743 1063 728 1127 749 1103 b 525 879 731 946 653 879 m 251 313 b 412 110 251 208 307 110 b 615 378 529 110 615 252 b 558 526 615 437 595 489 b 531 607 527 561 518 583 b 540 618 533 611 536 615 b 506 623 528 621 517 623 b 251 313 357 623 251 460 "},"ô":{"ha":861,"x_min":0,"x_max":0,"o":"m 406 -16 b 112 298 238 -16 112 102 b 495 748 112 560 288 748 b 658 694 553 748 616 730 b 683 593 691 665 703 624 b 750 389 726 547 750 476 b 406 -16 750 165 611 -16 m 274 897 b 271 1001 247 921 241 970 b 353 1016 294 1026 328 1027 b 461 1110 395 1047 434 1083 b 603 1112 508 1152 560 1147 b 720 973 647 1074 688 1022 b 716 894 740 944 740 915 b 637 900 692 872 658 872 b 535 1033 608 943 573 991 b 381 904 483 982 426 933 b 274 897 345 880 303 871 m 251 313 b 412 110 251 208 307 110 b 615 378 529 110 615 252 b 558 526 615 437 595 489 b 531 607 527 561 518 583 b 540 618 533 611 536 615 b 506 623 528 621 517 623 b 251 313 357 623 251 460 "},"ö":{"ha":861,"x_min":0,"x_max":0,"o":"m 406 -16 b 112 298 238 -16 112 102 b 495 748 112 560 288 748 b 658 694 553 748 616 730 b 683 593 691 665 703 624 b 750 389 726 547 750 476 b 406 -16 750 165 611 -16 m 342 873 b 278 915 315 873 291 888 b 229 985 248 916 229 942 b 338 1092 229 1051 281 1092 b 444 985 396 1092 444 1050 b 342 873 444 915 390 873 m 584 971 b 631 1046 584 1006 602 1033 b 706 1099 637 1080 665 1099 b 817 985 773 1099 817 1046 b 698 873 817 924 772 873 b 584 971 629 873 584 917 m 251 313 b 412 110 251 208 307 110 b 615 378 529 110 615 252 b 558 526 615 437 595 489 b 531 607 527 561 518 583 b 540 618 533 611 536 615 b 506 623 528 621 517 623 b 251 313 357 623 251 460 "},"ọ":{"ha":861,"x_min":0,"x_max":0,"o":"m 406 -16 b 112 298 238 -16 112 102 b 495 748 112 560 288 748 b 658 694 553 748 616 730 b 683 593 691 665 703 624 b 750 389 726 547 750 476 b 406 -16 750 165 611 -16 m 382 -369 b 313 -328 353 -369 326 -353 b 260 -257 280 -326 260 -300 b 377 -150 260 -191 315 -150 b 494 -256 441 -150 494 -192 b 382 -369 494 -327 435 -369 m 251 313 b 412 110 251 208 307 110 b 615 378 529 110 615 252 b 558 526 615 437 595 489 b 531 607 527 561 518 583 b 540 618 533 611 536 615 b 506 623 528 621 517 623 b 251 313 357 623 251 460 "},"ò":{"ha":861,"x_min":0,"x_max":0,"o":"m 406 -16 b 112 298 238 -16 112 102 b 495 748 112 560 288 748 b 658 694 553 748 616 730 b 683 593 691 665 703 624 b 750 389 726 547 750 476 b 406 -16 750 165 611 -16 m 548 874 b 468 894 519 855 496 868 b 351 1041 419 939 378 991 b 377 1139 329 1083 340 1116 b 475 1113 415 1160 460 1160 b 561 952 496 1059 525 1001 b 548 874 583 920 577 892 m 251 313 b 412 110 251 208 307 110 b 615 378 529 110 615 252 b 558 526 615 437 595 489 b 531 607 527 561 518 583 b 540 618 533 611 536 615 b 506 623 528 621 517 623 b 251 313 357 623 251 460 "},"ő":{"ha":861,"x_min":0,"x_max":0,"o":"m 406 -16 b 112 298 238 -16 112 102 b 495 748 112 560 288 748 b 658 694 553 748 616 730 b 683 593 691 665 703 624 b 750 389 726 547 750 476 b 406 -16 750 165 611 -16 m 631 885 b 615 960 601 903 599 931 b 672 1094 638 1003 656 1044 b 772 1127 683 1140 729 1151 b 801 1034 805 1109 822 1075 b 711 906 779 988 744 942 b 631 885 685 879 660 867 m 367 895 b 351 961 342 909 335 932 b 398 1082 369 994 388 1033 b 486 1123 406 1129 442 1144 b 526 1028 526 1103 544 1068 b 444 917 508 992 473 945 b 367 895 418 890 394 880 m 251 313 b 412 110 251 208 307 110 b 615 378 529 110 615 252 b 558 526 615 437 595 489 b 531 607 527 561 518 583 b 540 618 533 611 536 615 b 506 623 528 621 517 623 b 251 313 357 623 251 460 "},"ō":{"ha":861,"x_min":0,"x_max":0,"o":"m 406 -16 b 112 298 238 -16 112 102 b 495 748 112 560 288 748 b 658 694 553 748 616 730 b 683 593 691 665 703 624 b 750 389 726 547 750 476 b 406 -16 750 165 611 -16 m 349 913 b 294 962 318 914 295 934 b 347 1012 294 990 316 1010 l 696 1027 b 750 973 726 1028 749 1007 b 697 915 751 938 728 915 l 349 913 m 251 313 b 412 110 251 208 307 110 b 615 378 529 110 615 252 b 558 526 615 437 595 489 b 531 607 527 561 518 583 b 540 618 533 611 536 615 b 506 623 528 621 517 623 b 251 313 357 623 251 460 "},"ǫ":{"ha":861,"x_min":0,"x_max":0,"o":"m 422 -296 b 269 -169 313 -290 269 -235 b 369 -14 269 -119 299 -69 b 112 298 219 2 112 117 b 495 748 112 560 288 748 b 658 694 553 748 616 730 b 683 593 691 665 703 624 b 750 389 726 547 750 476 b 499 -2 750 201 652 44 b 401 -135 440 -48 401 -88 b 460 -195 401 -171 424 -187 b 499 -250 489 -201 505 -221 b 422 -296 493 -281 470 -299 m 251 313 b 412 110 251 208 307 110 b 615 378 529 110 615 252 b 558 526 615 437 595 489 b 531 607 527 561 518 583 b 540 618 533 611 536 615 b 506 623 528 621 517 623 b 251 313 357 623 251 460 "},"ø":{"ha":861,"x_min":0,"x_max":0,"o":"m 401 -16 b 271 12 353 -16 309 -6 l 188 -111 b 96 -136 161 -151 124 -154 b 83 -41 69 -119 56 -82 l 173 92 b 112 305 134 146 112 217 b 500 748 112 560 293 748 b 599 729 534 748 568 742 l 675 842 b 765 867 701 880 737 884 b 778 773 792 849 806 812 l 691 642 b 683 593 695 625 692 608 b 750 389 726 547 750 476 b 401 -16 750 165 606 -16 m 244 324 b 267 208 244 282 252 242 l 539 618 b 506 623 528 622 517 623 b 244 324 350 623 244 474 m 340 126 b 415 106 361 113 387 106 b 625 378 540 106 625 252 b 588 503 625 425 613 468 l 340 126 "},"ǿ":{"ha":861,"x_min":0,"x_max":0,"o":"m 401 -16 b 271 12 353 -16 309 -6 l 188 -111 b 96 -136 161 -151 124 -154 b 83 -41 69 -119 56 -82 l 173 92 b 112 305 134 146 112 217 b 500 748 112 560 293 748 b 599 729 534 748 568 742 l 675 842 b 765 867 701 880 737 884 b 778 773 792 849 806 812 l 691 642 b 683 593 695 625 692 608 b 750 389 726 547 750 476 b 401 -16 750 165 606 -16 m 497 874 b 576 894 526 855 549 868 b 692 1041 625 939 666 991 b 667 1139 715 1083 704 1116 b 569 1113 630 1160 583 1160 b 483 952 548 1059 519 1001 b 497 874 461 920 467 892 m 244 324 b 267 208 244 282 252 242 l 539 618 b 506 623 528 622 517 623 b 244 324 350 623 244 474 m 340 126 b 415 106 361 113 387 106 b 625 378 540 106 625 252 b 588 503 625 425 613 468 l 340 126 "},"õ":{"ha":861,"x_min":0,"x_max":0,"o":"m 406 -16 b 112 298 238 -16 112 102 b 495 748 112 560 288 748 b 658 694 553 748 616 730 b 683 593 691 665 703 624 b 750 389 726 547 750 476 b 406 -16 750 165 611 -16 m 633 871 b 426 983 520 871 488 983 b 362 938 397 983 376 967 b 292 901 346 903 324 891 b 256 983 256 911 239 941 b 410 1092 282 1047 338 1092 b 614 990 520 1092 552 990 b 675 1053 642 990 661 1015 b 749 1096 689 1088 712 1106 b 786 1027 781 1088 795 1063 b 633 871 763 926 709 871 m 251 313 b 412 110 251 208 307 110 b 615 378 529 110 615 252 b 558 526 615 437 595 489 b 531 607 527 561 518 583 b 540 618 533 611 536 615 b 506 623 528 621 517 623 b 251 313 357 623 251 460 "},"œ":{"ha":861,"x_min":0,"x_max":0,"o":"m 240 -16 b 42 298 121 -16 42 102 b 308 741 42 560 161 741 b 423 690 347 741 394 726 b 441 599 446 660 463 628 l 437 594 l 443 583 b 646 740 487 676 554 740 b 813 517 757 740 813 643 b 715 349 813 415 788 378 b 491 278 659 324 557 294 b 593 107 496 173 528 107 b 714 174 634 107 674 133 b 781 174 733 194 762 201 b 778 87 802 147 799 114 b 578 -17 738 35 664 -17 b 414 106 503 -17 447 28 b 240 -16 372 31 311 -16 m 156 313 b 253 106 156 204 183 106 b 374 363 329 106 374 245 b 349 527 374 428 374 480 b 331 607 331 565 322 583 b 337 618 333 611 335 615 b 311 623 329 621 321 623 b 156 313 210 623 156 460 m 497 397 b 658 448 549 410 608 429 b 710 529 699 462 710 485 b 638 617 710 572 688 617 b 497 397 568 617 516 513 "},"p":{"ha":861,"x_min":0,"x_max":0,"o":"m 401 -16 b 218 50 325 -16 253 7 b 174 -204 202 -49 187 -140 b 92 -297 163 -257 138 -303 b 40 -196 48 -290 31 -249 b 140 539 71 -12 124 313 b 103 628 113 561 103 594 b 201 740 103 701 152 740 b 285 620 250 740 285 704 b 272 447 285 580 280 519 l 287 447 b 599 723 363 624 483 723 b 795 466 699 723 795 650 b 401 -16 795 179 601 -16 m 271 199 b 343 119 319 199 340 168 b 406 109 361 113 382 109 b 660 453 549 109 660 286 b 569 597 660 532 636 597 b 262 199 476 597 340 426 "},"þ":{"ha":861,"x_min":0,"x_max":0,"o":"m 401 -16 b 214 56 322 -16 247 9 b 174 -204 199 -56 184 -150 b 92 -297 163 -257 138 -303 b 40 -196 48 -290 31 -249 b 162 862 72 -10 143 589 b 125 951 135 884 125 917 b 223 1063 125 1024 174 1063 b 307 943 272 1063 307 1027 b 263 447 307 872 288 667 l 287 447 b 601 723 363 624 483 723 b 795 466 699 723 795 650 b 401 -16 795 179 601 -16 m 271 199 b 343 121 319 199 340 169 b 406 110 361 115 382 110 b 660 453 549 110 660 286 b 570 594 660 532 637 594 b 262 199 476 594 340 426 "},"q":{"ha":861,"x_min":0,"x_max":0,"o":"m 261 -16 b 64 245 166 -16 64 56 b 458 723 64 529 263 723 b 644 642 537 723 612 697 l 646 648 b 729 739 656 701 677 747 b 778 635 778 731 787 689 b 680 -107 747 449 693 110 b 707 -205 703 -135 710 -169 b 613 -298 701 -268 666 -298 b 533 -178 569 -298 531 -262 b 584 263 535 -115 558 73 l 572 263 b 261 -16 496 85 376 -16 m 199 260 b 297 110 199 173 231 110 b 597 509 390 110 520 281 b 579 509 592 508 585 508 b 516 588 537 514 518 541 b 458 598 499 594 481 598 b 199 260 311 598 199 427 "},"r":{"ha":861,"x_min":0,"x_max":0,"o":"m 221 -25 b 172 101 172 -13 153 38 b 268 585 212 238 267 472 l 252 602 b 158 567 225 589 188 573 b 72 608 122 559 85 559 b 131 703 59 657 86 686 b 287 740 178 724 241 740 b 393 622 357 740 393 688 b 325 333 393 552 369 449 l 344 330 b 692 740 449 562 573 740 b 779 669 738 740 766 712 b 803 432 798 608 803 494 b 745 303 803 344 782 311 b 656 376 696 293 668 324 b 660 587 643 434 644 517 l 640 593 b 333 63 537 476 406 264 b 221 -25 310 3 273 -37 "},"ŕ":{"ha":861,"x_min":0,"x_max":0,"o":"m 221 -25 b 172 101 172 -13 153 38 b 268 585 212 238 267 472 l 252 602 b 158 567 225 589 188 573 b 72 608 122 559 85 559 b 131 703 59 657 86 686 b 287 740 178 724 241 740 b 393 622 357 740 393 688 b 325 333 393 552 369 449 l 344 330 b 692 740 449 562 573 740 b 779 669 738 740 766 712 b 803 432 798 608 803 494 b 745 303 803 344 782 311 b 656 376 696 293 668 324 b 660 587 643 434 644 517 l 640 593 b 333 63 537 476 406 264 b 221 -25 310 3 273 -37 m 472 874 b 552 894 501 855 524 868 b 669 1041 601 939 642 991 b 643 1139 691 1083 680 1116 b 545 1113 606 1160 560 1160 b 459 952 524 1059 495 1001 b 472 874 437 920 443 892 "},"ř":{"ha":861,"x_min":0,"x_max":0,"o":"m 221 -25 b 172 101 172 -13 153 38 b 268 585 212 238 267 472 l 252 602 b 158 567 225 589 188 573 b 72 608 122 559 85 559 b 131 703 59 657 86 686 b 287 740 178 724 241 740 b 393 622 357 740 393 688 b 325 333 393 552 369 449 l 344 330 b 692 740 449 562 573 740 b 779 669 738 740 766 712 b 803 432 798 608 803 494 b 745 303 803 344 782 311 b 656 376 696 293 668 324 b 660 587 643 434 644 517 l 640 593 b 333 63 537 476 406 264 b 221 -25 310 3 273 -37 m 259 1113 b 256 1009 233 1090 226 1040 b 339 994 280 985 314 983 b 447 900 381 963 419 927 b 589 899 493 858 546 863 b 706 1038 632 936 673 989 b 701 1117 725 1066 726 1095 b 622 1110 677 1139 643 1139 b 520 978 593 1067 558 1019 b 367 1106 468 1028 411 1077 b 259 1113 331 1131 288 1140 "},"ŗ":{"ha":861,"x_min":0,"x_max":0,"o":"m 221 -25 b 172 101 172 -13 153 38 b 268 585 212 238 267 472 l 252 602 b 158 567 225 589 188 573 b 72 608 122 559 85 559 b 131 703 59 657 86 686 b 287 740 178 724 241 740 b 393 622 357 740 393 688 b 325 333 393 552 369 449 l 344 330 b 692 740 449 562 573 740 b 779 669 738 740 766 712 b 803 432 798 608 803 494 b 745 303 803 344 782 311 b 656 376 696 293 668 324 b 660 587 643 434 644 517 l 640 593 b 333 63 537 476 406 264 b 221 -25 310 3 273 -37 m 137 -524 b 98 -455 105 -519 87 -490 b 130 -233 115 -402 132 -319 b 219 -164 128 -178 172 -158 b 288 -252 270 -170 293 -206 b 209 -477 278 -331 238 -426 b 137 -524 191 -509 167 -529 "},"s":{"ha":861,"x_min":0,"x_max":0,"o":"m 366 -26 b 131 22 267 -26 172 -4 b 103 105 107 37 88 65 b 185 140 117 140 148 156 b 375 99 225 122 289 99 b 537 163 445 99 537 115 b 376 298 537 203 456 251 b 178 515 288 349 178 410 b 534 749 178 649 353 749 b 723 567 710 749 747 649 b 734 519 731 554 734 538 b 579 510 734 414 579 415 b 603 612 579 560 603 582 l 593 624 b 321 524 465 638 321 593 b 504 369 321 467 424 415 b 688 165 603 313 688 255 b 366 -26 688 39 528 -26 "},"ś":{"ha":861,"x_min":0,"x_max":0,"o":"m 366 -26 b 131 22 267 -26 172 -4 b 103 105 107 37 88 65 b 185 140 117 140 148 156 b 375 99 225 122 289 99 b 537 163 445 99 537 115 b 376 298 537 203 456 251 b 178 515 288 349 178 410 b 534 749 178 649 353 749 b 723 567 710 749 747 649 b 734 519 731 554 734 538 b 579 510 734 414 579 415 b 603 612 579 560 603 582 l 593 624 b 321 524 465 638 321 593 b 504 369 321 467 424 415 b 688 165 603 313 688 255 b 366 -26 688 39 528 -26 m 497 874 b 577 894 526 855 549 868 b 694 1041 626 939 667 991 b 668 1139 716 1083 705 1116 b 570 1113 631 1160 585 1160 b 484 952 549 1059 520 1001 b 497 874 462 920 468 892 "},"š":{"ha":861,"x_min":0,"x_max":0,"o":"m 366 -26 b 131 22 267 -26 172 -4 b 103 105 107 37 88 65 b 185 140 117 140 148 156 b 375 99 225 122 289 99 b 537 163 445 99 537 115 b 376 298 537 203 456 251 b 178 515 288 349 178 410 b 534 749 178 649 353 749 b 723 567 710 749 747 649 b 734 519 731 554 734 538 b 579 510 734 414 579 415 b 603 612 579 560 603 582 l 593 624 b 321 524 465 638 321 593 b 504 369 321 467 424 415 b 688 165 603 313 688 255 b 366 -26 688 39 528 -26 m 284 1113 b 281 1009 258 1090 251 1040 b 364 994 305 985 339 983 b 472 900 406 963 444 927 b 614 899 518 858 571 863 b 731 1038 657 936 698 989 b 726 1117 750 1066 751 1095 b 647 1110 702 1139 668 1139 b 545 978 618 1067 583 1019 b 392 1106 493 1028 436 1077 b 284 1113 356 1131 313 1140 "},"ş":{"ha":861,"x_min":0,"x_max":0,"o":"m 103 105 b 185 140 117 140 148 156 b 375 99 225 122 289 99 b 537 163 445 99 537 115 b 376 298 537 203 456 251 b 178 515 288 349 178 410 b 534 749 178 649 353 749 b 723 567 710 749 747 649 b 734 519 731 554 734 538 b 579 510 734 414 579 415 b 603 612 579 560 603 582 l 593 624 b 321 524 465 638 321 593 b 504 369 321 467 424 415 b 688 165 603 313 688 255 b 413 -24 688 51 558 -12 b 413 -44 413 -31 413 -37 b 381 -183 407 -91 399 -135 b 291 -232 368 -232 332 -245 b 249 -133 250 -219 221 -182 b 303 -23 267 -103 289 -60 b 131 22 228 -16 163 1 b 103 105 107 37 88 65 "},"ŝ":{"ha":861,"x_min":0,"x_max":0,"o":"m 366 -26 b 131 22 267 -26 172 -4 b 103 105 107 37 88 65 b 185 140 117 140 148 156 b 375 99 225 122 289 99 b 537 163 445 99 537 115 b 376 298 537 203 456 251 b 178 515 288 349 178 410 b 534 749 178 649 353 749 b 723 567 710 749 747 649 b 734 519 731 554 734 538 b 579 510 734 414 579 415 b 603 612 579 560 603 582 l 593 624 b 321 524 465 638 321 593 b 504 369 321 467 424 415 b 688 165 603 313 688 255 b 366 -26 688 39 528 -26 m 275 897 b 272 1001 249 921 242 970 b 355 1016 296 1026 330 1027 b 462 1110 396 1047 435 1083 b 604 1112 509 1152 562 1147 b 721 973 647 1074 688 1022 b 717 894 741 944 742 915 b 638 900 692 872 658 872 b 536 1032 609 943 574 991 b 382 904 484 981 427 933 b 275 897 347 880 304 871 "},"ș":{"ha":861,"x_min":0,"x_max":0,"o":"m 366 -26 b 131 22 267 -26 172 -4 b 103 105 107 37 88 65 b 185 140 117 140 148 156 b 375 99 225 122 289 99 b 537 163 445 99 537 115 b 376 298 537 203 456 251 b 178 515 288 349 178 410 b 534 749 178 649 353 749 b 723 567 710 749 747 649 b 734 519 731 554 734 538 b 579 510 734 414 579 415 b 603 612 579 560 603 582 l 593 624 b 321 524 465 638 321 593 b 504 369 321 467 424 415 b 688 165 603 313 688 255 b 366 -26 688 39 528 -26 m 313 -524 b 274 -455 281 -519 263 -490 b 306 -233 291 -402 308 -319 b 396 -164 304 -178 349 -158 b 464 -252 447 -170 469 -206 b 385 -477 455 -331 415 -426 b 313 -524 367 -509 343 -529 "},"ß":{"ha":861,"x_min":0,"x_max":0,"o":"m 163 -16 b 100 83 115 -16 94 19 b 146 576 106 154 138 488 b 517 1063 176 878 284 1063 b 778 835 657 1063 778 990 b 603 572 778 712 703 632 b 806 338 733 554 806 465 b 447 -21 806 125 603 -21 b 376 49 399 -21 376 5 b 439 110 376 88 400 110 b 670 332 555 110 670 211 b 498 472 670 438 578 479 b 415 528 453 468 423 489 b 469 610 406 569 433 594 b 640 821 551 645 640 726 b 513 935 640 897 583 935 b 292 571 369 935 314 774 b 241 64 282 482 249 136 b 163 -16 235 12 210 -16 "},"t":{"ha":861,"x_min":0,"x_max":0,"o":"m 398 -21 b 210 198 274 -21 210 62 b 254 515 210 269 229 390 l 156 505 b 78 569 115 501 82 530 b 144 644 74 606 106 640 l 285 658 b 352 937 309 769 335 872 b 449 1019 368 996 399 1030 b 495 915 486 1011 513 980 b 435 674 483 869 459 777 l 645 695 b 724 634 687 699 720 672 b 653 556 728 596 697 560 l 403 531 b 354 214 376 403 354 281 b 417 115 354 159 369 115 b 604 287 486 115 551 209 b 698 325 633 329 663 342 b 722 222 738 306 742 263 b 398 -21 670 117 544 -21 "},"ŧ":{"ha":861,"x_min":0,"x_max":0,"o":"m 397 -21 b 210 205 275 -21 210 62 b 227 372 210 249 217 307 l 151 364 b 78 419 110 359 83 387 b 132 489 74 449 94 485 l 251 502 b 281 647 260 550 271 599 l 165 635 b 93 690 125 630 98 657 b 147 759 88 720 110 755 l 312 777 b 352 937 327 840 341 896 b 451 1019 368 996 399 1031 b 495 915 486 1011 513 980 l 463 794 l 655 815 b 729 766 697 820 724 796 b 674 691 735 733 717 696 l 431 664 b 399 518 420 617 409 567 l 641 545 b 715 495 683 549 708 526 b 658 421 721 463 701 426 l 374 389 b 354 218 362 320 354 260 b 422 115 354 159 370 115 b 583 242 488 115 547 192 b 678 278 613 283 643 295 b 703 176 718 260 722 216 b 397 -21 666 99 546 -21 "},"ť":{"ha":861,"x_min":0,"x_max":0,"o":"m 398 -21 b 210 198 274 -21 210 62 b 254 515 210 269 229 390 l 156 505 b 78 569 115 501 82 530 b 144 644 74 606 106 640 l 285 658 b 352 937 309 769 335 872 b 449 1019 368 996 399 1030 b 495 915 486 1011 513 980 b 435 674 483 869 459 777 l 645 695 b 724 634 687 699 720 672 b 653 556 728 596 697 560 l 403 531 b 354 214 376 403 354 281 b 417 115 354 159 369 115 b 604 287 486 115 551 209 b 698 325 633 329 663 342 b 722 222 738 306 742 263 b 398 -21 670 117 544 -21 m 700 850 b 654 917 665 854 650 880 b 653 1050 658 959 657 1012 b 731 1119 649 1106 689 1124 b 794 1040 774 1113 801 1085 b 763 901 790 988 778 944 b 700 850 750 865 734 846 "},"ţ":{"ha":861,"x_min":0,"x_max":0,"o":"m 156 505 b 78 569 115 501 82 530 b 144 644 74 606 106 640 l 285 658 b 352 937 309 769 335 872 b 449 1019 368 996 399 1030 b 495 915 486 1011 513 980 b 435 674 483 869 459 777 l 645 695 b 724 634 687 699 720 672 b 653 556 728 596 697 560 l 403 531 b 354 214 376 403 354 281 b 417 115 354 159 369 115 b 604 287 486 115 551 209 b 698 325 633 329 663 342 b 722 222 738 306 742 263 b 437 -17 675 126 567 3 b 437 -44 438 -26 438 -35 b 406 -183 431 -91 423 -135 b 315 -232 392 -232 356 -245 b 274 -133 274 -219 245 -182 b 330 -14 293 -100 317 -53 l 331 -11 b 210 198 251 15 210 89 b 254 515 210 269 229 390 l 156 505 "},"ț":{"ha":861,"x_min":0,"x_max":0,"o":"m 398 -21 b 210 198 274 -21 210 62 b 254 515 210 269 229 390 l 156 505 b 78 569 115 501 82 530 b 144 644 74 606 106 640 l 285 658 b 352 937 309 769 335 872 b 449 1019 368 996 399 1030 b 495 915 486 1011 513 980 b 435 674 483 869 459 777 l 645 695 b 724 634 687 699 720 672 b 653 556 728 596 697 560 l 403 531 b 354 214 376 403 354 281 b 417 115 354 159 369 115 b 604 287 486 115 551 209 b 698 325 633 329 663 342 b 722 222 738 306 742 263 b 398 -21 670 117 544 -21 m 338 -524 b 299 -455 306 -519 288 -490 b 331 -233 315 -402 333 -319 b 420 -164 328 -178 373 -158 b 488 -252 471 -170 494 -206 b 410 -477 479 -331 439 -426 b 338 -524 392 -509 367 -529 "},"u":{"ha":861,"x_min":0,"x_max":0,"o":"m 674 -19 b 583 94 621 -19 583 22 b 606 310 583 167 592 238 l 581 310 b 252 -16 465 92 369 -16 b 80 213 159 -16 80 54 b 126 568 80 326 107 473 b 100 648 110 587 100 616 b 188 740 100 708 139 740 b 274 631 240 740 274 703 b 218 235 274 538 218 374 b 281 113 218 160 239 113 b 631 662 392 113 546 441 b 730 742 651 715 684 749 b 778 627 774 737 788 692 b 714 160 756 478 726 291 b 761 72 744 145 761 110 b 674 -19 761 19 722 -19 "},"ú":{"ha":861,"x_min":0,"x_max":0,"o":"m 674 -19 b 583 94 621 -19 583 22 b 606 310 583 167 592 238 l 581 310 b 252 -16 465 92 369 -16 b 80 213 159 -16 80 54 b 126 568 80 326 107 473 b 100 648 110 587 100 616 b 188 740 100 708 139 740 b 274 631 240 740 274 703 b 218 235 274 538 218 374 b 281 113 218 160 239 113 b 631 662 392 113 546 441 b 730 742 651 715 684 749 b 778 627 774 737 788 692 b 714 160 756 478 726 291 b 761 72 744 145 761 110 b 674 -19 761 19 722 -19 m 449 874 b 529 894 478 855 501 868 b 645 1041 578 939 619 991 b 619 1139 667 1083 657 1116 b 522 1113 583 1160 536 1160 b 435 952 501 1059 472 1001 b 449 874 414 920 420 892 "},"ŭ":{"ha":861,"x_min":0,"x_max":0,"o":"m 674 -19 b 583 94 621 -19 583 22 b 606 310 583 167 592 238 l 581 310 b 252 -16 465 92 369 -16 b 80 213 159 -16 80 54 b 126 568 80 326 107 473 b 100 648 110 587 100 616 b 188 740 100 708 139 740 b 274 631 240 740 274 703 b 218 235 274 538 218 374 b 281 113 218 160 239 113 b 631 662 392 113 546 441 b 730 742 651 715 684 749 b 778 627 774 737 788 692 b 714 160 756 478 726 291 b 761 72 744 145 761 110 b 674 -19 761 19 722 -19 m 478 879 b 258 1050 345 879 270 946 b 306 1118 253 1093 274 1117 b 366 1065 339 1120 356 1100 b 478 981 377 1015 411 981 b 590 1076 540 981 578 1015 b 649 1128 599 1110 616 1131 b 696 1063 681 1127 701 1103 b 478 879 684 946 606 879 "},"û":{"ha":861,"x_min":0,"x_max":0,"o":"m 674 -19 b 583 94 621 -19 583 22 b 606 310 583 167 592 238 l 581 310 b 252 -16 465 92 369 -16 b 80 213 159 -16 80 54 b 126 568 80 326 107 473 b 100 648 110 587 100 616 b 188 740 100 708 139 740 b 274 631 240 740 274 703 b 218 235 274 538 218 374 b 281 113 218 160 239 113 b 631 662 392 113 546 441 b 730 742 651 715 684 749 b 778 627 774 737 788 692 b 714 160 756 478 726 291 b 761 72 744 145 761 110 b 674 -19 761 19 722 -19 m 226 897 b 224 1001 200 921 194 970 b 306 1016 247 1026 281 1027 b 414 1110 348 1047 387 1083 b 556 1112 460 1152 513 1147 b 673 973 599 1074 640 1022 b 669 894 692 944 693 915 b 590 900 644 872 610 872 b 488 1033 560 943 526 991 b 334 904 435 982 379 933 b 226 897 298 880 256 871 "},"ü":{"ha":861,"x_min":0,"x_max":0,"o":"m 674 -19 b 583 94 621 -19 583 22 b 606 310 583 167 592 238 l 581 310 b 252 -16 465 92 369 -16 b 80 213 159 -16 80 54 b 126 568 80 326 107 473 b 100 648 110 587 100 616 b 188 740 100 708 139 740 b 274 631 240 740 274 703 b 218 235 274 538 218 374 b 281 113 218 160 239 113 b 631 662 392 113 546 441 b 730 742 651 715 684 749 b 778 627 774 737 788 692 b 714 160 756 478 726 291 b 761 72 744 145 761 110 b 674 -19 761 19 722 -19 m 294 873 b 231 915 268 873 244 888 b 182 985 201 916 182 942 b 290 1092 182 1051 233 1092 b 397 985 349 1092 397 1050 b 294 873 397 915 343 873 m 537 971 b 583 1046 537 1006 555 1033 b 658 1099 590 1080 618 1099 b 769 985 726 1099 769 1046 b 651 873 769 924 724 873 b 537 971 582 873 537 917 "},"ụ":{"ha":861,"x_min":0,"x_max":0,"o":"m 674 -19 b 583 94 621 -19 583 22 b 606 310 583 167 592 238 l 581 310 b 252 -16 465 92 369 -16 b 80 213 159 -16 80 54 b 126 568 80 326 107 473 b 100 648 110 587 100 616 b 188 740 100 708 139 740 b 274 631 240 740 274 703 b 218 235 274 538 218 374 b 281 113 218 160 239 113 b 631 662 392 113 546 441 b 730 742 651 715 684 749 b 778 627 774 737 788 692 b 714 160 756 478 726 291 b 761 72 744 145 761 110 b 674 -19 761 19 722 -19 m 383 -369 b 313 -328 353 -369 327 -353 b 260 -257 281 -326 260 -300 b 378 -150 260 -191 316 -150 b 494 -256 442 -150 494 -192 b 383 -369 494 -327 435 -369 "},"ù":{"ha":861,"x_min":0,"x_max":0,"o":"m 674 -19 b 583 94 621 -19 583 22 b 606 310 583 167 592 238 l 581 310 b 252 -16 465 92 369 -16 b 80 213 159 -16 80 54 b 126 568 80 326 107 473 b 100 648 110 587 100 616 b 188 740 100 708 139 740 b 274 631 240 740 274 703 b 218 235 274 538 218 374 b 281 113 218 160 239 113 b 631 662 392 113 546 441 b 730 742 651 715 684 749 b 778 627 774 737 788 692 b 714 160 756 478 726 291 b 761 72 744 145 761 110 b 674 -19 761 19 722 -19 m 501 874 b 421 894 472 855 449 868 b 304 1041 372 939 331 991 b 330 1139 282 1083 293 1116 b 428 1113 367 1160 413 1160 b 514 952 449 1059 478 1001 b 501 874 536 920 530 892 "},"ű":{"ha":861,"x_min":0,"x_max":0,"o":"m 674 -19 b 583 94 621 -19 583 22 b 606 310 583 167 592 238 l 581 310 b 252 -16 465 92 369 -16 b 80 213 159 -16 80 54 b 126 568 80 326 107 473 b 100 648 110 587 100 616 b 188 740 100 708 139 740 b 274 631 240 740 274 703 b 218 235 274 538 218 374 b 281 113 218 160 239 113 b 631 662 392 113 546 441 b 730 742 651 715 684 749 b 778 627 774 737 788 692 b 714 160 756 478 726 291 b 761 72 744 145 761 110 b 674 -19 761 19 722 -19 m 583 885 b 567 960 553 903 552 931 b 625 1094 591 1003 608 1044 b 725 1127 636 1140 682 1151 b 754 1034 758 1109 774 1075 b 664 906 732 988 697 942 b 583 885 638 879 613 867 m 319 895 b 303 961 294 909 288 932 b 351 1082 322 994 340 1033 b 439 1123 359 1129 395 1144 b 478 1028 479 1103 497 1068 b 397 917 461 992 426 945 b 319 895 371 890 347 880 "},"ū":{"ha":861,"x_min":0,"x_max":0,"o":"m 674 -19 b 583 94 621 -19 583 22 b 606 310 583 167 592 238 l 581 310 b 252 -16 465 92 369 -16 b 80 213 159 -16 80 54 b 126 568 80 326 107 473 b 100 648 110 587 100 616 b 188 740 100 708 139 740 b 274 631 240 740 274 703 b 218 235 274 538 218 374 b 281 113 218 160 239 113 b 631 662 392 113 546 441 b 730 742 651 715 684 749 b 778 627 774 737 788 692 b 714 160 756 478 726 291 b 761 72 744 145 761 110 b 674 -19 761 19 722 -19 m 301 913 b 247 962 271 914 248 934 b 299 1012 247 990 269 1010 l 649 1027 b 703 973 679 1028 702 1007 b 650 915 703 938 681 915 l 301 913 "},"ų":{"ha":861,"x_min":0,"x_max":0,"o":"m 644 -296 b 491 -169 536 -290 491 -235 b 615 3 491 -113 529 -58 b 583 94 595 23 583 54 b 606 310 583 167 592 238 l 581 310 b 252 -16 465 92 369 -16 b 80 213 159 -16 80 54 b 126 568 80 326 107 473 b 100 648 110 587 100 616 b 188 740 100 708 139 740 b 274 631 240 740 274 703 b 218 235 274 538 218 374 b 281 113 218 160 239 113 b 631 662 392 113 546 441 b 730 742 651 715 684 749 b 778 627 774 737 788 692 b 714 160 756 478 726 291 b 761 72 744 145 761 110 b 710 -12 761 33 740 2 b 624 -135 658 -53 624 -92 b 683 -195 624 -171 647 -187 b 722 -250 712 -201 727 -221 b 644 -296 715 -281 693 -299 "},"ů":{"ha":861,"x_min":0,"x_max":0,"o":"m 674 -19 b 583 94 621 -19 583 22 b 606 310 583 167 592 238 l 581 310 b 252 -16 465 92 369 -16 b 80 213 159 -16 80 54 b 126 568 80 326 107 473 b 100 648 110 587 100 616 b 188 740 100 708 139 740 b 274 631 240 740 274 703 b 218 235 274 538 218 374 b 281 113 218 160 239 113 b 631 662 392 113 546 441 b 730 742 651 715 684 749 b 778 627 774 737 788 692 b 714 160 756 478 726 291 b 761 72 744 145 761 110 b 674 -19 761 19 722 -19 m 454 841 b 296 999 372 841 296 894 b 490 1203 296 1109 374 1203 b 592 1174 528 1203 568 1193 b 601 1120 608 1161 610 1138 l 599 1117 b 640 1010 619 1097 640 1063 b 454 841 640 915 565 841 m 391 1008 b 461 931 391 960 421 931 b 547 1001 514 931 544 963 b 525 1054 547 1025 536 1043 b 519 1108 513 1067 506 1089 b 491 1113 511 1110 502 1113 b 391 1008 432 1113 391 1058 "},"ũ":{"ha":861,"x_min":0,"x_max":0,"o":"m 674 -19 b 583 94 621 -19 583 22 b 606 310 583 167 592 238 l 581 310 b 252 -16 465 92 369 -16 b 80 213 159 -16 80 54 b 126 568 80 326 107 473 b 100 648 110 587 100 616 b 188 740 100 708 139 740 b 274 631 240 740 274 703 b 218 235 274 538 218 374 b 281 113 218 160 239 113 b 631 662 392 113 546 441 b 730 742 651 715 684 749 b 778 627 774 737 788 692 b 714 160 756 478 726 291 b 761 72 744 145 761 110 b 674 -19 761 19 722 -19 m 586 871 b 378 983 473 871 440 983 b 315 938 350 983 328 967 b 244 901 299 903 277 891 b 209 983 209 911 192 941 b 363 1092 235 1047 291 1092 b 567 990 473 1092 505 990 b 628 1053 595 990 614 1015 b 701 1096 642 1088 665 1106 b 739 1027 733 1088 748 1063 b 586 871 715 926 662 871 "},"v":{"ha":861,"x_min":0,"x_max":0,"o":"m 375 -17 b 247 147 303 -17 265 37 b 191 548 231 241 208 419 b 138 638 157 563 138 603 b 224 724 138 692 176 724 b 320 621 276 724 312 689 b 374 144 336 506 356 292 l 398 137 b 643 710 485 301 585 519 b 740 766 659 762 700 780 b 774 651 781 752 794 713 b 524 115 725 497 605 247 b 375 -17 476 32 445 -17 "},"w":{"ha":861,"x_min":0,"x_max":0,"o":"m 144 -11 b 64 123 90 -11 64 34 b 128 585 64 240 105 403 b 72 673 92 607 72 637 b 153 753 72 724 105 753 b 249 622 210 753 249 710 b 181 176 249 515 219 328 l 201 167 b 365 517 267 281 323 419 b 461 608 396 589 419 615 b 515 504 503 599 515 565 b 498 190 515 431 503 287 l 520 181 b 693 661 589 342 649 507 b 783 758 715 734 740 767 b 815 650 822 750 830 713 b 640 154 773 478 699 279 b 486 -9 590 53 545 -9 b 403 115 434 -9 410 38 b 404 320 401 166 401 238 l 384 330 b 267 90 355 253 309 159 b 144 -11 229 28 194 -11 "},"ẃ":{"ha":861,"x_min":0,"x_max":0,"o":"m 144 -11 b 64 123 90 -11 64 34 b 128 585 64 240 105 403 b 72 673 92 607 72 637 b 153 753 72 724 105 753 b 249 622 210 753 249 710 b 181 176 249 515 219 328 l 201 167 b 365 517 267 281 323 419 b 461 608 396 589 419 615 b 515 504 503 599 515 565 b 498 190 515 431 503 287 l 520 181 b 693 661 589 342 649 507 b 783 758 715 734 740 767 b 815 650 822 750 830 713 b 640 154 773 478 699 279 b 486 -9 590 53 545 -9 b 403 115 434 -9 410 38 b 404 320 401 166 401 238 l 384 330 b 267 90 355 253 309 159 b 144 -11 229 28 194 -11 m 455 874 b 535 894 484 855 507 868 b 651 1041 584 939 624 991 b 626 1139 674 1083 663 1116 b 528 1113 588 1160 542 1160 b 442 952 507 1059 478 1001 b 455 874 419 920 426 892 "},"ŵ":{"ha":861,"x_min":0,"x_max":0,"o":"m 144 -11 b 64 123 90 -11 64 34 b 128 585 64 240 105 403 b 72 673 92 607 72 637 b 153 753 72 724 105 753 b 249 622 210 753 249 710 b 181 176 249 515 219 328 l 201 167 b 365 517 267 281 323 419 b 461 608 396 589 419 615 b 515 504 503 599 515 565 b 498 190 515 431 503 287 l 520 181 b 693 661 589 342 649 507 b 783 758 715 734 740 767 b 815 650 822 750 830 713 b 640 154 773 478 699 279 b 486 -9 590 53 545 -9 b 403 115 434 -9 410 38 b 404 320 401 166 401 238 l 384 330 b 267 90 355 253 309 159 b 144 -11 229 28 194 -11 m 233 897 b 230 1001 206 921 200 970 b 313 1016 253 1026 288 1027 b 419 1110 353 1047 392 1083 b 562 1112 467 1152 519 1147 b 678 973 605 1074 646 1022 b 674 894 699 944 699 915 b 596 900 650 872 616 872 b 494 1032 567 943 532 991 b 340 904 442 981 385 933 b 233 897 304 880 262 871 "},"ẅ":{"ha":861,"x_min":0,"x_max":0,"o":"m 144 -11 b 64 123 90 -11 64 34 b 128 585 64 240 105 403 b 72 673 92 607 72 637 b 153 753 72 724 105 753 b 249 622 210 753 249 710 b 181 176 249 515 219 328 l 201 167 b 365 517 267 281 323 419 b 461 608 396 589 419 615 b 515 504 503 599 515 565 b 498 190 515 431 503 287 l 520 181 b 693 661 589 342 649 507 b 783 758 715 734 740 767 b 815 650 822 750 830 713 b 640 154 773 478 699 279 b 486 -9 590 53 545 -9 b 403 115 434 -9 410 38 b 404 320 401 166 401 238 l 384 330 b 267 90 355 253 309 159 b 144 -11 229 28 194 -11 m 301 873 b 237 915 274 873 250 888 b 188 985 207 916 188 942 b 297 1092 188 1051 240 1092 b 403 985 355 1092 403 1050 b 301 873 403 915 349 873 m 543 971 b 589 1045 543 1006 561 1032 b 664 1099 594 1080 624 1099 b 775 985 732 1099 775 1046 b 656 873 775 924 731 873 b 543 971 588 873 543 917 "},"ẁ":{"ha":861,"x_min":0,"x_max":0,"o":"m 144 -11 b 64 123 90 -11 64 34 b 128 585 64 240 105 403 b 72 673 92 607 72 637 b 153 753 72 724 105 753 b 249 622 210 753 249 710 b 181 176 249 515 219 328 l 201 167 b 365 517 267 281 323 419 b 461 608 396 589 419 615 b 515 504 503 599 515 565 b 498 190 515 431 503 287 l 520 181 b 693 661 589 342 649 507 b 783 758 715 734 740 767 b 815 650 822 750 830 713 b 640 154 773 478 699 279 b 486 -9 590 53 545 -9 b 403 115 434 -9 410 38 b 404 320 401 166 401 238 l 384 330 b 267 90 355 253 309 159 b 144 -11 229 28 194 -11 m 506 874 b 426 894 477 855 454 868 b 310 1041 378 939 337 991 b 336 1139 288 1083 299 1116 b 434 1113 373 1160 419 1160 b 520 952 455 1059 484 1001 b 506 874 542 920 535 892 "},"x":{"ha":861,"x_min":0,"x_max":0,"o":"m 110 2 b 113 108 78 28 76 75 b 294 304 167 163 230 232 b 186 642 226 422 186 547 b 274 756 186 712 222 756 b 358 671 321 756 358 721 b 329 599 358 646 350 616 b 388 410 339 534 360 470 b 616 672 478 513 562 611 b 725 741 656 717 687 741 b 800 660 772 741 800 703 b 725 571 800 618 772 571 b 710 572 720 571 715 572 b 460 290 640 488 549 387 b 668 101 520 208 594 142 b 702 -1 717 74 729 31 b 587 -5 672 -38 631 -29 b 370 191 505 42 431 113 b 212 22 308 124 252 64 b 110 2 183 -7 140 -23 "},"y":{"ha":861,"x_min":0,"x_max":0,"o":"m 324 -295 b 102 -204 238 -295 153 -260 b 91 -106 74 -174 64 -138 b 196 -110 119 -73 160 -80 b 338 -174 238 -153 288 -174 b 525 70 426 -174 493 -98 l 586 390 l 564 395 b 409 160 508 300 456 219 b 242 50 352 89 299 50 b 153 224 167 50 140 111 b 197 594 169 343 194 459 b 135 683 155 615 135 644 b 222 765 135 738 172 765 b 323 648 286 765 313 708 b 272 185 340 557 322 385 l 286 180 b 573 614 409 309 517 508 b 697 733 617 695 651 733 b 747 588 749 733 760 683 b 656 48 732 472 694 250 b 324 -295 617 -161 494 -295 "},"ý":{"ha":861,"x_min":0,"x_max":0,"o":"m 324 -295 b 102 -204 238 -295 153 -260 b 91 -106 74 -174 64 -138 b 196 -110 119 -73 160 -80 b 338 -174 238 -153 288 -174 b 525 70 426 -174 493 -98 l 586 390 l 564 395 b 409 160 508 300 456 219 b 242 50 352 89 299 50 b 153 224 167 50 140 111 b 197 594 169 343 194 459 b 135 683 155 615 135 644 b 222 765 135 738 172 765 b 323 648 286 765 313 708 b 272 185 340 557 322 385 l 286 180 b 573 614 409 309 517 508 b 697 733 617 695 651 733 b 747 588 749 733 760 683 b 656 48 732 472 694 250 b 324 -295 617 -161 494 -295 m 454 874 b 534 894 483 855 506 868 b 650 1041 583 939 624 991 b 624 1139 672 1083 662 1116 b 526 1113 588 1160 541 1160 b 440 952 506 1059 476 1001 b 454 874 419 920 425 892 "},"ŷ":{"ha":861,"x_min":0,"x_max":0,"o":"m 324 -295 b 102 -204 238 -295 153 -260 b 91 -106 74 -174 64 -138 b 196 -110 119 -73 160 -80 b 338 -174 238 -153 288 -174 b 525 70 426 -174 493 -98 l 586 390 l 564 395 b 409 160 508 300 456 219 b 242 50 352 89 299 50 b 153 224 167 50 140 111 b 197 594 169 343 194 459 b 135 683 155 615 135 644 b 222 765 135 738 172 765 b 323 648 286 765 313 708 b 272 185 340 557 322 385 l 286 180 b 573 614 409 309 517 508 b 697 733 617 695 651 733 b 747 588 749 733 760 683 b 656 48 732 472 694 250 b 324 -295 617 -161 494 -295 m 231 897 b 228 1001 205 921 199 970 b 311 1016 252 1026 286 1027 b 419 1110 353 1047 392 1083 b 561 1112 465 1152 518 1147 b 678 973 604 1074 645 1022 b 674 894 697 944 698 915 b 594 900 649 872 615 872 b 492 1033 565 943 531 991 b 339 904 440 982 384 933 b 231 897 303 880 260 871 "},"ÿ":{"ha":861,"x_min":0,"x_max":0,"o":"m 324 -295 b 102 -204 238 -295 153 -260 b 91 -106 74 -174 64 -138 b 196 -110 119 -73 160 -80 b 338 -174 238 -153 288 -174 b 525 70 426 -174 493 -98 l 586 390 l 564 395 b 409 160 508 300 456 219 b 242 50 352 89 299 50 b 153 224 167 50 140 111 b 197 594 169 343 194 459 b 135 683 155 615 135 644 b 222 765 135 738 172 765 b 323 648 286 765 313 708 b 272 185 340 557 322 385 l 286 180 b 573 614 409 309 517 508 b 697 733 617 695 651 733 b 747 588 749 733 760 683 b 656 48 732 472 694 250 b 324 -295 617 -161 494 -295 m 299 873 b 235 915 273 873 249 888 b 187 985 206 916 187 942 b 295 1092 187 1051 238 1092 b 402 985 353 1092 402 1050 b 299 873 402 915 348 873 m 542 971 b 588 1046 542 1006 560 1033 b 663 1099 594 1080 623 1099 b 774 985 731 1099 774 1046 b 656 873 774 924 729 873 b 542 971 587 873 542 917 "},"ỳ":{"ha":861,"x_min":0,"x_max":0,"o":"m 324 -295 b 102 -204 238 -295 153 -260 b 91 -106 74 -174 64 -138 b 196 -110 119 -73 160 -80 b 338 -174 238 -153 288 -174 b 525 70 426 -174 493 -98 l 586 390 l 564 395 b 409 160 508 300 456 219 b 242 50 352 89 299 50 b 153 224 167 50 140 111 b 197 594 169 343 194 459 b 135 683 155 615 135 644 b 222 765 135 738 172 765 b 323 648 286 765 313 708 b 272 185 340 557 322 385 l 286 180 b 573 614 409 309 517 508 b 697 733 617 695 651 733 b 747 588 749 733 760 683 b 656 48 732 472 694 250 b 324 -295 617 -161 494 -295 m 506 874 b 426 894 476 855 453 868 b 309 1041 376 939 336 991 b 335 1139 287 1083 298 1116 b 433 1113 372 1160 418 1160 b 519 952 453 1059 483 1001 b 506 874 541 920 535 892 "},"ȳ":{"ha":861,"x_min":0,"x_max":0,"o":"m 324 -295 b 102 -204 238 -295 153 -260 b 91 -106 74 -174 64 -138 b 196 -110 119 -73 160 -80 b 338 -174 238 -153 288 -174 b 525 70 426 -174 493 -98 l 586 390 l 564 395 b 409 160 508 300 456 219 b 242 50 352 89 299 50 b 153 224 167 50 140 111 b 197 594 169 343 194 459 b 135 683 155 615 135 644 b 222 765 135 738 172 765 b 323 648 286 765 313 708 b 272 185 340 557 322 385 l 286 180 b 573 614 409 309 517 508 b 697 733 617 695 651 733 b 747 588 749 733 760 683 b 656 48 732 472 694 250 b 324 -295 617 -161 494 -295 m 306 913 b 252 962 276 914 253 934 b 304 1012 251 990 274 1010 l 653 1027 b 708 973 684 1028 707 1007 b 655 915 708 938 685 915 l 306 913 "},"ỹ":{"ha":861,"x_min":0,"x_max":0,"o":"m 324 -295 b 102 -204 238 -295 153 -260 b 91 -106 74 -174 64 -138 b 196 -110 119 -73 160 -80 b 338 -174 238 -153 288 -174 b 525 70 426 -174 493 -98 l 586 390 l 564 395 b 409 160 508 300 456 219 b 242 50 352 89 299 50 b 153 224 167 50 140 111 b 197 594 169 343 194 459 b 135 683 155 615 135 644 b 222 765 135 738 172 765 b 323 648 286 765 313 708 b 272 185 340 557 322 385 l 286 180 b 573 614 409 309 517 508 b 697 733 617 695 651 733 b 747 588 749 733 760 683 b 656 48 732 472 694 250 b 324 -295 617 -161 494 -295 m 591 871 b 383 983 478 871 445 983 b 319 938 355 983 333 967 b 249 901 303 903 282 891 b 214 983 214 911 197 941 b 368 1092 240 1047 296 1092 b 572 990 478 1092 510 990 b 633 1053 600 990 619 1015 b 706 1096 647 1088 669 1106 b 744 1027 738 1088 753 1063 b 591 871 720 926 667 871 "},"z":{"ha":861,"x_min":0,"x_max":0,"o":"m 166 -12 b 79 53 113 -12 79 10 b 156 176 79 94 108 130 b 624 606 234 251 460 465 l 618 619 b 289 565 530 591 383 565 b 124 659 208 565 124 583 b 211 744 124 708 158 744 b 301 692 247 744 287 726 b 663 740 410 701 582 740 b 780 660 734 740 780 713 b 716 540 780 622 754 582 b 267 136 615 427 383 235 l 275 119 b 641 173 344 138 543 173 b 783 91 728 173 783 153 b 679 3 783 35 733 3 b 592 42 644 3 608 17 b 166 -12 413 33 253 -12 "},"ź":{"ha":861,"x_min":0,"x_max":0,"o":"m 166 -12 b 79 53 113 -12 79 10 b 156 176 79 94 108 130 b 624 606 234 251 460 465 l 618 619 b 289 565 530 591 383 565 b 124 659 208 565 124 583 b 211 744 124 708 158 744 b 301 692 247 744 287 726 b 663 740 410 701 582 740 b 780 660 734 740 780 713 b 716 540 780 622 754 582 b 267 136 615 427 383 235 l 275 119 b 641 173 344 138 543 173 b 783 91 728 173 783 153 b 679 3 783 35 733 3 b 592 42 644 3 608 17 b 166 -12 413 33 253 -12 m 428 874 b 508 894 457 855 480 868 b 624 1041 557 939 597 991 b 599 1139 647 1083 635 1116 b 501 1113 561 1160 515 1160 b 415 952 480 1059 451 1001 b 428 874 392 920 399 892 "},"ž":{"ha":861,"x_min":0,"x_max":0,"o":"m 166 -12 b 79 53 113 -12 79 10 b 156 176 79 94 108 130 b 624 606 234 251 460 465 l 618 619 b 289 565 530 591 383 565 b 124 659 208 565 124 583 b 211 744 124 708 158 744 b 301 692 247 744 287 726 b 663 740 410 701 582 740 b 780 660 734 740 780 713 b 716 540 780 622 754 582 b 267 136 615 427 383 235 l 275 119 b 641 173 344 138 543 173 b 783 91 728 173 783 153 b 679 3 783 35 733 3 b 592 42 644 3 608 17 b 166 -12 413 33 253 -12 m 215 1113 b 212 1009 188 1090 182 1040 b 294 994 235 985 269 983 b 402 900 336 963 375 927 b 544 899 449 858 501 863 b 661 1038 588 936 628 989 b 657 1117 681 1066 681 1095 b 578 1110 633 1139 599 1139 b 476 978 549 1067 514 1019 b 322 1106 424 1028 367 1077 b 215 1113 286 1131 244 1140 "},"ż":{"ha":861,"x_min":0,"x_max":0,"o":"m 166 -12 b 79 53 113 -12 79 10 b 156 176 79 94 108 130 b 624 606 234 251 460 465 l 618 619 b 289 565 530 591 383 565 b 124 659 208 565 124 583 b 211 744 124 708 158 744 b 301 692 247 744 287 726 b 663 740 410 701 582 740 b 780 660 734 740 780 713 b 716 540 780 622 754 582 b 267 136 615 427 383 235 l 275 119 b 641 173 344 138 543 173 b 783 91 728 173 783 153 b 679 3 783 35 733 3 b 592 42 644 3 608 17 b 166 -12 413 33 253 -12 m 457 874 b 388 916 428 874 401 890 b 335 986 354 917 335 944 b 452 1094 335 1053 390 1094 b 568 987 516 1094 568 1052 b 457 874 568 917 510 874 "},"":{"ha":861,"x_min":0,"x_max":0,"o":"m 634 -1 b 473 -203 634 -121 578 -203 b 349 -146 413 -203 372 -178 l 337 -146 l 331 -194 l 252 -194 l 252 367 l 343 367 l 343 142 l 348 142 b 476 200 376 174 417 200 b 634 -1 581 200 634 117 m 343 -99 b 435 -128 373 -120 404 -128 b 541 -1 503 -128 541 -88 b 435 125 541 85 506 125 b 343 96 403 125 373 117 l 343 -99 "},"":{"ha":861,"x_min":0,"x_max":0,"o":"m 628 -74 b 433 -203 604 -167 523 -203 b 227 -1 310 -203 227 -133 b 438 200 227 137 316 200 b 628 60 544 200 619 153 l 540 53 b 435 129 531 103 492 129 b 320 -1 360 129 320 83 b 435 -132 320 -90 364 -132 b 541 -62 491 -132 526 -105 l 628 -74 "},"":{"ha":861,"x_min":0,"x_max":0,"o":"m 227 -3 b 389 200 227 117 283 200 b 513 142 449 200 488 174 l 518 142 l 518 367 l 609 367 l 609 -194 l 531 -194 l 525 -146 l 513 -146 b 385 -203 485 -178 444 -203 b 227 -3 280 -203 227 -120 m 320 -3 b 426 -128 320 -88 356 -128 b 518 -99 458 -128 488 -120 l 518 97 b 426 125 489 117 458 125 b 320 -3 358 125 320 84 "},"":{"ha":861,"x_min":0,"x_max":0,"o":"m 632 310 b 542 320 601 316 574 320 b 441 226 474 320 441 301 l 441 191 l 618 191 l 618 118 l 441 118 l 441 -121 l 577 -121 l 577 -194 l 248 -194 l 248 -121 l 350 -121 l 350 118 l 224 118 l 224 191 l 350 191 l 350 208 b 538 398 350 346 416 398 b 632 387 572 398 603 394 l 632 310 "},"":{"ha":861,"x_min":0,"x_max":0,"o":"m 227 19 b 388 200 227 126 288 200 b 513 142 448 200 489 174 l 525 142 l 531 191 l 609 191 l 609 -172 b 419 -341 609 -292 544 -341 b 239 -237 301 -341 254 -297 l 322 -220 b 419 -278 338 -260 370 -278 b 518 -182 477 -278 518 -255 l 518 -103 l 513 -103 b 385 -160 485 -135 444 -160 b 227 19 285 -160 227 -87 m 320 19 b 426 -85 320 -48 358 -85 b 518 -56 458 -85 489 -77 l 518 97 b 426 125 489 117 458 125 b 320 19 360 125 320 87 "},"":{"ha":861,"x_min":0,"x_max":0,"o":"m 227 -3 b 389 200 227 117 283 200 b 513 142 449 200 489 174 l 525 142 l 531 191 l 609 191 l 609 -332 l 518 -332 l 518 -146 l 513 -146 b 385 -203 485 -178 444 -203 b 227 -3 281 -203 227 -121 m 320 -3 b 426 -128 320 -88 356 -128 b 518 -99 458 -128 488 -119 l 518 96 b 426 125 488 117 457 125 b 320 -3 358 125 320 84 "},"ₐ":{"ha":861,"x_min":0,"x_max":0,"o":"m 419 200 b 585 78 521 200 585 168 l 585 -101 b 629 -129 585 -126 594 -133 l 629 -194 b 572 -202 608 -200 590 -202 b 499 -147 520 -202 503 -178 l 490 -147 b 356 -203 459 -177 417 -203 b 233 -99 281 -203 233 -164 b 493 22 233 8 366 24 l 493 74 b 412 138 493 124 460 138 b 330 83 365 138 330 124 l 330 68 l 247 68 l 247 88 b 419 200 247 153 295 200 m 328 -87 b 399 -137 328 -119 355 -137 b 493 -108 435 -137 465 -126 l 493 -27 b 461 -25 481 -26 470 -25 b 328 -87 378 -25 328 -44 "},"ₑ":{"ha":861,"x_min":0,"x_max":0,"o":"m 227 -1 b 439 200 227 133 313 200 b 626 25 557 200 626 142 l 626 -11 l 320 -11 b 435 -132 324 -90 364 -132 b 535 -78 479 -132 517 -117 l 624 -91 b 435 -203 596 -169 524 -203 b 227 -1 313 -203 227 -134 m 537 44 b 436 129 537 103 494 129 b 324 44 378 129 338 103 "},"ᵢ":{"ha":861,"x_min":0,"x_max":0,"o":"m 245 -121 l 385 -121 l 385 119 l 245 119 l 245 191 l 465 200 l 476 190 l 476 -121 l 616 -121 l 616 -194 l 245 -194 m 415 269 b 351 326 377 269 351 291 b 415 383 351 361 377 383 b 478 326 452 383 478 361 b 415 269 478 291 452 269 "},"ⱼ":{"ha":861,"x_min":0,"x_max":0,"o":"m 544 -161 b 355 -348 544 -309 495 -348 b 245 -335 317 -348 280 -344 l 245 -258 b 351 -270 281 -266 315 -270 b 453 -162 426 -270 453 -247 l 453 119 l 265 119 l 265 191 l 533 200 l 544 190 l 544 -161 m 481 269 b 418 326 444 269 418 291 b 481 383 418 361 444 383 b 544 326 519 383 544 361 b 481 269 544 291 519 269 "},"ₒ":{"ha":861,"x_min":0,"x_max":0,"o":"m 634 -3 b 431 -203 634 -141 542 -203 b 227 -3 319 -203 227 -142 b 431 200 227 135 319 200 b 634 -3 542 200 634 135 m 541 -3 b 431 129 541 92 495 129 b 320 -3 366 129 320 92 b 431 -132 320 -97 366 -132 b 541 -3 495 -132 541 -97 "},"ᵣ":{"ha":861,"x_min":0,"x_max":0,"o":"m 427 135 l 439 135 b 587 200 480 178 520 200 b 627 196 601 200 615 199 l 627 111 b 434 77 545 111 492 107 l 434 -121 l 569 -121 l 569 -194 l 240 -194 l 240 -121 l 342 -121 l 342 118 l 240 118 l 240 191 l 421 191 "},"ₔ":{"ha":861,"x_min":0,"x_max":0,"o":"m 634 -2 b 423 -203 634 -135 549 -203 b 236 -28 305 -203 236 -145 l 236 8 l 542 8 b 426 129 538 87 497 129 b 326 75 382 129 344 115 l 238 88 b 426 200 266 166 338 200 b 634 -2 549 200 634 131 m 325 -47 b 425 -132 325 -106 367 -132 b 537 -47 483 -132 524 -106 l 325 -47 "},"ᵤ":{"ha":861,"x_min":0,"x_max":0,"o":"m 343 191 l 343 -65 b 410 -131 343 -117 373 -131 b 518 -84 451 -131 487 -114 l 518 191 l 609 191 l 609 -194 l 531 -194 l 524 -137 l 513 -137 b 367 -203 477 -175 434 -203 b 252 -89 295 -203 252 -169 l 252 191 "},"ᵥ":{"ha":861,"x_min":0,"x_max":0,"o":"m 315 191 l 432 -85 l 438 -85 l 553 191 l 643 191 l 478 -194 l 383 -194 l 217 191 "},"ₓ":{"ha":861,"x_min":0,"x_max":0,"o":"m 324 191 l 436 58 l 542 191 l 644 191 l 485 0 l 649 -194 l 542 -194 l 426 -56 l 317 -194 l 212 -194 l 376 2 l 217 191 "},"ª":{"ha":861,"x_min":0,"x_max":0,"o":"m 419 1158 b 585 1037 521 1158 585 1126 l 585 857 b 629 829 585 832 594 826 l 629 764 b 572 756 608 758 590 756 b 499 811 520 756 503 780 l 490 811 b 356 756 459 781 417 756 b 233 859 281 756 233 794 b 493 981 233 967 366 982 l 493 1033 b 412 1097 493 1083 460 1097 b 330 1042 365 1097 330 1082 l 330 1026 l 247 1026 l 247 1046 b 419 1158 247 1112 295 1158 m 328 871 b 399 821 328 839 355 821 b 493 851 435 821 465 833 l 493 931 b 461 933 481 933 470 933 b 328 871 378 933 328 914 "},"º":{"ha":861,"x_min":0,"x_max":0,"o":"m 634 956 b 431 756 634 817 542 756 b 227 956 319 756 227 817 b 431 1158 227 1094 319 1158 b 634 956 542 1158 634 1094 m 541 956 b 431 1088 541 1050 495 1088 b 320 956 366 1088 320 1050 b 431 826 320 861 366 826 b 541 956 495 826 541 861 "},"ʰ":{"ha":861,"x_min":0,"x_max":0,"o":"m 252 764 l 252 1326 l 343 1326 l 343 1093 l 354 1093 b 496 1158 390 1131 430 1158 b 609 1044 567 1158 609 1125 l 609 764 l 518 764 l 518 1021 b 451 1086 518 1072 488 1086 b 343 1038 408 1086 372 1067 l 343 764 "},"ⁱ":{"ha":861,"x_min":0,"x_max":0,"o":"m 245 838 l 385 838 l 385 1077 l 245 1077 l 245 1149 l 465 1158 l 476 1148 l 476 838 l 616 838 l 616 764 l 245 764 m 415 1227 b 351 1285 377 1227 351 1249 b 415 1341 351 1319 377 1341 b 478 1285 452 1341 478 1319 b 415 1227 478 1249 452 1227 "},"ʲ":{"ha":861,"x_min":0,"x_max":0,"o":"m 544 797 b 355 610 544 649 495 610 b 245 623 317 610 280 615 l 245 700 b 351 688 281 692 315 688 b 453 796 426 688 453 712 l 453 1077 l 265 1077 l 265 1149 l 533 1158 l 544 1148 l 544 797 m 481 1227 b 418 1285 444 1227 418 1249 b 481 1341 418 1319 444 1341 b 544 1285 519 1341 544 1319 b 481 1227 544 1249 519 1227 "},"ˡ":{"ha":861,"x_min":0,"x_max":0,"o":"m 245 838 l 385 838 l 385 1253 l 245 1253 l 245 1326 l 465 1335 l 476 1324 l 476 838 l 616 838 l 616 764 l 245 764 "},"ⁿ":{"ha":861,"x_min":0,"x_max":0,"o":"m 518 764 l 518 1021 b 451 1086 518 1072 488 1086 b 343 1039 408 1086 373 1067 l 343 764 l 252 764 l 252 1149 l 331 1149 l 337 1093 l 349 1093 b 494 1158 386 1132 429 1158 b 609 1044 566 1158 609 1125 l 609 764 "},"ʳ":{"ha":861,"x_min":0,"x_max":0,"o":"m 427 1093 l 439 1093 b 587 1158 480 1137 520 1158 b 627 1154 601 1158 615 1157 l 627 1069 b 434 1035 545 1069 492 1065 l 434 838 l 569 838 l 569 764 l 240 764 l 240 838 l 342 838 l 342 1076 l 240 1076 l 240 1149 l 421 1149 "},"ˢ":{"ha":861,"x_min":0,"x_max":0,"o":"m 433 1158 b 607 1043 547 1158 607 1118 l 525 1037 b 426 1094 520 1074 491 1094 b 337 1050 371 1094 337 1079 b 456 992 337 1021 369 1010 b 614 878 556 972 614 951 b 426 756 614 803 549 756 b 232 875 311 756 249 788 l 315 884 b 430 821 331 830 374 821 b 523 868 497 821 523 843 b 398 926 523 897 490 908 b 250 1042 306 944 250 972 b 433 1158 250 1115 308 1158 "},"ʷ":{"ha":861,"x_min":0,"x_max":0,"o":"m 283 1149 l 338 902 l 344 902 l 406 1099 l 465 1099 l 519 902 l 526 902 l 581 1149 l 663 1149 l 574 764 l 497 764 l 433 985 l 428 985 l 359 764 l 288 764 l 198 1149 "},"ˣ":{"ha":861,"x_min":0,"x_max":0,"o":"m 324 1149 l 436 1017 l 542 1149 l 644 1149 l 485 958 l 649 764 l 542 764 l 426 902 l 317 764 l 212 764 l 376 960 l 217 1149 "},"ʸ":{"ha":861,"x_min":0,"x_max":0,"o":"m 315 1149 l 440 881 l 445 881 l 555 1149 l 646 1149 l 491 781 b 285 617 450 681 398 617 b 235 622 268 617 250 619 l 235 702 b 288 697 252 699 267 697 b 389 754 351 697 377 722 l 394 768 l 217 1149 "},"ℂ":{"ha":861,"x_min":0,"x_max":0,"o":"m 178 506 b 275 144 178 327 216 211 l 275 871 b 178 506 216 803 178 686 m 85 506 b 450 1030 85 861 239 1030 b 774 702 643 1030 765 894 l 689 694 b 452 949 676 847 592 949 b 358 931 419 949 388 943 l 358 83 b 452 66 388 72 419 66 b 689 321 592 66 676 167 l 774 313 b 450 -15 765 120 643 -15 b 85 506 239 -15 85 153 "},"ℕ":{"ha":861,"x_min":0,"x_max":0,"o":"m 132 1014 l 253 1014 l 646 415 l 646 1014 l 729 1014 l 729 0 l 608 0 l 215 599 l 215 0 l 132 0 m 646 90 l 646 267 l 215 924 l 215 747 "},"ℚ":{"ha":861,"x_min":0,"x_max":0,"o":"m 575 114 b 691 508 648 175 691 299 b 431 949 691 831 588 949 b 353 938 403 949 377 946 l 353 76 b 431 65 377 69 403 65 b 513 78 460 65 488 69 l 417 273 l 501 273 m 785 508 b 615 40 785 269 721 115 l 728 -176 l 638 -176 l 548 4 b 431 -16 512 -10 472 -16 b 76 508 218 -16 76 153 b 431 1031 76 862 218 1031 b 785 508 643 1031 785 862 m 170 508 b 270 128 170 315 207 194 l 270 886 b 170 508 207 822 170 701 "},"ℝ":{"ha":861,"x_min":0,"x_max":0,"o":"m 399 490 b 676 726 610 490 676 585 b 419 938 676 881 597 938 l 392 938 l 392 490 l 399 490 m 132 1014 l 436 1014 b 763 726 639 1014 763 928 b 572 440 763 587 703 484 l 789 0 l 690 0 l 490 422 b 408 417 465 418 438 417 l 392 417 l 392 0 l 132 0 m 309 76 l 309 938 l 215 938 l 215 76 "},"ℤ":{"ha":861,"x_min":0,"x_max":0,"o":"m 757 1014 l 757 931 l 388 83 l 757 83 l 757 0 l 104 0 l 104 83 l 473 931 l 104 931 l 104 1014 m 297 83 l 665 931 l 565 931 l 197 83 "},"ₕ":{"ha":861,"x_min":0,"x_max":0,"o":"m 252 -194 l 252 367 l 343 367 l 343 135 l 354 135 b 496 200 390 172 430 200 b 609 86 567 200 609 167 l 609 -194 l 518 -194 l 518 63 b 451 128 518 114 488 128 b 343 80 408 128 372 108 l 343 -194 "},"ₖ":{"ha":861,"x_min":0,"x_max":0,"o":"m 252 -194 l 252 367 l 343 367 l 343 47 l 416 47 l 542 191 l 643 191 l 483 10 l 483 6 l 656 -194 l 549 -194 l 402 -25 l 343 -25 l 343 -194 "},"ₗ":{"ha":861,"x_min":0,"x_max":0,"o":"m 245 -121 l 385 -121 l 385 295 l 245 295 l 245 367 l 465 376 l 476 365 l 476 -121 l 616 -121 l 616 -194 l 245 -194 "},"ₘ":{"ha":861,"x_min":0,"x_max":0,"o":"m 390 -194 l 390 92 b 362 124 390 117 376 124 b 318 104 345 124 331 115 l 318 -194 l 238 -194 l 238 191 l 306 191 l 311 140 l 319 140 b 406 199 333 170 362 199 b 470 140 443 199 465 181 l 473 140 b 559 199 488 170 515 199 b 624 124 600 199 624 176 l 624 -194 l 544 -194 l 544 92 b 515 124 544 117 530 124 b 471 104 499 124 484 116 l 471 -194 "},"ₙ":{"ha":861,"x_min":0,"x_max":0,"o":"m 518 -194 l 518 63 b 451 128 518 114 488 128 b 343 81 408 128 373 109 l 343 -194 l 252 -194 l 252 191 l 331 191 l 337 135 l 349 135 b 494 200 386 174 429 200 b 609 86 566 200 609 167 l 609 -194 "},"ₚ":{"ha":861,"x_min":0,"x_max":0,"o":"m 634 -1 b 473 -203 634 -121 578 -203 b 349 -146 413 -203 372 -178 l 343 -146 l 343 -332 l 252 -332 l 252 191 l 331 191 l 336 142 l 348 142 b 476 200 376 174 417 200 b 634 -1 581 200 634 117 m 343 -99 b 435 -128 373 -120 404 -128 b 541 -1 503 -128 541 -88 b 435 125 541 85 506 125 b 343 96 403 125 373 117 l 343 -99 "},"ₛ":{"ha":861,"x_min":0,"x_max":0,"o":"m 433 200 b 607 85 547 200 607 160 l 525 78 b 426 135 520 116 491 135 b 337 92 371 135 337 121 b 456 34 337 63 369 52 b 614 -80 556 14 614 -7 b 426 -203 614 -155 549 -203 b 232 -83 311 -203 249 -170 l 315 -74 b 430 -137 331 -128 374 -137 b 523 -90 497 -137 523 -115 b 398 -33 523 -61 490 -51 b 250 84 306 -14 250 14 b 433 200 250 156 308 200 "},"ₜ":{"ha":861,"x_min":0,"x_max":0,"o":"m 509 -203 b 336 -37 386 -203 336 -171 l 336 118 l 224 118 l 224 191 l 336 191 l 336 303 l 427 303 l 427 191 l 604 191 l 604 118 l 427 118 l 427 -36 b 519 -126 427 -109 452 -126 b 614 -114 550 -126 583 -122 l 614 -191 b 509 -203 583 -199 546 -203 "},"ᴬ":{"ha":861,"x_min":0,"x_max":0,"o":"m 527 764 l 498 842 l 359 842 l 331 764 l 239 764 l 381 1149 l 479 1149 l 623 764 m 477 899 l 430 1024 l 425 1024 l 379 899 "},"ᴮ":{"ha":861,"x_min":0,"x_max":0,"o":"m 281 1149 l 436 1149 b 590 1065 525 1150 590 1138 b 483 969 590 1002 532 973 l 483 966 b 613 878 551 965 613 941 b 436 764 613 804 540 764 l 281 764 m 412 826 b 519 881 476 826 519 838 b 412 932 519 922 477 932 l 373 932 l 373 826 m 405 991 b 499 1042 466 991 499 1009 b 412 1088 499 1074 471 1088 l 373 1088 l 373 991 "},"ᴰ":{"ha":861,"x_min":0,"x_max":0,"o":"m 276 1149 l 404 1149 b 607 955 526 1149 607 1107 b 404 764 607 803 526 764 l 276 764 m 513 955 b 404 1080 513 1046 483 1080 l 368 1080 l 368 833 l 404 833 b 513 955 483 833 513 864 "},"ᴱ":{"ha":861,"x_min":0,"x_max":0,"o":"m 276 1149 l 583 1149 l 583 1076 l 368 1076 l 368 990 l 542 990 l 542 921 l 368 921 l 368 838 l 583 838 l 583 764 l 276 764 "},"ᴳ":{"ha":861,"x_min":0,"x_max":0,"o":"m 601 974 l 601 908 b 438 758 601 794 526 758 b 256 957 324 758 256 815 b 438 1156 256 1098 324 1156 b 599 1040 526 1156 585 1124 l 513 1033 b 439 1078 504 1064 481 1078 b 350 959 380 1078 350 1046 b 440 831 350 865 379 831 b 516 894 485 831 516 847 l 516 905 l 443 905 l 443 974 "},"ᴴ":{"ha":861,"x_min":0,"x_max":0,"o":"m 276 764 l 276 1149 l 368 1149 l 368 992 l 494 992 l 494 1149 l 585 1149 l 585 764 l 494 764 l 494 919 l 368 919 l 368 764 "},"ᴵ":{"ha":861,"x_min":0,"x_max":0,"o":"m 279 838 l 385 838 l 385 1076 l 279 1076 l 279 1149 l 583 1149 l 583 1076 l 477 1076 l 477 838 l 583 838 l 583 764 l 279 764 "},"ᴶ":{"ha":861,"x_min":0,"x_max":0,"o":"m 357 920 l 358 879 b 422 833 359 851 381 833 b 488 888 465 833 488 849 l 488 1076 l 297 1076 l 297 1149 l 580 1149 l 580 894 b 417 758 580 797 527 758 b 274 869 324 758 276 797 l 273 920 "}}}
